<svg width="48" height="48" viewBox="0 0 48 48" fill="none" xmlns="http://www.w3.org/2000/svg">
<rect width="48" height="48" rx="12" fill="url(#paint0_linear_132_8918)"/>
<path d="M34.6 36C31.8222 36 29.0778 35.3947 26.3667 34.184C23.6556 32.9733 21.1889 31.2564 18.9667 29.0333C16.7444 26.8111 15.028 24.3444 13.8173 21.6333C12.6067 18.9222 12.0009 16.1778 12 13.4C12 13 12.1333 12.6667 12.4 12.4C12.6667 12.1333 13 12 13.4 12H18.8C19.1111 12 19.3889 12.1058 19.6333 12.3173C19.8778 12.5289 20.0222 12.7787 20.0667 13.0667L20.9333 17.7333C20.9778 18.0889 20.9667 18.3889 20.9 18.6333C20.8333 18.8778 20.7111 19.0889 20.5333 19.2667L17.3 22.5333C17.7444 23.3556 18.272 24.1498 18.8827 24.916C19.4933 25.6822 20.1658 26.4213 20.9 27.1333C21.5889 27.8222 22.3111 28.4613 23.0667 29.0507C23.8222 29.64 24.6222 30.1787 25.4667 30.6667L28.6 27.5333C28.8 27.3333 29.0613 27.1836 29.384 27.084C29.7067 26.9844 30.0231 26.9564 30.3333 27L34.9333 27.9333C35.2444 28.0222 35.5 28.1836 35.7 28.4173C35.9 28.6511 36 28.912 36 29.2V34.6C36 35 35.8667 35.3333 35.6 35.6C35.3333 35.8667 35 36 34.6 36Z" fill="white"/>
<defs>
<linearGradient id="paint0_linear_132_8918" x1="6" y1="2.5" x2="37.5" y2="38" gradientUnits="userSpaceOnUse">
<stop stop-color="#0078F0"/>
<stop offset="1" stop-color="#003162"/>
</linearGradient>
</defs>
</svg>
