<svg width="32" height="32" viewBox="0 0 32 32" fill="none" xmlns="http://www.w3.org/2000/svg">
<path d="M17.0925 3.78122C17.0925 3.48605 17.2097 3.20297 17.4184 2.99425C17.6272 2.78554 17.9102 2.66828 18.2054 2.66828C21.1561 2.67152 23.9849 3.84512 26.0714 5.93158C28.1578 8.01805 29.3314 10.847 29.3346 13.7977C29.3346 14.0928 29.2174 14.3759 29.0087 14.5846C28.8 14.7934 28.5169 14.9106 28.2217 14.9106C27.9265 14.9106 27.6435 14.7934 27.4348 14.5846C27.226 14.3759 27.1088 14.0928 27.1088 13.7977C27.1061 11.4371 26.1673 9.17403 24.4981 7.50487C22.829 5.83571 20.5659 4.89681 18.2054 4.89416C17.9102 4.89416 17.6272 4.7769 17.4184 4.56819C17.2097 4.35947 17.0925 4.07639 17.0925 3.78122ZM18.2054 9.34592C19.3861 9.34592 20.5184 9.81494 21.3532 10.6498C22.1881 11.4847 22.6571 12.617 22.6571 13.7977C22.6571 14.0928 22.7744 14.3759 22.9831 14.5846C23.1918 14.7934 23.4749 14.9106 23.77 14.9106C24.0652 14.9106 24.3483 14.7934 24.557 14.5846C24.7657 14.3759 24.8829 14.0928 24.8829 13.7977C24.8812 12.0272 24.1771 10.3297 22.9252 9.07783C21.6733 7.82591 19.9759 7.12181 18.2054 7.12004C17.9102 7.12004 17.6272 7.23729 17.4184 7.44601C17.2097 7.65473 17.0925 7.93781 17.0925 8.23298C17.0925 8.52815 17.2097 8.81123 17.4184 9.01994C17.6272 9.22866 17.9102 9.34592 18.2054 9.34592ZM28.3252 21.2978C28.9702 21.9445 29.3323 22.8206 29.3323 23.734C29.3323 24.6474 28.9702 25.5235 28.3252 26.1702L27.3125 27.3377C18.1976 36.0643 -3.98295 13.8889 4.60882 4.74503L5.88868 3.63209C6.53615 3.00514 7.40441 2.65832 8.30562 2.66665C9.20684 2.67498 10.0685 3.0378 10.7043 3.6766C10.7388 3.71111 12.801 6.38995 12.801 6.38995C13.413 7.03282 13.7536 7.88678 13.7522 8.77431C13.7507 9.66185 13.4073 10.5147 12.7933 11.1556L11.5045 12.776C12.2177 14.509 13.2663 16.0839 14.5901 17.4104C15.9138 18.7368 17.4867 19.7886 19.2182 20.5054L20.8486 19.2088C21.4895 18.5952 22.3422 18.2522 23.2295 18.251C24.1167 18.2497 24.9704 18.5904 25.613 19.2021C25.613 19.2021 28.2907 21.2633 28.3252 21.2978ZM26.7938 22.916C26.7938 22.916 24.1306 20.8671 24.0961 20.8326C23.8668 20.6052 23.557 20.4777 23.2341 20.4777C22.9113 20.4777 22.6015 20.6052 22.3722 20.8326C22.3421 20.8637 20.0974 22.6522 20.0974 22.6522C19.9461 22.7726 19.7661 22.8516 19.575 22.8812C19.384 22.9109 19.1885 22.8903 19.0078 22.8214C16.7647 21.9862 14.7272 20.6787 13.0335 18.9874C11.3397 17.2961 10.0292 15.2606 9.19073 13.0186C9.11638 12.8355 9.09214 12.6359 9.1205 12.4403C9.14887 12.2447 9.2288 12.0601 9.3521 11.9057C9.3521 11.9057 11.1406 9.65977 11.1706 9.63083C11.398 9.40155 11.5255 9.09174 11.5255 8.76886C11.5255 8.44598 11.398 8.13617 11.1706 7.90689C11.1361 7.8735 9.08722 5.20801 9.08722 5.20801C8.85451 4.99934 8.5508 4.88759 8.23834 4.89566C7.92588 4.90373 7.62834 5.03101 7.40671 5.25141L6.12685 6.36435C-0.152264 13.9145 19.069 32.0699 25.6854 25.8174L26.6992 24.6488C26.9368 24.4288 27.0795 24.1249 27.0972 23.8016C27.1148 23.4782 27.0061 23.1606 26.7938 22.916Z" fill="black"/>
</svg>
