<svg width="32" height="32" viewBox="0 0 32 32" fill="none" xmlns="http://www.w3.org/2000/svg">
<path d="M17.0905 3.78122C17.0905 3.48605 17.2078 3.20297 17.4165 2.99425C17.6252 2.78554 17.9083 2.66828 18.2035 2.66828C21.1541 2.67152 23.983 3.84512 26.0694 5.93158C28.1559 8.01805 29.3294 10.847 29.3327 13.7977C29.3327 14.0928 29.2154 14.3759 29.0067 14.5846C28.798 14.7934 28.5149 14.9106 28.2198 14.9106C27.9246 14.9106 27.6415 14.7934 27.4328 14.5846C27.2241 14.3759 27.1068 14.0928 27.1068 13.7977C27.1042 11.4371 26.1653 9.17403 24.4962 7.50487C22.827 5.83571 20.564 4.89681 18.2035 4.89416C17.9083 4.89416 17.6252 4.7769 17.4165 4.56819C17.2078 4.35947 17.0905 4.07639 17.0905 3.78122ZM18.2035 9.34592C19.3841 9.34592 20.5164 9.81494 21.3513 10.6498C22.1861 11.4847 22.6551 12.617 22.6551 13.7977C22.6551 14.0928 22.7724 14.3759 22.9811 14.5846C23.1898 14.7934 23.4729 14.9106 23.7681 14.9106C24.0632 14.9106 24.3463 14.7934 24.555 14.5846C24.7637 14.3759 24.881 14.0928 24.881 13.7977C24.8792 12.0272 24.1751 10.3297 22.9232 9.07783C21.6713 7.82591 19.9739 7.12181 18.2035 7.12004C17.9083 7.12004 17.6252 7.23729 17.4165 7.44601C17.2078 7.65473 17.0905 7.93781 17.0905 8.23298C17.0905 8.52815 17.2078 8.81123 17.4165 9.01994C17.6252 9.22866 17.9083 9.34592 18.2035 9.34592ZM28.3233 21.2978C28.9682 21.9445 29.3304 22.8206 29.3304 23.734C29.3304 24.6474 28.9682 25.5235 28.3233 26.1702L27.3105 27.3377C18.1957 36.0643 -3.9849 13.8889 4.60687 4.74503L5.88673 3.63209C6.53419 3.00514 7.40246 2.65832 8.30367 2.66665C9.20488 2.67498 10.0666 3.0378 10.7023 3.6766C10.7369 3.71111 12.7991 6.38995 12.7991 6.38995C13.411 7.03282 13.7517 7.88677 13.7502 8.77431C13.7488 9.66185 13.4053 10.5147 12.7913 11.1556L11.5025 12.776C12.2158 14.509 13.2644 16.0839 14.5881 17.4104C15.9119 18.7368 17.4847 19.7886 19.2162 20.5054L20.8466 19.2088C21.4876 18.5952 22.3403 18.2522 23.2275 18.251C24.1148 18.2497 24.9684 18.5904 25.6111 19.2021C25.6111 19.2021 28.2888 21.2633 28.3233 21.2978ZM26.7919 22.916C26.7919 22.916 24.1287 20.8671 24.0942 20.8326C23.8649 20.6052 23.5551 20.4777 23.2322 20.4777C22.9093 20.4777 22.5995 20.6052 22.3702 20.8326C22.3402 20.8637 20.0954 22.6522 20.0954 22.6522C19.9441 22.7726 19.7641 22.8516 19.5731 22.8812C19.382 22.9109 19.1865 22.8903 19.0059 22.8214C16.7627 21.9862 14.7253 20.6787 13.0315 18.9874C11.3378 17.2961 10.0273 15.2606 9.18877 13.0186C9.11443 12.8355 9.09019 12.6359 9.11855 12.4403C9.14691 12.2447 9.22685 12.0601 9.35015 11.9057C9.35015 11.9057 11.1386 9.65977 11.1687 9.63083C11.396 9.40155 11.5236 9.09174 11.5236 8.76886C11.5236 8.44598 11.396 8.13617 11.1687 7.90689C11.1342 7.8735 9.08527 5.20801 9.08527 5.20801C8.85256 4.99934 8.54885 4.88759 8.23639 4.89566C7.92393 4.90373 7.62639 5.03101 7.40476 5.25141L6.1249 6.36435C-0.154217 13.9145 19.0671 32.0699 25.6834 25.8174L26.6973 24.6488C26.9349 24.4288 27.0776 24.1249 27.0952 23.8016C27.1129 23.4782 27.0041 23.1606 26.7919 22.916Z" fill="#DEE1E5"/>
</svg>
