<svg width="18" height="18" viewBox="0 0 18 18" fill="none" xmlns="http://www.w3.org/2000/svg">
<rect width="18" height="18" rx="9" fill="white"/>
<path d="M12.975 13.5C11.9333 13.5 10.9022 13.275 9.8815 12.825C8.86083 12.375 7.93367 11.7333 7.1 10.9C6.26667 10.0667 5.625 9.14167 5.175 8.125C4.725 7.10833 4.5 6.075 4.5 5.025V4.5H7.45L7.9125 7.0125L6.4875 8.45C6.67083 8.775 6.875 9.08333 7.1 9.375C7.325 9.66667 7.56667 9.9375 7.825 10.1875C8.06667 10.4292 8.33133 10.6605 8.619 10.8815C8.90667 11.1025 9.217 11.3087 9.55 11.5L11 10.05L13.5 10.5625V13.5H12.975Z" fill="#004890"/>
</svg>
