<svg width="58" height="59" viewBox="0 0 58 59" fill="none" xmlns="http://www.w3.org/2000/svg">
<rect y="0.5" width="58" height="58" rx="12" fill="#F5F6F7"/>
<g clip-path="url(#clip0_665_4920)">
<path d="M41.25 33.4873V34.249L41.2413 34.2873C41.2365 34.305 41.2316 34.3226 41.2268 34.3403C41.2229 34.3527 41.2191 34.3662 41.2171 34.3787C41.1282 35.1715 40.8498 35.8926 40.3888 36.5184C40.1636 36.8245 39.9074 37.0922 39.66 37.3516C39.5817 37.4336 39.5034 37.5156 39.4261 37.5986C38.1975 38.9206 36.9671 40.2405 35.7376 41.5615C34.4752 42.9178 33.2129 44.273 31.9505 45.6292C31.473 46.1439 30.9704 46.504 30.4136 46.7333C30.1787 46.8288 29.9429 46.8817 29.7148 46.9336C29.6317 46.9523 29.5485 46.9709 29.4664 46.9917L29.4335 47H28.553L28.5095 46.9844C28.495 46.9792 28.4805 46.973 28.4669 46.9678L28.4582 46.9637C27.5641 46.8371 26.7841 46.422 26.1384 45.7299C23.9684 43.4024 21.7994 41.0728 19.6314 38.7432L17.935 36.921C17.5233 36.4789 17.2082 35.9559 16.9974 35.3676C16.9076 35.1154 16.8583 34.8601 16.8109 34.6142C16.7935 34.525 16.7761 34.4368 16.7577 34.3486L16.75 34.3143V33.3835L16.7568 33.3503C16.7722 33.2766 16.7877 33.203 16.8022 33.1293C16.8583 32.846 16.9172 32.5523 17.0226 32.2628C17.6364 30.5756 19.1771 29.4746 20.8667 29.5233C21.9425 29.5545 22.8762 29.9841 23.6427 30.7997C24.0506 31.2334 24.4566 31.6703 24.8616 32.1061L24.9022 32.1497C24.8828 28.7378 24.8616 25.3259 24.8403 21.914C24.8364 21.2312 24.8306 20.5474 24.8258 19.8646C24.8171 18.6972 24.8094 17.5298 24.8036 16.3624C24.7949 14.1459 26.2766 12.3258 28.3268 12.0353C28.3297 12.0342 28.3374 12.0301 28.3451 12.028C28.3606 12.0218 28.3751 12.0166 28.3896 12.0125L28.4302 12H29.187L29.2276 12.0768C29.2276 12.0768 29.2363 12.0809 29.2402 12.083C29.6964 12.2916 29.9709 12.8042 29.8926 13.3013C29.8047 13.8658 29.4016 14.258 28.8913 14.2767C28.3915 14.2943 27.9914 14.4396 27.6676 14.7187C27.1794 15.14 26.9339 15.6796 26.9368 16.3219C26.9446 18.195 26.9571 20.0981 26.9697 21.94C26.9774 23.0575 26.9852 24.1751 26.9919 25.2927C27.0026 27.091 27.0113 28.8893 27.02 30.6876L27.0354 33.5931C27.0374 34.0051 27.0393 34.416 27.0451 34.828C27.0528 35.3738 26.8237 35.7826 26.3984 35.9767C25.9722 36.1707 25.5391 36.0649 25.1796 35.6789C24.8297 35.3032 24.4798 34.9276 24.1308 34.552C23.4697 33.8411 22.8085 33.1303 22.1455 32.4226C21.6641 31.909 20.9894 31.6963 20.3418 31.855C19.7058 32.0107 19.2148 32.4807 18.9963 33.1449C18.7257 33.9667 18.8852 34.7024 19.469 35.3333C20.6202 36.5775 21.7965 37.8373 22.9332 39.0565C23.4494 39.6107 23.9655 40.1637 24.4817 40.7179C25.5227 41.8355 26.5637 42.9541 27.6047 44.0727C27.9933 44.4909 28.4863 44.7212 28.9937 44.7223H28.9976C29.5031 44.7223 29.9951 44.494 30.3827 44.0779L31.7446 42.6158C34.0161 40.1793 36.2866 37.7418 38.5542 35.3022C39.0114 34.8093 39.2047 34.1369 39.0829 33.4572C38.9621 32.7827 38.5561 32.241 37.9704 31.9702C37.2377 31.633 36.4277 31.8031 35.8545 32.4174C35.3451 32.9622 34.8367 33.508 34.3283 34.0549C33.788 34.635 33.2477 35.215 32.7064 35.7951C32.4473 36.0722 32.1061 36.2039 31.7697 36.1552C31.4479 36.1095 31.1666 35.9009 30.9974 35.5845C30.9056 35.4132 30.8612 35.2233 30.8592 35.0044L30.838 31.3268C30.838 31.2459 30.837 31.166 30.836 31.0861C30.8341 30.8931 30.8322 30.6928 30.8351 30.4946C30.8447 29.8367 31.3087 29.349 31.9099 29.3542C32.4995 29.3625 32.9499 29.8554 32.9567 30.5019C32.9615 30.9346 32.9654 31.3673 32.9693 31.8011C32.9702 31.9588 32.9712 32.1176 32.9731 32.2763C33.0534 32.1892 33.1336 32.103 33.2138 32.0159C33.5889 31.6101 33.9774 31.1899 34.3689 30.7852C35.5075 29.6095 36.8907 29.238 38.3696 29.7101C39.8301 30.1771 40.7967 31.3019 41.1649 32.9633C41.1901 33.0764 41.2075 33.1874 41.2239 33.2943C41.2307 33.341 41.2374 33.3866 41.2452 33.4323L41.25 33.4873Z" fill="#85919E"/>
<path d="M39.4222 23.6604C38.9215 23.125 38.2313 22.7939 37.4716 22.7939H37.4687C36.7331 22.795 36.042 23.1032 35.523 23.6635C35.002 24.2259 34.7159 24.9731 34.7188 25.7679C34.7217 26.5587 35.0107 27.3006 35.5336 27.8568C36.0546 28.4109 36.7438 28.715 37.4774 28.715H37.4929C39.0123 28.7056 40.2438 27.3764 40.238 25.7503C40.2351 24.9347 39.9238 24.1959 39.4222 23.6604ZM38.9795 25.7565C38.9785 26.6448 38.2971 27.3722 37.4677 27.3681C36.649 27.3639 35.9724 26.6323 35.9744 25.7534C35.9744 24.8662 36.6616 24.1346 37.4871 24.1409C38.3077 24.1471 38.9795 24.8745 38.9795 25.7565Z" fill="#85919E"/>
<path d="M31.6406 14.7498H31.6386C30.9011 14.7508 30.2081 15.06 29.6871 15.6224C29.1671 16.1838 28.8829 16.9289 28.8868 17.7196C28.8935 19.3457 30.1308 20.6697 31.6435 20.6697H31.6444C32.3839 20.6697 33.0779 20.3605 33.5989 19.8002C34.1198 19.2398 34.406 18.4968 34.404 17.7061C34.4021 16.0759 33.162 14.7498 31.6406 14.7498ZM33.1475 17.7051C33.1484 18.5944 32.4689 19.3249 31.6415 19.3228C30.8228 19.3218 30.1433 18.5923 30.1404 17.7134C30.1385 16.8303 30.8228 16.0946 31.6493 16.0936C32.4631 16.0915 33.1455 16.8262 33.1475 17.7051Z" fill="#85919E"/>
<path d="M39.6804 17.3928C39.6842 17.7581 39.5673 18.0517 39.313 18.3174C38.477 19.188 37.6418 20.0596 36.8067 20.9313L34.6754 23.1561C33.2265 24.669 31.7766 26.1809 30.3296 27.6959C30.0764 27.9616 29.8106 28.0923 29.5254 28.0923C29.4539 28.0923 29.3814 28.084 29.307 28.0674C28.8971 27.9771 28.6081 27.6918 28.4941 27.2643C28.381 26.8409 28.4834 26.4352 28.7821 26.1218C29.1794 25.7057 29.5766 25.2906 29.9749 24.8755L31.9341 22.8302C33.8895 20.7891 35.8449 18.747 37.7984 16.7048C38.13 16.3582 38.477 16.2378 38.8597 16.3354C39.3333 16.4558 39.6784 16.9009 39.6804 17.3928Z" fill="#85919E"/>
</g>
<defs>
<clipPath id="clip0_665_4920">
<rect width="24.5" height="35" fill="white" transform="translate(16.75 12)"/>
</clipPath>
</defs>
</svg>
