<svg width="160" height="104" viewBox="0 0 160 104" fill="none" xmlns="http://www.w3.org/2000/svg">
<rect width="160" height="104" fill="white"/>
<g clip-path="url(#clip0_320_1337)">
<path fill-rule="evenodd" clip-rule="evenodd" d="M75.1123 71.6633V65.6801H77.0083C77.5065 65.6558 77.9954 65.8213 78.3763 66.1433C78.5461 66.3013 78.6796 66.4943 78.7674 66.7089C78.8553 66.9236 78.8954 67.1548 78.8851 67.3865C78.8901 67.7142 78.7992 68.0362 78.6235 68.3129C78.4497 68.5778 78.1982 68.7823 77.9035 68.8985C77.4845 69.0371 77.0436 69.0981 76.6027 69.0785H75.9619V71.6705L75.1123 71.6633ZM76.8595 66.4385H75.9691V68.3201H76.9099C77.1982 68.341 77.4842 68.2556 77.7139 68.0801C77.8132 67.9898 77.8906 67.8779 77.9401 67.7532C77.9896 67.6284 78.0099 67.4939 77.9995 67.3601C77.9995 66.7481 77.6179 66.4409 76.8595 66.4409V66.4385ZM81.1795 67.7105C81.4558 67.7013 81.731 67.748 81.9888 67.8478C82.2465 67.9476 82.4815 68.0984 82.6795 68.2913C82.8742 68.4806 83.0276 68.7083 83.13 68.9598C83.2325 69.2113 83.2817 69.4814 83.2747 69.7529C83.2821 70.0202 83.2316 70.286 83.1268 70.532C83.0221 70.7781 82.8654 70.9986 82.6675 71.1785C82.2556 71.5603 81.7096 71.7639 81.1483 71.7449C80.8751 71.7522 80.6031 71.7052 80.3481 71.6068C80.0931 71.5083 79.8602 71.3603 79.6627 71.1713C79.2831 70.7911 79.0699 70.2757 79.0699 69.7385C79.0699 69.2012 79.2831 68.6859 79.6627 68.3057C79.8639 68.1121 80.1017 67.9607 80.3621 67.8601C80.6226 67.7596 80.9004 67.712 81.1795 67.7201V67.7105ZM81.1411 68.4305C80.9713 68.423 80.8018 68.4507 80.6432 68.5118C80.4846 68.5729 80.3404 68.6662 80.2195 68.7857C80.1003 68.9108 80.0072 69.0585 79.9458 69.22C79.8844 69.3816 79.8559 69.5538 79.8619 69.7265C79.8536 69.8966 79.8811 70.0665 79.9427 70.2253C80.0043 70.3841 80.0986 70.5281 80.2195 70.6481C80.3452 70.7678 80.4937 70.861 80.6561 70.922C80.8186 70.983 80.9917 71.0107 81.1651 71.0033C81.3379 71.0114 81.5105 70.9841 81.6722 70.923C81.834 70.8619 81.9816 70.7683 82.1059 70.6481C82.2963 70.4664 82.4265 70.2308 82.4787 69.9729C82.531 69.7149 82.503 69.4472 82.3983 69.2057C82.2937 68.9643 82.1175 68.7607 81.8935 68.6225C81.6696 68.4843 81.4086 68.4181 81.1459 68.4329L81.1411 68.4305ZM88.9747 67.7393H89.8195L88.0843 71.7521H87.8275L86.6659 69.0017L85.5115 71.7521H85.2595L83.5147 67.7393H84.3523L85.3819 70.1393L86.3851 67.7393H86.9683L87.9619 70.1393L88.9915 67.7393H88.9747ZM93.5635 69.7601H90.7795C90.7837 70.0997 90.9187 70.4246 91.1563 70.6673C91.2753 70.7847 91.4168 70.8768 91.5723 70.9383C91.7277 70.9997 91.894 71.0292 92.0611 71.0249C92.5758 71.024 93.0763 70.8555 93.4867 70.5449V71.3081C93.2645 71.4554 93.0219 71.5694 92.7667 71.6465C92.4962 71.7203 92.2166 71.755 91.9363 71.7497C91.5611 71.7691 91.1888 71.6745 90.8683 71.4785C90.5978 71.2959 90.3774 71.0483 90.2275 70.7585C90.0586 70.4284 89.9761 70.061 89.9875 69.6905C89.9645 69.1544 90.1474 68.6297 90.4987 68.2241C90.6644 68.0382 90.869 67.8912 91.098 67.7933C91.327 67.6954 91.5747 67.6491 91.8235 67.6577C92.0607 67.6481 92.297 67.6926 92.5145 67.7878C92.7319 67.883 92.9249 68.0265 93.0787 68.2073C93.4068 68.6243 93.5723 69.1462 93.5443 69.6761V69.7721L93.5635 69.7601ZM90.8083 69.2969H92.8123C92.8075 69.0315 92.7089 68.7765 92.5339 68.5769C92.4455 68.4912 92.3405 68.4246 92.2253 68.3813C92.1101 68.3379 91.9872 68.3187 91.8643 68.3249C91.6112 68.315 91.3645 68.4056 91.1779 68.5769C90.9849 68.7722 90.8603 69.0248 90.8227 69.2969H90.8083ZM95.2411 67.7345V68.6273L95.2843 68.5553C95.6619 67.9489 96.0387 67.6457 96.4147 67.6457C96.7675 67.6724 97.0974 67.8309 97.3387 68.0897L96.9283 68.7761C96.7327 68.5574 96.4619 68.4204 96.1699 68.3921C96.0402 68.3943 95.9131 68.4279 95.7993 68.4902C95.6856 68.5525 95.5887 68.6416 95.5171 68.7497C95.3313 68.9951 95.234 69.2963 95.2411 69.6041V71.6801H94.4611V67.7201L95.2411 67.7345ZM98.8219 65.6801H103.826V66.4457H101.736V71.6801H100.876V66.4385H98.8219V65.6801ZM105.096 67.7153C105.372 67.7066 105.647 67.7536 105.904 67.8533C106.162 67.9531 106.397 68.1037 106.596 68.2961C106.79 68.4859 106.944 68.7139 107.046 68.9659C107.149 69.2178 107.198 69.4882 107.191 69.7601C107.198 70.0268 107.148 70.292 107.043 70.5376C106.939 70.7832 106.783 71.0034 106.586 71.1833C106.173 71.565 105.626 71.7685 105.064 71.7497C104.791 71.7567 104.519 71.7096 104.264 71.6112C104.009 71.5127 103.776 71.3649 103.579 71.1761C103.391 70.9882 103.241 70.765 103.139 70.5194C103.038 70.2737 102.985 70.0104 102.985 69.7445C102.985 69.4786 103.038 69.2152 103.139 68.9696C103.241 68.7239 103.391 68.5008 103.579 68.3129C103.78 68.1218 104.018 67.9725 104.277 67.8736C104.537 67.7747 104.813 67.7283 105.091 67.7369L105.096 67.7153ZM105.057 68.4353C104.887 68.4284 104.718 68.4563 104.56 68.5174C104.401 68.5785 104.257 68.6715 104.136 68.7905C104.016 68.9156 103.924 69.0634 103.863 69.2249C103.802 69.3865 103.774 69.5587 103.78 69.7313C103.772 69.9012 103.799 70.0709 103.861 70.2296C103.922 70.3883 104.015 70.5325 104.136 70.6529C104.263 70.7737 104.414 70.8676 104.579 70.929C104.744 70.9904 104.92 71.0181 105.096 71.0105C105.268 71.0173 105.441 70.9892 105.602 70.9277C105.764 70.8663 105.912 70.7728 106.036 70.6529C106.226 70.4711 106.355 70.2356 106.407 69.9781C106.459 69.7207 106.43 69.4535 106.326 69.2126C106.221 68.9717 106.046 68.7685 105.822 68.6304C105.599 68.4923 105.339 68.4259 105.076 68.4401L105.057 68.4353ZM110.616 65.6801H114.016V66.4457H111.477V68.2721H113.928V69.0401H111.477V70.9097H114.096V71.6753H110.616V65.6801ZM118.14 68.8001V71.6489H117.36V69.4481C117.387 69.1327 117.325 68.8159 117.182 68.5337C117.111 68.441 117.018 68.368 116.91 68.3218C116.803 68.2755 116.686 68.2576 116.57 68.2697C116.412 68.2673 116.257 68.308 116.121 68.3873C115.945 68.4942 115.787 68.6297 115.656 68.7881V71.6369H114.876V67.7201H115.656V68.2361C115.799 68.0621 115.977 67.9188 116.177 67.8149C116.378 67.711 116.597 67.6486 116.822 67.6313C117.064 67.6295 117.301 67.6961 117.507 67.8235C117.712 67.9509 117.878 68.1339 117.984 68.3513C118.135 68.1425 118.33 67.9697 118.556 67.8452C118.781 67.7208 119.032 67.6477 119.289 67.6313C119.468 67.6268 119.646 67.6622 119.81 67.7348C119.974 67.8074 120.12 67.9155 120.237 68.0513C120.506 68.4217 120.632 68.8768 120.592 69.3329V71.6633H119.812V69.3161C119.831 69.0486 119.76 68.7825 119.611 68.5601C119.542 68.4732 119.453 68.4042 119.352 68.3587C119.251 68.3131 119.141 68.2925 119.03 68.2985C118.851 68.3083 118.677 68.3585 118.52 68.4454C118.363 68.5323 118.228 68.6535 118.125 68.8001H118.14ZM121.627 73.6817V67.7201H122.992C123.582 67.6847 124.164 67.8704 124.624 68.2409C124.822 68.4277 124.977 68.6556 125.078 68.9084C125.178 69.1613 125.223 69.4331 125.208 69.7049C125.218 69.9719 125.175 70.2384 125.081 70.4886C124.987 70.7387 124.844 70.9676 124.66 71.1617C124.48 71.3494 124.262 71.4972 124.021 71.5956C123.78 71.694 123.521 71.7407 123.261 71.7329C122.974 71.7263 122.691 71.6703 122.424 71.5673V73.6817H121.627ZM122.976 68.4473H122.424V70.8713C122.656 70.9912 122.913 71.0537 123.175 71.0537C123.342 71.0589 123.509 71.0274 123.663 70.9615C123.817 70.8956 123.955 70.7968 124.068 70.6721C124.26 70.4445 124.38 70.1655 124.415 69.8697C124.45 69.574 124.396 69.2746 124.262 69.0089C124.159 68.8236 124.003 68.6739 123.813 68.5793C123.549 68.4765 123.266 68.4299 122.983 68.4425L122.976 68.4473ZM127.96 67.7105C128.236 67.7014 128.51 67.7481 128.767 67.848C129.024 67.9478 129.258 68.0986 129.456 68.2913C129.652 68.4797 129.806 68.7071 129.909 68.9588C130.012 69.2106 130.061 69.481 130.053 69.7529C130.062 70.0201 130.012 70.286 129.907 70.5322C129.803 70.7783 129.646 70.9988 129.448 71.1785C129.036 71.5603 128.49 71.7639 127.929 71.7449C127.656 71.7522 127.384 71.7052 127.129 71.6068C126.874 71.5083 126.641 71.3603 126.444 71.1713C126.255 70.9832 126.106 70.7598 126.004 70.514C125.902 70.2681 125.85 70.0046 125.85 69.7385C125.85 69.4724 125.902 69.2088 126.004 68.963C126.106 68.7172 126.255 68.4938 126.444 68.3057C126.644 68.1139 126.881 67.9639 127.14 67.8646C127.399 67.7653 127.676 67.7186 127.953 67.7273L127.96 67.7105ZM127.922 68.4305C127.752 68.4223 127.582 68.4496 127.424 68.5108C127.265 68.572 127.121 68.6656 127 68.7857C126.88 68.9102 126.787 69.0577 126.725 69.2194C126.664 69.3811 126.636 69.5536 126.643 69.7265C126.635 69.8966 126.662 70.0665 126.724 70.2252C126.785 70.384 126.88 70.528 127 70.6481C127.126 70.7673 127.275 70.8602 127.437 70.9212C127.6 70.9822 127.773 71.0101 127.946 71.0033C128.119 71.0107 128.292 70.9831 128.454 70.9221C128.616 70.861 128.764 70.7678 128.889 70.6481C129.009 70.5256 129.102 70.3801 129.163 70.2204C129.225 70.0607 129.253 69.8902 129.247 69.7193C129.252 69.5456 129.22 69.3729 129.153 69.2124C129.086 69.0519 128.987 68.9073 128.86 68.7881C128.732 68.6677 128.581 68.5743 128.416 68.5133C128.251 68.4522 128.076 68.4249 127.9 68.4329L127.922 68.4305ZM135.756 67.7393H136.591L134.836 71.7401H134.58L133.413 68.9921L132.261 71.7401H132.002L130.257 67.7273H131.1L132.127 70.1273L133.132 67.7273H133.713L134.709 70.1273L135.739 67.7273L135.756 67.7393ZM140.328 69.7601H137.551C137.555 70.1002 137.691 70.4254 137.93 70.6673C138.048 70.7848 138.189 70.8771 138.344 70.9386C138.5 71 138.666 71.0294 138.832 71.0249C139.346 71.024 139.846 70.8555 140.256 70.5449V71.3081C140.034 71.4563 139.791 71.5704 139.536 71.6465C139.266 71.7203 138.987 71.755 138.708 71.7497C138.332 71.7697 137.96 71.6751 137.64 71.4785C137.368 71.2961 137.146 71.0486 136.994 70.7585C136.826 70.4281 136.744 70.0609 136.754 69.6905C136.732 69.155 136.914 68.6312 137.263 68.2241C137.429 68.0381 137.635 67.891 137.865 67.7932C138.094 67.6953 138.343 67.6491 138.592 67.6577C138.829 67.6481 139.065 67.6926 139.282 67.7878C139.499 67.8831 139.692 68.0265 139.845 68.2073C140.174 68.6237 140.34 69.1461 140.311 69.6761V69.7721L140.328 69.7601ZM137.58 69.2945H139.567C139.561 69.0293 139.462 68.7746 139.288 68.5745C139.2 68.4894 139.094 68.4232 138.979 68.3799C138.864 68.3366 138.742 68.317 138.619 68.3225C138.364 68.3134 138.116 68.4038 137.928 68.5745C137.736 68.7711 137.612 69.0231 137.572 69.2945H137.58ZM142.012 67.7321V68.6249L142.058 68.5529C142.437 67.9465 142.815 67.6433 143.191 67.6433C143.542 67.6715 143.871 67.8298 144.112 68.0873L143.7 68.7737C143.506 68.5551 143.237 68.418 142.946 68.3897C142.816 68.3917 142.688 68.4253 142.574 68.4876C142.46 68.5499 142.363 68.639 142.291 68.7473C142.105 68.993 142.007 69.2938 142.012 69.6017V71.6801H141.232V67.7201L142.012 67.7321Z" fill="#4D4E4B"/>
<path fill-rule="evenodd" clip-rule="evenodd" d="M54.4124 69.5654L52.7636 72.4142C49.6988 77.4734 44.6636 83.0174 39.2324 85.5878C38.666 85.8566 38.2508 86.0558 37.6844 86.2838C37.1329 86.4789 36.5921 86.7032 36.0644 86.9558C47.198 84.6806 55.4444 79.7054 62.3276 71.387C68.0252 64.487 73.9124 53.2862 73.0844 40.6166C72.2876 28.499 65.4044 19.3358 55.19 16.7702C44.2604 14.0198 36.0116 18.9302 30.074 26.8118C29.6468 27.3758 28.3268 29.303 28.1396 29.9054C36.1796 25.8806 45.794 24.0974 53.8988 29.9846C60.9524 35.111 63.0788 45.4238 61.2404 54.4214C60.1724 59.6438 58.0796 63.6254 55.4468 67.9838C55.0787 68.4933 54.7366 69.0212 54.422 69.5654H54.4124Z" fill="#E15A11"/>
<path fill-rule="evenodd" clip-rule="evenodd" d="M26.2198 86.4974C25.4662 87.035 22.5334 86.111 21.775 85.979C23.215 87.0134 26.251 87.8414 28.4326 87.9638C31.7662 88.1534 33.2326 87.5726 36.0646 86.9798C36.5949 86.731 37.138 86.5107 37.6918 86.3198C38.2582 86.0918 38.6734 85.8926 39.2398 85.6262C44.6782 83.0486 49.7134 77.5022 52.771 72.4502L54.4198 69.6014C54.6046 69.0326 55.0318 68.255 55.2958 67.643C57.4822 62.603 59.0878 56.8982 58.5958 51.2894C58.3006 47.9294 57.4726 44.9366 56.0182 42.4862C51.2662 34.4462 41.2534 31.4702 32.635 35.2862C27.9286 37.3574 24.955 40.7414 22.495 44.9702C22.1398 45.5366 21.8998 46.2158 21.583 46.7198C21.9598 46.655 23.071 45.959 23.5846 45.7166C25.8147 44.6103 28.1941 43.835 30.6478 43.415C37.3918 42.3086 44.4958 44.483 47.9494 50.291C49.5694 53.0222 50.0302 56.9366 49.6294 60.6638C48.9094 67.3046 45.5878 74.231 42.3334 78.155C41.4089 79.2943 40.4031 80.3651 39.3238 81.359C38.2377 82.3298 37.0729 83.2089 35.8414 83.987C33.5206 85.4126 28.843 87.191 26.2414 86.4806L26.2198 86.4974Z" fill="#069139"/>
<path fill-rule="evenodd" clip-rule="evenodd" d="M21.7673 85.9788C22.5257 86.1108 25.4609 87.0492 26.2121 86.4972C25.6532 86.3547 25.1375 86.078 24.7096 85.6912C24.2818 85.3043 23.9548 84.819 23.7569 84.2772C22.3937 81.102 23.5481 75.294 24.3209 72.1524C24.9401 69.6396 25.6169 67.3044 26.3993 64.8828L28.7753 57.9492L19.4153 57.9708C18.8417 58.8636 17.5889 63.7716 17.2553 65.1852C15.6593 71.6796 13.9625 82.9068 21.7673 85.9788Z" fill="#05559C"/>
<path fill-rule="evenodd" clip-rule="evenodd" d="M19.123 51.772L19.8166 52.528C20.3232 52.0121 20.905 51.5759 21.5422 51.2344C22.494 50.7491 23.563 50.5411 24.6272 50.634C25.6915 50.727 26.7082 51.1171 27.5614 51.76C27.943 52.036 28.063 52.264 28.4302 52.48L29.1502 51.76C28.7926 51.2224 27.871 50.56 27.1222 50.1928C26.1999 49.744 25.1876 49.5107 24.1618 49.5107C23.1361 49.5107 22.1238 49.744 21.2014 50.1928C20.539 50.4952 19.4686 51.2608 19.1518 51.7696L19.123 51.772Z" fill="#05559C"/>
<path fill-rule="evenodd" clip-rule="evenodd" d="M20.3438 53.0845L21.0637 53.8837C21.7837 53.4997 23.2789 51.7717 25.8205 52.9477C26.3122 53.1509 26.7476 53.4695 27.0901 53.8765L27.9134 52.9597C26.9005 52.2397 26.0461 51.3637 24.0925 51.3781C23.3817 51.3791 22.6795 51.5331 22.0334 51.8297C21.3874 52.1262 20.8128 52.5582 20.3486 53.0965L20.3438 53.0845Z" fill="#05559C"/>
<path fill-rule="evenodd" clip-rule="evenodd" d="M21.6879 54.4428L22.4535 55.05C22.5351 54.9948 22.5831 54.9516 22.6503 54.906C23.0619 54.5961 23.5585 54.4194 24.0735 54.3996C25.1415 54.3756 25.3599 54.8364 26.0367 55.1748L26.5527 54.4548C25.4559 53.094 22.7415 52.9764 21.6807 54.4548L21.6879 54.4428Z" fill="#05559C"/>
<path fill-rule="evenodd" clip-rule="evenodd" d="M22.8788 55.6745L24.242 57.0401L25.3676 55.7369C24.4844 54.9041 23.8292 54.9761 22.874 55.6769L22.8788 55.6745Z" fill="#05559C"/>
<path fill-rule="evenodd" clip-rule="evenodd" d="M79.1997 53.4401C84.1317 52.9601 82.5213 58.2977 80.3493 59.4953C79.3389 60.0449 78.2949 59.8889 77.0277 59.8961L79.1997 53.4521V53.4401ZM74.6517 61.4993C76.1973 61.5473 79.5189 61.7105 80.7261 61.1969C84.2445 59.7137 85.2597 54.6161 83.4981 52.7201C82.3437 51.4745 79.5453 51.8153 77.8509 51.7937L74.6445 61.5113L74.6517 61.4993Z" fill="#4D4E4B"/>
<path fill-rule="evenodd" clip-rule="evenodd" d="M88.9317 62.2267C90.1677 61.8523 91.6581 63.1675 89.9253 63.5083C88.3077 63.8251 87.0405 62.8003 88.9317 62.2267ZM90.8973 56.4187C92.3565 55.9387 91.8069 58.2379 91.0173 58.5787C90.2277 58.9195 89.8389 58.5043 89.9949 57.6811C90.1245 57.0067 90.3525 56.5963 90.8973 56.4187ZM89.0134 59.3851C88.3966 59.5459 87.9813 59.7403 87.7701 60.2395C87.6335 60.4975 87.6001 60.7978 87.6768 61.0795C87.7534 61.3612 87.9344 61.6032 88.1829 61.7563C86.5605 62.3659 86.0469 63.4867 86.7885 64.2307C87.9621 65.4163 93.1965 64.8979 92.3085 61.8307C91.8981 60.3907 89.7405 60.9691 89.3661 60.2395C89.7237 59.4139 90.5421 60.4171 92.2653 59.2795C93.0453 58.7659 93.4053 57.8155 93.4053 56.4787H94.3293L94.7229 55.0915C92.5293 54.8107 89.3373 54.7747 88.5501 57.1387C88.4036 57.5603 88.3705 58.0131 88.4541 58.4515C88.4805 58.6253 88.5489 58.7901 88.6534 58.9315L89.0109 59.4115L89.0134 59.3851Z" fill="#4D4E4B"/>
<path fill-rule="evenodd" clip-rule="evenodd" d="M130.413 60.0014C127.752 60.5822 128.227 56.4974 131.56 56.6414C131.404 57.2798 130.701 59.5982 130.413 60.0014ZM132.144 54.9614C129.705 55.1198 127.754 55.4678 127.034 58.3094C126.187 61.6694 129.136 61.871 131.724 61.4294L134.901 51.791H133.188L132.144 54.9662V54.9614Z" fill="#4D4E4B"/>
<path fill-rule="evenodd" clip-rule="evenodd" d="M106.917 56.5604C106.705 57.398 106.374 58.2404 106.108 59.0924C105.909 59.7236 105.889 59.7572 105.342 59.9972C103.362 60.866 103.821 58.598 104.601 57.5852C105.124 56.906 105.642 56.4596 106.917 56.5604ZM105.364 61.022C105.39 61.0741 105.402 61.1319 105.4 61.19C105.4 61.2572 105.378 61.3892 105.373 61.5284H106.986L109.125 55.1396C107.62 54.9188 106.485 54.7844 105.1 55.3148C101.065 56.8484 101.147 63.758 105.352 61.0292L105.364 61.022Z" fill="#4D4E4B"/>
<path fill-rule="evenodd" clip-rule="evenodd" d="M141.875 56.5598C141.705 57.3566 141.321 58.2926 141.071 59.0966C140.687 60.3446 139.391 60.3182 139.106 60.0086C138.523 59.3558 139.245 56.3798 141.875 56.5598ZM140.323 61.0238L140.342 61.5302H141.94L144.076 55.1774C141.266 54.3806 138.782 55.5326 137.779 57.2678C136.353 59.7374 137.282 63.0854 140.313 61.031L140.323 61.0238Z" fill="#4D4E4B"/>
<path fill-rule="evenodd" clip-rule="evenodd" d="M119.294 61.5036H120.988L122.09 58.2396C122.136 58.1004 122.172 57.9852 122.203 57.882C122.364 57.342 122.313 57.318 122.875 56.9076C124.389 55.8108 124.612 56.4876 124.274 57.6276L123.086 61.5444H124.684L126.091 57.4068C126.131 57.2827 126.163 57.156 126.187 57.0276C126.384 56.118 126.288 55.1652 125.412 54.9924C124.411 54.7956 123.6 55.3476 122.952 55.7124L123.117 55.0908L121.437 55.0572L119.301 61.5252L119.294 61.5036Z" fill="#4D4E4B"/>
<path fill-rule="evenodd" clip-rule="evenodd" d="M99.4479 55.0311H98.2815L97.7607 56.4543H98.8935C98.7015 57.4911 95.6031 63.0423 100.799 61.2303L101.118 59.5671C100.801 59.7131 100.468 59.8195 100.125 59.8839C98.9871 59.7879 100.401 57.0999 100.617 56.4831L101.932 56.4567L102.393 55.0335H101.176L101.642 53.6991L99.9111 53.6631L99.4479 55.0191V55.0311Z" fill="#4D4E4B"/>
<path fill-rule="evenodd" clip-rule="evenodd" d="M115.641 61.4851L117.441 61.5187L120.7 51.7939L118.859 51.7891L115.641 61.4851Z" fill="#4D4E4B"/>
<path fill-rule="evenodd" clip-rule="evenodd" d="M108.628 61.4899L110.313 61.5211L113.553 51.7891H111.837L108.628 61.4899Z" fill="#4D4E4B"/>
<path fill-rule="evenodd" clip-rule="evenodd" d="M84.0811 61.5715H85.8019L87.8635 55.0195H86.1427L84.0811 61.5715ZM87.8491 52.3555C88.3291 52.3555 88.6027 52.8043 88.4779 53.3563C88.4282 53.6144 88.2982 53.8503 88.1064 54.0301C87.9145 54.2099 87.6707 54.3243 87.4099 54.3571C86.9299 54.3571 86.6515 53.9083 86.7763 53.3563C86.8276 53.0956 86.9607 52.858 87.1562 52.6781C87.3517 52.4981 87.5994 52.3851 87.8635 52.3555H87.8491Z" fill="#4D4E4B"/>
<path fill-rule="evenodd" clip-rule="evenodd" d="M93.5518 61.5715H95.2726L97.3342 55.0195H95.6158L93.5518 61.5715ZM97.3198 52.3555C97.7998 52.3555 98.0782 52.8043 97.951 53.3563C97.9013 53.6144 97.7713 53.8503 97.5795 54.0301C97.3876 54.2099 97.1438 54.3243 96.883 54.3571C96.403 54.3571 96.1246 53.9083 96.2494 53.3563C96.3 53.0986 96.4304 52.8633 96.622 52.6837C96.8137 52.5041 97.0569 52.3893 97.3174 52.3555H97.3198Z" fill="#4D4E4B"/>
<path fill-rule="evenodd" clip-rule="evenodd" d="M133.171 61.5715H134.889L136.951 55.0195H135.232L133.171 61.5715ZM136.936 52.3555C137.416 52.3555 137.693 52.8043 137.568 53.3563C137.517 53.6171 137.384 53.8549 137.188 54.0349C136.993 54.2149 136.745 54.3278 136.481 54.3571C136.001 54.3571 135.727 53.9083 135.852 53.3563C135.903 53.0959 136.036 52.8587 136.231 52.6787C136.426 52.4988 136.673 52.3856 136.936 52.3555Z" fill="#4D4E4B"/>
<path fill-rule="evenodd" clip-rule="evenodd" d="M143.361 62.5283H93.4912V63.1811H143.361V62.5283Z" fill="#4D4E4B"/>
<path fill-rule="evenodd" clip-rule="evenodd" d="M84.4913 62.5283H74.3105V63.1811H84.4913V62.5283Z" fill="#4D4E4B"/>
</g>
<defs>
<clipPath id="clip0_320_1337">
<rect width="128.201" height="72" fill="white" transform="translate(15.8994 16)"/>
</clipPath>
</defs>
</svg>
