<svg width="24" height="24" viewBox="0 0 24 24" fill="none" xmlns="http://www.w3.org/2000/svg">
<path d="M6.66625 22.7679H17.3334C19.4128 22.7679 20.4474 21.7131 20.4474 19.6239V10.5034C20.4474 9.20742 20.3068 8.64514 19.5032 7.82142L13.9584 2.18657C13.1955 1.40271 12.5724 1.23214 11.4375 1.23214H6.66625C4.5971 1.23214 3.55225 2.29671 3.55225 4.38642V19.6239C3.55225 21.723 4.5971 22.7679 6.66625 22.7679ZM6.74639 21.1509C5.71182 21.1509 5.16925 20.598 5.16925 19.5939V4.41643C5.16925 3.42214 5.71182 2.84914 6.75667 2.84914H11.2164V8.68543C11.2164 9.951 11.8592 10.5737 13.1047 10.5737H18.8304V19.5939C18.8304 20.598 18.2977 21.1509 17.2532 21.1509H6.74639ZM13.2855 9.05657C12.8938 9.05657 12.7327 8.89628 12.7327 8.49428V3.16071L18.5184 9.057L13.2855 9.05657Z" fill="white"/>
</svg>
