<svg width="33" height="32" viewBox="0 0 33 32" fill="none" xmlns="http://www.w3.org/2000/svg">
<path d="M15.5 20H17.5V24H15.5V20ZM20.5 18H22.5V24H20.5V18ZM10.5 14H12.5V24H10.5V14Z" fill="white"/>
<path d="M25.5 5H22.5V4C22.5 3.46957 22.2893 2.96086 21.9142 2.58579C21.5391 2.21071 21.0304 2 20.5 2H12.5C11.9696 2 11.4609 2.21071 11.0858 2.58579C10.7107 2.96086 10.5 3.46957 10.5 4V5H7.5C6.96957 5 6.46086 5.21071 6.08579 5.58579C5.71071 5.96086 5.5 6.46957 5.5 7V28C5.5 28.5304 5.71071 29.0391 6.08579 29.4142C6.46086 29.7893 6.96957 30 7.5 30H25.5C26.0304 30 26.5391 29.7893 26.9142 29.4142C27.2893 29.0391 27.5 28.5304 27.5 28V7C27.5 6.46957 27.2893 5.96086 26.9142 5.58579C26.5391 5.21071 26.0304 5 25.5 5ZM12.5 4H20.5V8H12.5V4ZM25.5 28H7.5V7H10.5V10H22.5V7H25.5V28Z" fill="white"/>
</svg>
