<svg width="24" height="24" viewBox="0 0 24 24" fill="none" xmlns="http://www.w3.org/2000/svg">
<path d="M17.8333 4.63636H12.3933C12.2645 4.6372 12.1371 4.60922 12.0208 4.55455L9.39083 3.25855C9.04366 3.08881 8.66117 3.00032 8.27333 3H6.16667C5.062 3.0013 4.00296 3.43272 3.22185 4.19963C2.44073 4.96655 2.00132 6.00633 2 7.09091L2 16.9091C2.00132 17.9937 2.44073 19.0335 3.22185 19.8004C4.00296 20.5673 5.062 20.9987 6.16667 21H17.8333C18.938 20.9987 19.997 20.5673 20.7782 19.8004C21.5593 19.0335 21.9987 17.9937 22 16.9091V8.72727C21.9987 7.64269 21.5593 6.60291 20.7782 5.836C19.997 5.06909 18.938 4.63766 17.8333 4.63636ZM6.16667 4.63636H8.27333C8.40222 4.63553 8.5296 4.66351 8.64583 4.71818L11.2758 6.01009C11.6227 6.18124 12.0052 6.27114 12.3933 6.27273H17.8333C18.3317 6.27353 18.8184 6.42055 19.2311 6.69492C19.6437 6.96929 19.9634 7.35849 20.1492 7.81255L3.66667 7.90418V7.09091C3.66667 6.43992 3.93006 5.8156 4.3989 5.35528C4.86774 4.89497 5.50363 4.63636 6.16667 4.63636ZM17.8333 19.3636H6.16667C5.50363 19.3636 4.86774 19.105 4.3989 18.6447C3.93006 18.1844 3.66667 17.5601 3.66667 16.9091V9.54055L20.3333 9.44809V16.9091C20.3333 17.5601 20.0699 18.1844 19.6011 18.6447C19.1323 19.105 18.4964 19.3636 17.8333 19.3636Z" fill="#85919E"/>
</svg>
