<svg width="18" height="18" viewBox="0 0 18 18" fill="none" xmlns="http://www.w3.org/2000/svg">
<path d="M16.3892 3.21429H15.4322L15.4296 3.21534L15.4286 3.2179V15.4286C15.4286 15.7696 15.564 16.0966 15.8051 16.3377C16.0463 16.5788 16.3733 16.7143 16.7143 16.7143C17.0553 16.7143 17.3823 16.5788 17.6234 16.3377C17.8645 16.0966 18 15.7696 18 15.4286V4.82504C18 4.39784 17.8303 3.98814 17.5282 3.68607C17.2261 3.38399 16.8164 3.21429 16.3892 3.21429Z" fill="white"/>
<path d="M14.1429 15.4286V1.60714C14.1429 1.39609 14.1013 1.1871 14.0205 0.992116C13.9398 0.797128 13.8214 0.619958 13.6721 0.470721C13.5229 0.321484 13.3457 0.203103 13.1507 0.122336C12.9558 0.04157 12.7468 0 12.5357 0H1.60714C1.1809 0 0.772119 0.169323 0.470721 0.470721C0.169324 0.772119 0 1.1809 0 1.60714V15.75C0 16.3467 0.237053 16.919 0.65901 17.341C1.08097 17.7629 1.65326 18 2.25 18H16.0252C16.0313 18.0001 16.0373 17.9989 16.043 17.9966C16.0486 17.9943 16.0537 17.9909 16.058 17.9866C16.0623 17.9823 16.0657 17.9772 16.068 17.9715C16.0703 17.9659 16.0715 17.9599 16.0714 17.9538C16.0714 17.9437 16.068 17.9339 16.0619 17.9259C16.0557 17.9179 16.047 17.9122 16.0373 17.9096C15.4935 17.7604 15.0136 17.4369 14.6714 16.9887C14.3292 16.5406 14.1435 15.9925 14.1429 15.4286ZM2.57143 3.85714C2.57143 3.68665 2.63916 3.52313 2.75972 3.40257C2.88028 3.28202 3.04379 3.21429 3.21429 3.21429H5.78571C5.95621 3.21429 6.11972 3.28202 6.24028 3.40257C6.36084 3.52313 6.42857 3.68665 6.42857 3.85714V6.42857C6.42857 6.59907 6.36084 6.76258 6.24028 6.88314C6.11972 7.0037 5.95621 7.07143 5.78571 7.07143H3.21429C3.04379 7.07143 2.88028 7.0037 2.75972 6.88314C2.63916 6.76258 2.57143 6.59907 2.57143 6.42857V3.85714ZM10.9286 14.7857H3.23237C2.88643 14.7857 2.58951 14.5197 2.57223 14.1738C2.56804 14.0869 2.58155 14 2.61192 13.9185C2.6423 13.8369 2.68891 13.7624 2.74895 13.6994C2.80898 13.6364 2.88117 13.5862 2.96116 13.552C3.04115 13.5177 3.12726 13.5 3.21429 13.5H10.9105C11.2564 13.5 11.5533 13.766 11.5706 14.1119C11.5748 14.1988 11.5613 14.2857 11.5309 14.3673C11.5006 14.4488 11.4539 14.5233 11.3939 14.5863C11.3339 14.6493 11.2617 14.6995 11.1817 14.7338C11.1017 14.768 11.0156 14.7857 10.9286 14.7857ZM10.9286 12.2143H3.23237C2.88643 12.2143 2.58951 11.9483 2.57223 11.6024C2.56804 11.5154 2.58155 11.4286 2.61192 11.347C2.6423 11.2655 2.68891 11.191 2.74895 11.128C2.80898 11.065 2.88117 11.0148 2.96116 10.9805C3.04115 10.9463 3.12726 10.9286 3.21429 10.9286H10.9105C11.2564 10.9286 11.5533 11.1946 11.5706 11.5405C11.5748 11.6274 11.5613 11.7143 11.5309 11.7958C11.5006 11.8774 11.4539 11.9519 11.3939 12.0149C11.3339 12.0779 11.2617 12.1281 11.1817 12.1623C11.1017 12.1966 11.0156 12.2143 10.9286 12.2143ZM10.9286 9.64286H3.23237C2.88643 9.64286 2.58951 9.37687 2.57223 9.03094C2.56804 8.94402 2.58155 8.85715 2.61192 8.7756C2.6423 8.69406 2.68891 8.61952 2.74895 8.55653C2.80898 8.49353 2.88117 8.44337 2.96116 8.4091C3.04115 8.37483 3.12726 8.35715 3.21429 8.35714H10.9105C11.2564 8.35714 11.5533 8.62312 11.5706 8.96906C11.5748 9.05598 11.5613 9.14285 11.5309 9.2244C11.5006 9.30594 11.4539 9.38048 11.3939 9.44347C11.3339 9.50647 11.2617 9.55663 11.1817 9.5909C11.1017 9.62517 11.0156 9.64285 10.9286 9.64286ZM10.9286 7.07143H8.37522C8.02929 7.07143 7.73237 6.80545 7.71509 6.45951C7.7109 6.37259 7.7244 6.28572 7.75478 6.20417C7.78516 6.12263 7.83177 6.0481 7.8918 5.9851C7.95183 5.9221 8.02403 5.87194 8.10402 5.83767C8.18401 5.8034 8.27012 5.78572 8.35714 5.78571H10.9105C11.2564 5.78571 11.5533 6.0517 11.5706 6.39763C11.5748 6.48455 11.5613 6.57142 11.5309 6.65297C11.5006 6.73452 11.4539 6.80905 11.3939 6.87205C11.3339 6.93504 11.2617 6.9852 11.1817 7.01947C11.1017 7.05374 11.0156 7.07142 10.9286 7.07143ZM10.9286 4.5H8.37522C8.02929 4.5 7.73237 4.23402 7.71509 3.88808C7.7109 3.80116 7.7244 3.71429 7.75478 3.63275C7.78516 3.5512 7.83177 3.47667 7.8918 3.41367C7.95183 3.35067 8.02403 3.30051 8.10402 3.26624C8.18401 3.23197 8.27012 3.21429 8.35714 3.21429H10.9105C11.2564 3.21429 11.5533 3.48027 11.5706 3.82621C11.5748 3.91313 11.5613 3.99999 11.5309 4.08154C11.5006 4.16309 11.4539 4.23762 11.3939 4.30062C11.3339 4.36362 11.2617 4.41377 11.1817 4.44804C11.1017 4.48232 11.0156 4.49999 10.9286 4.5Z" fill="white"/>
</svg>
