<svg width="146" height="104" viewBox="0 0 146 104" fill="none" xmlns="http://www.w3.org/2000/svg">
<rect width="146" height="104" fill="white"/>
<path d="M28.517 16.3056C29.3292 15.8267 30.3156 15.9903 31.1684 16.2561C31.7105 16.8056 32.4657 17.1389 32.868 17.8206C33.3815 18.6118 33.4401 19.6057 33.2869 20.5126C33.0677 21.7227 31.9101 22.4944 30.8111 22.8353C28.9058 23.2662 26.8909 21.7467 26.5862 19.855C26.5261 19.3985 26.5651 18.9376 26.6072 18.4812C26.987 17.5863 27.6747 16.7966 28.517 16.3056Z" fill="#704D93"/>
<path d="M115.678 26.8936C117.547 26.826 119.465 26.9116 121.247 27.5272C121.864 28.0421 122.667 28.2463 123.307 28.7253C124.634 29.6592 125.802 31.0269 126.008 32.689C126.137 33.6679 126.413 34.6288 126.416 35.6228C126.419 38.6256 126.376 41.6284 126.409 44.6312C126.409 45.1522 126.488 45.6672 126.59 46.1762C126.607 46.2647 126.641 46.4434 126.658 46.532C127.796 46.4914 128.934 46.3939 130.075 46.4299C130.195 48.179 130.213 49.9342 130.158 51.6863C127.28 51.7389 124.401 51.7779 121.526 51.895C120.733 51.9731 120.983 50.5798 120.175 50.6744C119.388 50.757 118.541 50.9792 118.067 51.6623C117.291 51.8965 116.468 51.916 115.665 51.9761C114.509 51.9926 113.339 52.0482 112.198 51.8184C110.97 51.6068 109.844 50.9867 108.911 50.1744C108.162 49.5258 107.351 48.8982 106.877 48.0079C106.404 47.1371 106.068 46.1777 105.928 45.1957L105.915 45.0494C105.906 44.8601 105.888 44.7343 105.887 44.5576C105.886 44.3982 105.887 44.5576 105.875 44.1949C105.841 43.7958 106.006 43.334 106.042 42.9812C106.509 40.2981 108.434 37.9349 110.95 36.902C112.199 36.3735 113.564 36.2308 114.9 36.0882C116.861 35.9245 118.792 36.4666 120.75 36.405C120.812 35.39 120.691 34.3766 120.54 33.3736C120.481 33.1004 120.46 32.7656 120.172 32.6305C119.05 31.9713 117.72 31.6936 116.426 31.8137C114.37 31.8903 112.524 32.8383 110.52 33.1776C110.344 32.6536 110.091 32.0706 109.974 31.5301C109.779 30.9417 109.602 30.4302 109.406 29.8641C109.279 29.502 109.077 29.2283 109.033 28.8679C109.869 28.4055 110.818 28.2268 111.71 27.907C113 27.4596 114.292 26.9206 115.678 26.8936ZM114.644 41.22C113.651 41.4647 112.847 42.1794 112.237 42.9722C111.791 43.5532 111.531 44.3865 111.89 45.0741C112.317 45.8849 113.078 46.5275 113.944 46.8248C115.78 47.1791 117.6 46.4644 119.194 45.6116C120.056 45.0846 120.924 44.2168 120.795 43.1178C120.845 42.4752 120.167 42.1959 119.717 41.9107C118.21 40.9768 116.34 41.0053 114.644 41.22Z" fill="#704D93"/>
<path d="M31.1684 16.2561C32.1549 16.6074 33.0392 17.3371 33.4191 18.331C33.8695 19.3745 33.7208 20.6222 33.1293 21.5786C32.2134 22.7827 30.5394 23.4719 29.0635 22.9914C27.2903 22.4164 25.858 20.3309 26.6072 18.4812C26.5651 18.9376 26.5261 19.3985 26.5862 19.855C26.8909 21.7467 28.9058 23.2662 30.8111 22.8353C31.9101 22.4944 33.0677 21.7227 33.2869 20.5126C33.4401 19.6057 33.3815 18.6118 32.868 17.8206C32.4657 17.1389 31.7105 16.8056 31.1684 16.2561Z" fill="#704D93"/>
<path d="M121.247 27.5272C123.035 28.0406 124.606 29.2268 125.601 30.7942C126.427 32.1455 126.476 33.7745 126.538 35.309C126.592 38.9319 126.427 42.5548 126.59 46.1762C126.488 45.6672 126.409 45.1522 126.409 44.6312C126.376 41.6284 126.419 38.6256 126.416 35.6228C126.413 34.6288 126.137 33.6679 126.008 32.689C125.802 31.0269 124.634 29.6592 123.307 28.7253C122.667 28.2463 121.864 28.0421 121.247 27.5272Z" fill="#704D93"/>
<path d="M33.9866 54.3964C35.8739 54.3168 37.8152 54.2823 39.6304 54.8798C40.5327 55.1591 41.2519 55.9413 42.2443 55.9353C43.1512 56.0794 43.1467 54.6336 44.022 54.6576C46.3552 54.4444 48.7034 54.5345 51.0411 54.3814C50.6537 55.1741 49.7454 55.4398 49.1388 56.0224C48.0533 56.9127 47.3026 58.1484 46.8687 59.4726C46.7831 59.7654 46.7501 60.0717 46.7651 60.3765C46.9392 63.2832 46.9062 66.1959 46.9047 69.1072C46.8747 71.7556 46.9467 74.4146 46.639 77.0526C46.4678 79.093 46.2156 81.1665 45.4213 83.0718C44.7877 84.5897 43.4515 85.6692 42.0702 86.4875C39.5133 87.9528 36.3948 88.3327 33.5272 87.7171C31.3246 87.2877 29.1956 86.2097 27.7272 84.4846C27.0726 83.6573 26.4645 82.767 26.1147 81.764C27.9464 82.5387 29.8968 83.0312 31.8786 83.1979C33.5737 83.318 35.2613 82.9907 36.8723 82.4937C38.0539 82.0943 39.24 81.5313 40.0268 80.5284C41.363 78.9594 41.7504 76.8589 41.896 74.8636C41.0012 75.2284 40.1754 75.7464 39.258 76.0572C38.2401 76.437 37.1756 76.7013 36.0886 76.7703C34.6697 76.8694 33.2524 76.5631 31.9131 76.1157C30.6294 75.6623 29.3773 75.0407 28.3743 74.1053C26.5666 72.4012 25.2679 70.0996 24.9962 67.6103C24.9271 66.3506 24.9076 65.0879 24.9902 63.8282C25.3054 60.971 26.7903 58.279 28.9959 56.4458C30.4388 55.3423 32.1459 54.4925 33.9866 54.3964ZM34.5031 58.9757C33.7028 59.1678 32.9386 59.5237 32.3185 60.0717C30.9102 61.2188 30.173 62.9859 29.8457 64.7336C29.6475 65.7245 29.9058 66.7244 30.1835 67.6718C30.5514 68.888 31.2195 70.056 32.2675 70.8083C33.0662 71.3623 33.9491 71.8187 34.9009 72.0349C35.6937 72.2016 36.5195 72.0829 37.2657 71.7827C39.3962 71.0695 41.1213 69.2333 41.7083 67.0667C41.9921 65.5173 41.6738 63.9108 41.0612 62.4769C40.3751 61.0926 39.27 59.848 37.8032 59.2789C36.7747 58.821 35.5961 58.6859 34.5031 58.9757Z" fill="#2D2F37"/>
<path d="M115.842 54.6951C116.442 54.4219 117.109 54.3798 117.753 54.2823C118.746 54.1321 119.755 54.0886 120.754 54.1937C121.822 54.2943 122.95 54.4159 123.849 55.0585C125.248 56.0299 126.407 57.4788 126.741 59.1783C126.886 60.7833 126.807 62.3989 126.786 64.0084C126.771 66.2064 126.718 68.406 126.753 70.6056C126.777 71.2572 126.703 71.9388 126.99 72.5484C127.698 74.248 129.171 75.4416 130.201 76.928C128.356 76.898 126.511 76.916 124.666 76.9085C124.313 76.889 123.895 76.8709 123.655 76.5752C123.22 76.1082 122.892 75.5527 122.459 75.0858C122.17 74.7585 121.822 74.4612 121.672 74.0408C121.463 73.4702 121.526 72.8532 121.516 72.2586C121.519 69.3534 121.522 66.4497 121.52 63.5459C121.519 62.3373 121.541 61.1212 121.349 59.9245C121.293 59.6573 121.206 59.309 120.914 59.2189C119.472 58.9471 117.992 59.288 116.683 59.9035C115.777 60.2984 114.855 60.7323 114.139 61.426C113.812 61.7427 113.86 62.2307 113.827 62.6466C113.768 64.5489 113.798 66.4527 113.801 68.3549C113.834 69.6116 113.752 70.8773 113.929 72.125C114.184 73.6955 115.148 75.0557 116.348 76.0587C116.74 76.374 117.124 76.6998 117.466 77.0676C116.268 77.0871 115.076 76.9355 113.88 76.9235C112.72 76.8935 111.495 77.0061 110.416 76.4986C109.392 75.9371 108.853 74.7539 108.77 73.6264C108.661 69.8639 108.791 66.0998 108.758 62.3358C108.737 61.0176 108.883 59.6438 108.371 58.3916C107.911 57.3767 107.143 56.5103 106.213 55.8978C105.736 55.5419 105.111 55.2597 104.966 54.6216C107.381 54.4804 109.815 54.7042 112.229 54.4504C112.714 54.4189 113.211 54.4354 113.684 54.5585C113.953 54.8243 113.831 55.2462 113.895 55.5855C114.168 55.5885 114.473 55.6921 114.729 55.5524C115.103 55.2717 115.409 54.8948 115.842 54.6951Z" fill="#2D2F37"/>
<path d="M57.4896 54.4894C59.1562 54.2687 60.8483 54.3423 62.5238 54.4084C64.1619 54.503 65.6288 55.3392 66.9125 56.3016C69.3057 58.2219 70.7591 61.1362 71.2095 64.139C71.3792 66.5382 70.9557 69.0186 69.8132 71.1491C68.6736 73.239 66.8764 74.9461 64.7474 76.0061C62.9277 76.985 60.7792 77.1667 58.7553 76.9145C55.7315 76.5436 52.9283 74.7584 51.2933 72.1895C49.9871 70.2002 49.3039 67.852 49.1133 65.4933C49.1208 64.0114 49.5652 62.567 50.0877 61.1917C50.921 58.9967 52.3293 56.9473 54.3517 55.6951C55.3051 55.0915 56.3681 54.6531 57.4896 54.4894ZM59.0871 58.9351C57.2089 59.4276 55.5933 60.8749 54.9087 62.6961C54.1235 64.7936 54.3066 67.1793 55.1895 69.2168C55.8771 70.6131 57.2764 71.5484 58.7343 71.9944C60.3048 72.3892 61.9953 71.9643 63.3481 71.119C64.6709 70.2092 65.7113 68.7783 65.9005 67.1568C66.2233 65.3101 65.9861 63.3523 65.1078 61.6887C64.4441 60.6707 63.4983 59.8059 62.3707 59.3345C61.3257 58.9606 60.1937 58.7459 59.0871 58.9351Z" fill="#2D2F37"/>
<path d="M70.3342 54.5315C73.5232 54.6036 76.7137 54.3513 79.9011 54.4384C79.778 54.7687 79.6174 55.1275 79.2495 55.2447C78.3652 55.572 77.5439 56.0674 76.8863 56.7491C76.7377 56.9262 76.589 57.1469 76.6341 57.3917C76.7452 58.237 77.08 59.0282 77.3578 59.827C78.3907 62.5325 79.2856 65.2996 80.5978 67.8895C81.1083 67.1854 81.2975 66.3235 81.5917 65.5203C82.1563 63.9153 82.7538 62.3238 83.2883 60.7083C83.8859 59.0207 84.3783 57.2686 85.3332 55.7386C85.6515 55.2161 86.1185 54.7087 86.7596 54.6366C88.276 54.4519 89.8074 54.5945 91.3299 54.5465C91.9845 54.5735 92.6841 54.4384 93.3027 54.7132C93.7997 54.6876 94.2891 54.566 94.7891 54.56C97.4706 54.56 100.154 54.53 102.835 54.587C102.952 57.7715 102.868 60.959 102.879 64.1465C102.871 66.3521 102.873 68.5591 102.864 70.7647C102.861 71.9583 102.877 73.1565 103.065 74.3381C103.688 74.8035 104.433 75.0662 105.074 75.5062C105.626 75.8875 106.293 76.2163 106.512 76.907C104.207 76.9145 101.903 76.9175 99.5981 76.886C99.1057 76.8469 98.5366 76.9145 98.1297 76.5797C97.6148 76.0677 97.5862 75.2915 97.5051 74.6143C97.4106 70.0245 97.4661 65.4332 97.4901 60.8419C97.4916 59.5657 97.4406 58.1904 96.7139 57.0914C95.8881 55.9053 94.5879 55.045 93.1556 54.8092C92.6211 54.8768 92.1992 55.2492 91.7953 55.575C91.2653 56.0479 90.7608 56.5524 90.2879 57.0839C88.8015 59.0042 88.2069 61.4004 87.3496 63.6285C86.2611 66.7124 85.09 69.7648 83.997 72.8457C83.5766 74.1279 83.0076 75.353 82.5977 76.6382C81.7854 76.9205 80.9131 76.7178 80.0858 76.6202C79.5618 76.6007 78.9943 76.5106 78.625 76.1007C78.14 75.5392 77.9043 74.8185 77.586 74.1594C76.5695 71.7842 75.6642 69.3639 74.6928 66.9722C73.4 63.7937 72.253 60.5491 70.648 57.5088C70.2381 56.6019 69.6405 55.7822 69.3207 54.8363C69.4228 54.3904 70.0024 54.575 70.3342 54.5315Z" fill="#2D2F37"/>
<path d="M18.5326 69.7227C19.6511 69.6311 20.9694 69.481 21.9138 70.2152C22.5939 70.9899 22.8608 71.9471 23.0568 72.9973C23.0101 73.9362 22.5849 74.6504 22.0684 75.3335C21.7922 75.7299 21.3913 76.0166 20.9454 76.1923C20.3283 76.431 19.6812 76.7508 19.004 76.5842C17.6408 76.1908 16.3435 75.2329 15.8931 73.8426C15.5643 72.718 16.1544 71.586 16.7549 70.6656C17.1618 70.0891 17.863 69.8323 18.5326 69.7227Z" fill="#2D2F37"/>
<path d="M90.0432 70.2227C91.0326 69.99 92.1316 70.3248 92.8283 71.065C93.609 71.8637 94.2156 72.9087 94.2576 74.0483C94.184 75.0107 93.633 75.8845 92.9304 76.5226C92.0866 77.2583 90.8839 77.2373 89.8315 77.2043C88.7655 77.1862 88.0373 76.2704 87.5628 75.4176C87.0689 74.6068 87.0283 73.5964 87.3016 72.703C87.5643 71.3923 88.809 70.52 90.0432 70.2227Z" fill="#2D2F37"/>
<path d="M86.4248 19.2889C87.4923 18.1163 89.0477 17.4812 90.5822 17.2035C92.2998 17.0849 94.0144 17.4632 95.7365 17.3191C95.6389 17.6029 95.4903 17.8776 95.199 17.9992C93.7006 18.786 92.2953 19.7724 91.1467 21.0231C90.5281 21.6672 90.1107 22.4839 89.8915 23.3457C89.2279 25.5213 89.297 27.8184 89.2549 30.0675C89.2279 33.9712 89.342 37.8734 89.3225 41.777C89.342 43.379 89.291 44.9855 89.4006 46.586C90.7548 46.5575 92.0911 46.2812 93.4454 46.2692C93.4078 48.1145 93.561 49.9732 93.2877 51.8049C92.3463 51.9686 91.3884 51.913 90.4395 51.9295C88.5372 51.9476 86.635 51.8605 84.7342 51.9235C84.4504 51.9145 84.1441 51.9566 83.8919 51.8004C83.6952 51.1698 83.7207 50.4927 83.5406 49.8576C82.6397 50.1173 81.9326 50.7509 81.2389 51.35C80.5068 51.8249 79.7939 52.0745 78.9876 52.2487C78.0883 52.4033 77.074 52.5331 76.1566 52.404C75.2318 52.2779 74.3084 52.1292 73.4016 51.9055C71.7935 51.5227 70.3972 50.5903 69.0475 49.6759C67.3989 48.3892 66.0552 46.7001 65.2024 44.7874C64.5312 43.1718 64.267 41.4092 64.3165 39.666C64.2745 37.9409 64.3976 36.1723 65.0552 34.5583C66.0822 32.2161 67.8148 30.1696 70.0354 28.8769C71.759 27.865 73.7334 27.305 75.7152 27.1128C77.5139 27.0602 79.2916 27.4776 80.9897 28.0361C81.9656 28.3574 82.8304 28.9445 83.8183 29.2328C83.8378 28.3094 83.8348 27.3875 83.8318 26.4642C83.7463 23.8562 84.7657 21.2798 86.4248 19.2889ZM75.6071 32.5043C74.4931 32.686 73.3925 33.0689 72.4902 33.7595C71.5248 34.4667 71.0038 35.5897 70.5714 36.6692C69.7892 38.6961 69.9543 40.9873 70.7396 42.9872C71.3521 44.3384 72.4542 45.4285 73.7259 46.1701C74.6537 46.7407 75.7408 47.2031 76.8503 47.08C78.2391 46.7902 79.6504 46.3473 80.76 45.4285C81.9896 44.4255 82.931 43.0667 83.4535 41.5698C83.8889 40.3357 83.7372 39.0024 83.4835 37.7488C83.2238 36.2083 82.1382 34.9561 80.9596 34.0012C79.4823 32.7881 77.4989 32.2326 75.6071 32.5043Z" fill="#2B5B9F"/>
<path d="M51.1252 26.9686C52.8578 26.6804 54.6655 26.7705 56.3396 27.314C58.2614 27.9461 59.7117 29.5841 60.4414 31.4323C60.8693 32.5764 60.8723 33.8181 60.8888 35.0222C60.9188 38.9003 60.8077 42.7815 60.9669 46.6566C61.629 46.6041 62.3001 46.589 62.9397 46.3909C63.3766 46.2542 63.8376 46.2602 64.291 46.2617C64.5688 48.0589 64.2955 49.8786 64.4156 51.6848C61.2792 51.6848 58.1412 51.6758 55.0093 51.856C54.7811 45.99 55.1069 40.115 54.8201 34.252C54.7195 33.6199 54.8276 32.9232 54.5198 32.3437C54.0049 32.156 53.4433 32.2251 52.9088 32.2641C51.5861 32.4067 50.2498 32.6815 49.0667 33.3136C48.3295 33.7565 47.4152 34.0508 46.8867 34.7489C46.4963 36.5581 46.6284 38.4304 46.6029 40.2696C46.6435 42.4091 46.5008 44.5576 46.723 46.6911C47.8866 46.58 48.9947 46.1311 50.1703 46.1221C50.2799 47.9838 50.1207 49.8501 50.1883 51.7148C49.5006 51.832 48.798 51.7899 48.1028 51.8124C45.618 51.8109 43.1302 51.856 40.6468 51.7659C40.6168 47.8848 40.6664 44.0021 40.7084 40.1195C40.7354 37.6256 40.6348 35.1303 40.7069 32.638C39.4727 32.665 38.2416 32.7491 37.0074 32.7746C36.8933 31.0705 36.8242 29.3649 36.7567 27.6593C39.788 27.6323 42.8224 27.7223 45.8522 27.6082C46.4918 27.4671 46.6495 28.2538 47.0113 28.6172C48.3355 27.9671 49.6132 27.0827 51.1252 26.9686Z" fill="#24A039"/>
<path d="M24.4842 27.6608C27.7452 27.6758 31.0715 27.5945 34.331 27.6785C34.4012 28.2878 34.3472 28.8963 34.3651 29.5211C34.3733 29.8063 34.3415 30.0892 34.3664 30.3663C34.5031 34.5673 34.3694 38.7712 34.5091 42.9706C34.5436 44.1898 34.5226 45.4089 34.5766 46.6281C35.6772 46.4944 36.7597 46.1777 37.8797 46.2512C38.2085 48.0664 38.0104 49.9192 37.8827 51.7434C34.7853 51.7329 31.6849 51.8665 28.5875 51.7914C28.5425 45.436 28.55 39.079 28.4584 32.725C27.2002 32.716 25.8208 32.7431 24.5549 32.6568C24.4396 31.8462 24.6043 30.9038 24.5472 30.0691C24.5217 29.2658 24.4466 28.464 24.4842 27.6608Z" fill="#CD328A"/>
<path d="M92.9709 27.5812C96.1449 27.5962 99.3174 27.6923 102.491 27.6578C102.569 31.114 102.512 34.5718 102.554 38.028C102.551 40.8987 102.605 43.7709 102.554 46.6431C103.371 46.502 104.171 46.1852 105.015 46.2617C105.24 46.2242 105.303 46.4915 105.362 46.6506C105.784 48.2721 105.83 49.9672 105.697 51.6293C102.801 51.7689 99.8954 51.6623 96.9962 51.6908C96.8716 45.3399 97.0532 38.9844 96.9436 32.6335C95.6479 32.698 94.3537 32.7956 93.0625 32.9157C93.1015 31.1381 93.094 29.3559 92.9709 27.5812Z" fill="#0A957A"/>
<path d="M75.8053 36.3224C76.9629 36.0266 78.1565 36.5146 79.0423 37.2488C79.5738 37.7007 79.9162 38.3628 79.9642 39.061C80.2029 40.5699 79.2525 42.1028 77.9283 42.783C76.035 43.5802 73.5487 42.0473 73.4646 39.9708C73.4616 39.0805 73.861 38.2592 74.3084 37.513C74.6447 36.959 75.1672 36.4891 75.8053 36.3224Z" fill="#FCB408"/>
</svg>
