<svg width="128" height="104" viewBox="0 0 128 104" fill="none" xmlns="http://www.w3.org/2000/svg">
<rect width="128" height="104" fill="white"/>
<path d="M67.6612 61.9164C67.6907 61.9375 67.7203 61.9586 67.7498 61.9797L67.7604 61.9248C67.7287 61.9227 67.6949 61.9206 67.6612 61.9164ZM67.6612 61.9164C67.6907 61.9375 67.7203 61.9586 67.7498 61.9797L67.7604 61.9248C67.7287 61.9227 67.6949 61.9206 67.6612 61.9164ZM67.6612 61.9164C67.6907 61.9375 67.7203 61.9586 67.7498 61.9797L67.7604 61.9248C67.7287 61.9227 67.6949 61.9206 67.6612 61.9164ZM67.6612 61.9164C67.6907 61.9375 67.7203 61.9586 67.7498 61.9797L67.7604 61.9248C67.7287 61.9227 67.6949 61.9206 67.6612 61.9164ZM67.6612 61.9164C67.6907 61.9375 67.7203 61.9586 67.7498 61.9797L67.7604 61.9248C67.7287 61.9227 67.6949 61.9206 67.6612 61.9164ZM67.6612 61.9164C67.6907 61.9375 67.7203 61.9586 67.7498 61.9797L67.7604 61.9248C67.7287 61.9227 67.6949 61.9206 67.6612 61.9164ZM67.6612 61.9164C67.6907 61.9375 67.7203 61.9586 67.7498 61.9797L67.7604 61.9248C67.7287 61.9227 67.6949 61.9206 67.6612 61.9164ZM67.6612 61.9164C67.6907 61.9375 67.7203 61.9586 67.7498 61.9797L67.7604 61.9248C67.7287 61.9227 67.6949 61.9206 67.6612 61.9164ZM67.6612 61.9164C67.6907 61.9375 67.7203 61.9586 67.7498 61.9797L67.7604 61.9248C67.7287 61.9227 67.6949 61.9206 67.6612 61.9164ZM67.6612 61.9164C67.6907 61.9375 67.7203 61.9586 67.7498 61.9797L67.7604 61.9248C67.7287 61.9227 67.6949 61.9206 67.6612 61.9164ZM67.6612 61.9164C67.6907 61.9375 67.7203 61.9586 67.7498 61.9797L67.7604 61.9248C67.7287 61.9227 67.6949 61.9206 67.6612 61.9164Z" fill="#0044AA"/>
<path d="M66.6689 35.8623C57.8843 35.8623 50.7401 43.0445 50.7401 51.8735C50.7401 60.7024 57.8864 67.8826 66.671 67.8826C75.4556 67.8826 82.5999 60.7003 82.5999 51.8735C82.5999 43.0445 75.4535 35.8623 66.6689 35.8623ZM81.3332 51.8735C81.3332 60.0015 74.7547 66.6159 66.671 66.6159C58.5873 66.6159 52.0068 60.0015 52.0068 51.8735C52.0068 43.7455 58.5831 37.129 66.671 37.129C74.7589 37.129 81.3332 43.7433 81.3332 51.8714V51.8735Z" fill="#0044AA"/>
<path d="M55.2685 21.2973L54.3861 20.0622C47.5648 20.1446 41.3854 21.5443 33.7767 23.4866C27.6627 25.0489 22.0597 27.1727 15.6987 29.7652C15.515 29.8412 15.5952 29.951 15.7093 30.0355L16.7838 30.8314C16.8894 30.9095 17.0161 30.8842 17.1512 30.8314L18.3757 30.3458C18.3757 30.3458 19.0977 31.9461 19.4735 32.7969C19.5242 32.9088 19.5495 33.1009 19.4735 33.1684L18.8317 33.7216C18.5847 33.9369 18.8781 34.1417 19.1125 34.2494L21.4791 35.3493H21.4812C21.5234 35.3704 21.5741 35.3725 21.6184 35.3556C22.0217 35.2163 22.104 35.096 22.0808 35.0178C21.9942 34.7307 21.8486 34.4563 21.819 34.1586C21.8106 34.0678 21.8908 33.9728 21.9689 33.9327C22.617 33.6118 23.2884 33.3437 23.9766 33.1283C24.0843 33.0967 24.2511 33.1431 24.2891 33.2487L24.8591 34.8701L26.6747 35.3303C26.9006 35.3894 26.8521 35.1762 26.7908 35.0242L24.0864 28.222C24.0421 28.1101 24.1329 28.0003 24.4052 27.9137C25.75 27.4915 27.1012 27.0777 28.4502 26.6702C28.6381 26.6132 28.902 26.5182 28.94 26.6702L29.0836 27.2191C29.1216 27.369 29.0245 27.4113 28.788 27.4788C26.5839 28.1185 25.332 29.4084 27.7915 31.1523C27.5276 31.9123 27.3355 32.7314 27.8591 33.4788C29.1026 35.2585 31.0343 35.0643 33.0019 34.9883L33.4727 34.7371V34.167C32.0413 34.0995 30.0146 34.4689 29.3348 32.9953C28.9421 32.1445 29.2651 31.4816 30.042 30.863C30.515 30.4873 31.5537 30.3521 31.6191 30.9496C31.6634 31.3782 31.4692 31.7033 31.0385 31.9609V32.2818L32.1427 33.1896C33.2363 32.685 33.3967 31.4246 32.6684 30.2804C32.4361 29.913 32.0582 29.533 31.3615 29.362C30.4432 29.134 29.3306 29.6111 28.351 30.3648C27.8929 30.0017 27.6923 29.3535 28.4207 29.1277L30.8929 28.3697C31.0047 28.336 31.0639 28.1755 31.0216 28.0425L30.4474 26.2417C30.4073 26.1171 30.4917 26.0327 30.7345 25.9672L33.4833 25.1966C33.6353 25.1523 33.6691 25.2199 33.6902 25.3233C34.1166 27.2128 34.6149 29.5013 35.1891 31.678L36.8759 32.2205L37.0575 32.0369L35.2799 24.8293L38.8309 23.9384C38.8942 23.9215 38.9196 23.9616 38.9386 24.0482L39.422 26.229C39.4579 26.3937 39.4347 26.4486 39.2975 26.4317L38.1004 26.2733C37.8302 26.2353 37.7331 26.3662 37.7331 26.5773V27.1051C37.7331 27.274 37.8344 27.4134 38.1046 27.6393L42.4663 31.1248L42.9688 30.6688C43.0722 30.5738 43.144 30.4936 42.9688 30.3711L40.391 28.4436L41.016 27.3416C41.1342 27.1368 41.1384 26.7336 41.0202 26.1762L40.5135 23.8349C40.4797 23.6745 40.4797 23.5753 40.6233 23.5478L43.5726 22.9799C43.7288 22.9482 43.7605 23.2121 43.809 23.5478L44.6535 29.5161C44.6662 29.6048 44.7717 29.6618 44.8541 29.6977L46.3805 30.3754C46.4459 30.4049 46.543 30.2951 46.5325 30.2255L45.3734 22.7793L47.4023 22.393C47.4846 22.3761 47.5691 22.488 47.5775 22.5703L47.852 25.2642C47.8878 25.6125 47.9512 26.0116 48.2045 26.2586L49.0469 27.0777L48.08 28.1333C47.776 28.4647 47.5669 29.4253 48.2256 30.16C49.0807 31.1122 50.531 31.3782 51.9751 31.0467V31.2958L50.1489 32.9383C50.0835 32.9974 50.0877 33.141 50.1489 33.2043L50.9258 34.0129C51.0061 34.0931 51.1834 34.0868 51.2657 34.0129L52.7478 32.6639H53.0497L54.2256 34.1206C54.6584 34.1354 54.9434 33.9813 54.8948 33.4999L52.9483 31.1459V30.8525C53.6408 30.4535 54.3502 30.0861 54.9329 29.5267C54.7893 28.9925 54.5782 28.5935 54.1686 28.1987C52.79 29.0685 51.2784 30.5274 49.5388 29.6196C49.3678 29.4612 49.4079 29.1087 49.5388 28.9144C50.4508 27.5759 52.0363 27.0925 53.8942 26.4338C53.9997 26.3979 54.1074 26.3177 54.0483 25.8194L53.5669 21.861C53.5543 21.7702 53.5711 21.69 53.6767 21.6773L55.1419 21.5063C55.22 21.4978 55.3171 21.3627 55.2685 21.2973ZM23.4889 31.6695L21.325 32.5393C21.1835 32.5984 21.1033 32.3366 21.0526 32.2058L20.0794 29.8053C20.0541 29.7483 20.0667 29.6934 20.2736 29.6069L22.332 28.7666C22.4334 28.7265 22.5305 28.811 22.6234 29.0559L23.4889 31.3402C23.5312 31.45 23.5945 31.6252 23.4889 31.6695ZM51.7302 25.9229L49.942 26.6449C49.7351 26.7294 49.7098 26.3367 49.6866 26.1192L49.4185 23.7336C49.4079 23.6576 49.5916 23.6808 49.6443 23.7336L51.7302 25.716C51.7809 25.7645 51.7956 25.8975 51.7302 25.9229ZM51.9075 24.7111L49.4016 22.3529C49.3361 22.2895 49.5092 22.1692 49.6 22.1565L51.6479 21.899C51.7745 21.8842 51.9286 22.0172 51.9413 22.1439L52.2474 24.7111C52.2622 24.8251 51.9899 24.7913 51.9075 24.7111ZM112.382 30.198C112.239 29.4253 103.642 26.5372 101.638 25.8047C101.738 24.9433 101.881 24.0376 101.638 23.1678C101.349 22.1439 100.619 21.1305 99.1177 21.0819C98.2458 21.0566 97.4457 21.3522 97.0108 22.1798C96.787 22.6062 96.8355 23.4929 97.1628 23.5985L98.0305 23.8877C98.3049 23.9806 98.3556 23.6766 98.3535 23.4401C98.3493 22.6421 98.953 22.3107 99.7827 22.583C100.596 22.8469 100.764 23.3029 100.906 24.0397C100.995 24.5084 100.923 25.1227 100.764 25.4458C96.3373 24.0672 92.3408 23.1657 88.4225 22.1418C87.825 21.9876 87.6582 21.8821 87.2466 21.3606C86.5879 20.5309 86.0263 19.3339 85.849 19.0235C85.5597 18.5169 85.3465 17.9574 84.9665 17.5162C84.5316 17.0095 83.9763 16.7456 83.2417 16.621C82.9292 16.5682 82.4669 16.7498 82.5956 17.1193L83.0791 18.5316C83.7314 18.5464 84.5717 18.6266 84.977 19.3719L86.0601 21.3712C86.191 21.6119 86.1319 21.8293 85.8574 21.7723C82.5049 21.0946 79.1101 20.7104 75.7237 20.2565C75.5274 20.2164 75.5274 20.3494 75.557 20.4211L76.1629 21.8314L77.2353 22.0932C77.3768 22.127 77.3388 22.3803 77.3156 22.5239L76.9166 25.3064C76.8258 25.9377 77.1298 26.3683 77.9004 27.1664C78.6731 27.9665 79.4584 28.0341 80.2797 27.7871C80.4676 27.7279 80.8645 27.4176 80.8434 27.616L80.6787 29.3155L81.9243 30.3648C82.0129 30.4408 82.2304 30.3564 82.2473 30.2424C82.3338 29.5604 82.4162 28.8785 82.5049 28.1987C82.7223 26.5267 82.944 24.8546 83.1635 23.1826C83.1825 23.0327 83.3282 22.8216 83.476 22.8532L85.3317 23.267C85.4119 23.286 85.4774 23.4 85.4626 23.4802L84.2339 29.3979C84.2022 29.5626 84.1178 29.7821 84.2339 29.9025L85.3824 31.072C85.4542 31.1481 85.6674 31.1734 85.6906 31.072L87.0481 23.9152C87.0734 23.7821 87.2043 23.6048 87.3394 23.6301C90.4302 24.2255 92.8327 24.8673 95.9805 25.7181C96.2634 25.792 96.255 25.9292 96.1747 26.2417L95.9108 27.2804C95.8897 27.3606 95.7272 27.3331 95.6596 27.2804L95.2268 26.9468C94.6547 26.5225 93.5125 26.4718 92.8391 27.0904C92.6512 26.7758 92.4633 26.4612 92.2395 26.1699C91.8574 25.6738 90.7532 25.1966 89.7188 25.5935C89.0981 25.83 88.3549 26.4802 88.3486 27.2213C88.3423 27.8736 88.3423 28.4837 88.5513 29.1234C88.8701 30.1178 89.3493 31.0362 89.875 31.9334C89.9763 32.1044 90.1874 32.3958 90.3183 32.3366L90.9327 32.0559C91.0382 32.0073 91.1206 31.8279 91.0572 31.7307C90.6941 31.1839 90.3521 30.6794 90.0586 30.0925C89.0854 28.1586 89.6005 27.1537 90.5379 26.9806C91.2768 26.8412 91.6948 26.9721 92.1783 27.6266L91.6378 28.5027L92.571 29.5984C92.6301 29.6681 92.7947 29.6829 92.8454 29.6048L93.255 28.9778C93.4999 28.6041 93.9369 28.26 94.3823 28.26H95.4379C95.5773 28.26 95.6237 28.5133 95.5857 28.6484L94.6104 32.1129C94.5723 32.2459 94.7075 32.3789 94.7982 32.4823L95.8158 33.6456C95.8707 33.7068 95.9678 33.7321 96.0227 33.5168L97.7497 26.8539C97.8341 26.5182 97.9249 26.1509 98.2923 26.3029L99.7511 26.9046C99.9601 26.989 99.8039 27.3733 99.73 27.5886L97.756 33.2613L98.7715 34.5597C98.9488 34.7898 99.0903 34.8088 99.1726 34.5597L101.423 27.7089C101.455 27.616 101.529 27.4619 101.622 27.4936L104.687 28.5429C104.835 28.5935 105.122 28.6759 105.065 28.8215L104.294 30.768C104.244 30.8968 104.104 31.1797 104.03 31.0889C103.83 30.8462 103.646 30.4514 103.446 30.3395C103.228 30.2191 102.774 30.3922 102.43 30.6878C102.122 30.9538 102.339 31.7392 102.479 32.2353L103.8 36.9601C103.815 37.015 103.868 37.0974 103.923 37.0805L104.581 36.9158C104.698 36.8883 104.75 36.6899 104.71 36.5738L103.686 33.5337L104.622 33.1389C105.08 32.9447 105.162 32.9468 105.23 33.027L105.909 34.0277C106.118 34.338 106.558 34.4922 106.933 34.4943L107.562 34.5006C107.634 34.5006 107.742 34.5872 107.714 34.6526L106.891 36.6646L107.883 38.1804C107.934 38.2564 108.101 38.1804 108.135 38.0938L110.883 31.2832C110.934 31.1544 110.98 31.1375 111.018 31.1481C111.477 31.3191 111.941 31.4795 112.41 31.6252L112.382 30.198ZM81.1769 25.3845H81.1748C80.4443 26.001 79.6991 26.4823 78.6477 26.4253C78.4767 26.4148 78.3838 26.3557 78.4936 25.9334C78.5992 25.5112 78.6815 25.0826 78.7406 24.6498C78.8483 23.9215 78.9222 23.1868 79.013 22.4521C79.0256 22.3634 79.1523 22.3001 79.241 22.3107L81.3205 22.5936C81.4239 22.6062 81.559 22.7139 81.5422 22.8173L81.1769 25.3845ZM109.321 30.6794L108.534 32.6048C108.422 32.8771 108.278 32.9088 107.923 32.8961C107.144 32.8666 106.437 32.6428 105.755 32.2606C105.654 32.2036 105.588 32.0432 105.631 31.9355L106.56 29.5794C106.6 29.476 106.767 29.419 106.868 29.4591L109.213 30.3922C109.308 30.4302 109.361 30.5823 109.321 30.6794Z" fill="#0044AA"/>
<path d="M96.2993 75.7256C96.3035 75.7066 96.3099 75.6876 96.3141 75.6686C96.3373 75.582 96.3542 75.4955 96.3626 75.4089C96.3436 75.5166 96.3225 75.6222 96.2993 75.7256Z" fill="#0044AA"/>
<path d="M88.8109 73.4899C88.7772 73.5152 88.7455 73.5426 88.7138 73.5701C88.7455 73.5426 88.7793 73.5173 88.8131 73.4941V73.4899H88.8109ZM88.7983 80.1485C89.0073 80.1675 89.2269 80.1781 89.4549 80.1781C89.6829 80.1781 89.9172 80.1696 90.1558 80.1485H88.7983ZM95.0748 75.3963C95.079 75.3773 95.0854 75.3604 95.0896 75.3414C95.0959 75.316 95.1002 75.2907 95.1023 75.2654C95.0938 75.3097 95.0854 75.354 95.0748 75.3963ZM96.3626 75.3984C96.3626 75.3984 96.3626 75.4005 96.3647 75.4026V75.3984H96.3626ZM44.8984 73.492C44.9259 73.5131 44.9512 73.5321 44.9765 73.5532C44.9512 73.5321 44.9259 73.511 44.9005 73.492H44.8984ZM43.5494 80.1485C43.79 80.1696 44.0244 80.1781 44.2524 80.1781C44.4804 80.1781 44.6979 80.1675 44.9069 80.1485H43.5494ZM38.6029 75.2485C38.6029 75.2801 38.6092 75.3118 38.6177 75.3414C38.6219 75.3561 38.6261 75.373 38.6303 75.3878C38.6198 75.3414 38.6113 75.2949 38.6029 75.2485ZM37.3425 75.3984H37.3404L37.3467 75.43C37.3467 75.43 37.3425 75.4089 37.3425 75.3984Z" fill="#0044AA"/>
<path d="M100.513 40.5618C100.205 39.6624 99.6181 39.5421 98.0516 39.217C97.2937 39.0608 96.2233 38.8496 94.7814 38.5752C92.1382 38.0685 88.6822 37.4246 85.6336 36.8588C82.6146 36.2972 79.5091 35.7188 78.2128 35.4633C77.6048 34.319 76.203 31.6041 74.8371 28.963C73.4395 26.2564 71.854 23.191 70.6252 20.8455C69.956 19.564 69.4535 18.6161 69.0904 17.9468C68.3557 16.5957 68.0243 15.9835 67.0172 16.0003C66.0883 16.0172 65.8012 16.4965 64.9525 17.9236C64.545 18.6076 63.9793 19.5767 63.2256 20.8856C61.8448 23.2797 60.0757 26.3852 58.5155 29.1255C57.044 31.7096 55.5303 34.3655 54.8927 35.457C53.6598 35.7103 50.6852 36.2803 47.7886 36.8356C44.8076 37.4056 41.4276 38.0537 38.8309 38.5667C37.4143 38.8454 36.3629 39.0586 35.6177 39.217C34.0892 39.54 33.4579 39.6751 33.1708 40.6146C32.8964 41.5182 33.2954 41.9573 34.3615 43.1311C34.8745 43.699 35.6071 44.4886 36.5994 45.5505C38.4171 47.4949 40.8048 50.022 42.9118 52.2514C45.0166 54.4808 47.1806 56.7693 48.0673 57.7299C47.9068 59.0114 47.4888 62.0663 47.0814 65.0388C46.7351 67.5722 46.3509 70.3843 46.03 72.7932C44.6324 71.3977 42.4494 71.4082 40.7331 71.9656C38.8647 72.5736 37.1736 73.9227 37.3425 75.3984C37.3425 75.4089 37.3446 75.4195 37.3467 75.43C37.3467 75.4343 37.3467 75.4364 37.3488 75.4385C37.3615 75.5166 37.3763 75.5926 37.3932 75.6665C37.3932 75.6665 37.3953 75.6728 37.3953 75.6749C37.4206 75.7657 37.4417 75.8586 37.4628 75.9494C37.7563 77.1971 37.826 78.5229 37.8935 79.8086C38.0603 82.9881 38.2334 86.2709 42.0145 87.5334V87.5503L42.4832 87.677C43.3235 87.9029 44.2397 88 45.2193 88C48.1327 88 51.6014 87.1386 55.2221 86.2414C59.1447 85.2681 63.2002 84.2632 66.8526 84.2632C70.5049 84.2632 74.5605 85.2681 78.4831 86.2414C83.3219 87.4405 87.8905 88.5742 91.224 87.677C95.4612 86.5348 95.6385 83.1168 95.8116 79.8107C95.8813 78.5018 95.951 77.1506 96.2592 75.8839C96.2719 75.8333 96.2866 75.7805 96.2993 75.7256C96.3225 75.6222 96.3436 75.5166 96.3626 75.4089C96.3626 75.4068 96.3626 75.4047 96.3647 75.4026C96.3647 75.4026 96.364 75.4012 96.3626 75.3984H96.3647C96.5294 73.9205 94.8384 72.5736 92.9742 71.9677C91.2219 71.3956 88.9819 71.3998 87.5886 72.884C87.3057 70.4793 86.9679 67.6651 86.6618 65.1296C86.3008 62.1148 85.9271 59.0177 85.7898 57.7405C86.6428 56.8052 88.7202 54.5821 90.7406 52.4203C92.8517 50.1613 95.2437 47.6005 97.0762 45.616C98.079 44.5329 98.8179 43.7265 99.3373 43.1459C100.395 41.97 100.834 41.4823 100.513 40.5618ZM61.2685 30.692C63.063 27.54 65.4951 23.2712 66.9813 20.7188C68.3114 23.2332 70.4437 27.3585 72.0228 30.4155C73.2811 32.8497 74.1277 34.4858 74.7104 35.5984C72.2867 34.3845 69.5549 33.7005 66.6689 33.7005C63.747 33.7026 60.9328 34.3929 58.41 35.6998C59.0264 34.6273 59.9279 33.046 61.2685 30.692ZM66.671 34.9672C70.0721 34.9672 73.2368 35.9869 75.8842 37.7392C76.1861 37.9376 76.4817 38.1466 76.7709 38.3683C80.8455 41.4527 83.4823 46.3591 83.4823 51.8714C83.4823 53.3872 83.2839 54.8545 82.9102 56.2521C82.8152 56.6089 82.7075 56.9635 82.5893 57.3098C80.5182 63.4301 75.0461 67.9818 68.4465 68.6827C67.8638 68.7439 67.2706 68.7756 66.671 68.7756C66.2783 68.7756 65.8878 68.7629 65.5014 68.7355C59.0391 68.2858 53.569 64.15 51.1665 58.4097C50.7654 57.4533 50.4487 56.4526 50.2291 55.4161C49.9864 54.2739 49.8576 53.0874 49.8576 51.8735C49.8576 47.3577 51.6056 43.1121 54.783 39.9179C57.9582 36.7258 62.1784 34.9693 66.671 34.9672ZM60.2404 74.6827C63.0081 73.3822 65.8498 72.0479 67.0362 71.5075C68.1953 72.0522 70.9419 73.3801 73.6147 74.6742C75.0397 75.3625 76.564 76.0993 78.0334 76.8086C74.4401 75.8417 70.7308 74.9191 66.8547 74.9191C62.9786 74.9191 59.322 75.829 55.7541 76.7875C57.2467 76.0866 58.7942 75.3625 60.2404 74.6827ZM48.7302 76.5595C49.0933 73.6862 49.7415 68.9635 50.2186 65.4674C50.4994 63.4111 50.7126 61.8636 50.8688 60.6919C53.4403 65.3302 57.9772 68.7249 63.3396 69.732C62.2523 70.2386 60.8125 70.9163 58.8955 71.8157C55.6929 73.3189 51.3671 75.3519 48.7302 76.5595ZM74.9954 71.822C73.0088 70.8614 71.5499 70.1542 70.469 69.637C75.9032 68.4653 80.438 64.8319 82.8553 59.9572C83.001 61.2007 83.2142 62.9699 83.5182 65.5096C83.9362 68.9867 84.502 73.6862 84.8187 76.5447C82.2536 75.335 78.084 73.3167 74.9954 71.822ZM45.213 50.0769C42.8231 47.5477 39.5909 44.1276 37.6486 42.0312C40.4312 41.4696 45.0019 40.5935 48.384 39.9453C51.0631 39.4323 52.8533 39.0882 54.063 38.8496C54.0018 38.9066 53.9427 38.9657 53.8836 39.0249C50.4698 42.4576 48.5909 47.0199 48.5909 51.8735C48.5909 52.509 48.6225 53.1381 48.688 53.7567C47.8498 52.8657 46.7267 51.6772 45.213 50.0769ZM41.5058 75.658C41.5058 75.6454 41.5058 75.6348 41.51 75.6222C41.5543 75.2928 41.8203 74.9592 42.3186 74.9592C42.7535 74.9592 43.0554 75.126 43.2137 75.4554C43.2728 75.5799 43.3066 75.7193 43.315 75.8607V76.0022C43.3024 76.2112 43.2348 76.4138 43.1166 76.5637C42.9456 76.7749 42.688 76.8466 42.3481 76.7749C41.7823 76.4983 41.5459 76.1246 41.51 75.8037V75.658H41.5058ZM41.51 77.7608C41.8098 77.9402 42.1708 78.0943 42.6015 78.2105C43.8238 78.5398 44.7084 78.4511 45.3439 78.1894C45.5128 78.1197 45.6648 78.0395 45.7999 77.9508C45.6732 78.2147 45.5107 78.4258 45.3101 78.5884C45.1539 78.7193 44.9744 78.8185 44.7717 78.8903C44.0539 78.9452 42.745 78.8713 41.51 78.4152V77.7608ZM38.6324 75.4026C38.6324 75.4026 38.6324 75.392 38.6324 75.3878C38.6282 75.373 38.624 75.3561 38.6198 75.3414C38.6113 75.3118 38.6071 75.2801 38.605 75.2485C38.567 74.6468 39.5825 73.6714 41.1257 73.1711C41.5986 73.017 43.5747 72.4659 44.9005 73.492C44.9259 73.511 44.9512 73.5321 44.9765 73.5532C45.0504 73.6102 45.118 73.6756 45.1834 73.7474C45.4663 74.0683 45.6627 74.5159 45.7408 74.9804C45.8189 75.4406 45.783 75.9177 45.6057 76.302C45.5909 76.3336 45.5761 76.3632 45.5613 76.3906C45.3397 76.8023 44.9892 77.0155 44.5839 77.1042V76.0887C44.6092 75.6897 44.5353 75.278 44.3558 74.9065C43.9864 74.1359 43.2433 73.6925 42.3207 73.6925C41.2609 73.6925 40.3932 74.4336 40.2559 75.4554C40.239 75.5842 40.2348 75.7193 40.2454 75.8586V77.765C39.5424 77.2731 38.9681 76.587 38.6937 75.6369C38.6725 75.5609 38.6535 75.4828 38.6345 75.4026H38.6324ZM88.6188 73.6545C88.6484 73.625 88.6801 73.5954 88.7138 73.5701C88.7455 73.5426 88.7772 73.5152 88.8109 73.4899C90.1347 72.4681 92.1107 73.017 92.5815 73.1711C94.1396 73.6799 95.1593 74.6658 95.1023 75.2654C95.1002 75.2907 95.0959 75.316 95.0896 75.3414C95.0854 75.3604 95.079 75.3773 95.0748 75.3963C95.0579 75.4723 95.0389 75.544 95.0199 75.6158C94.7476 76.5764 94.1733 77.2689 93.4661 77.7629V75.8523C93.4745 75.715 93.4682 75.582 93.4534 75.4554C93.3162 74.4336 92.4485 73.6925 91.3887 73.6925C90.4661 73.6925 89.723 74.1359 89.3514 74.9065C89.1762 75.2759 89.1023 75.6834 89.1255 76.0803V77.1042C88.6927 77.0071 88.319 76.7685 88.1037 76.2998C87.7279 75.4913 87.9876 74.2647 88.6188 73.6545ZM91.3613 76.7749C91.0192 76.8466 90.7617 76.7749 90.5907 76.5616C90.4703 76.4117 90.4028 76.2048 90.3922 75.9916V75.8734C90.3986 75.7277 90.4323 75.5842 90.4936 75.4554C90.6519 75.126 90.9538 74.9592 91.3887 74.9592C91.8869 74.9592 92.1529 75.2928 92.1973 75.6222C92.1973 75.6348 92.1994 75.6454 92.2015 75.658V75.7995C92.1635 76.1204 91.927 76.4962 91.3613 76.7749ZM92.1994 77.7608V78.4131C90.9622 78.8713 89.6512 78.9452 88.9334 78.8903C88.6336 78.7847 88.3866 78.6179 88.1881 78.3878C88.1797 78.2949 88.1713 78.1978 88.1628 78.0965C88.8088 78.4258 89.7504 78.5757 91.1079 78.2105C91.5386 78.0943 91.8996 77.9402 92.1994 77.7608ZM87.8377 80.1232C88.1565 80.1401 88.4732 80.1485 88.7898 80.1485H90.1558C90.7173 80.1063 91.3064 80.0071 91.889 79.8466C92.8686 79.5764 93.8334 79.1288 94.623 78.4575C94.5914 78.8903 94.5702 79.3188 94.547 79.7453C94.3781 82.9881 94.243 85.551 90.8947 86.4546C87.8778 87.2653 83.4633 86.1717 78.7892 85.0127C74.7927 84.0204 70.659 82.9965 66.8526 82.9965C63.0461 82.9965 58.9124 84.0204 54.916 85.0127C50.3474 86.1464 46.0258 87.2168 43.0152 86.5053L42.8126 86.4504C39.4621 85.5489 39.3291 82.9859 39.1581 79.7432C39.1349 79.3188 39.1138 78.8881 39.0821 78.4575C39.8696 79.1288 40.8344 79.5764 41.814 79.8445C42.3988 80.0071 42.9899 80.1063 43.5494 80.1485H44.9174C45.1686 80.1485 45.422 80.1422 45.6753 80.1316C46.9779 80.0767 48.2995 79.891 49.6422 79.6228C51.422 79.2703 53.2397 78.7784 55.1123 78.2717C58.904 77.2456 62.8265 76.1858 66.8547 76.1858C70.8828 76.1858 74.8033 77.2456 78.5949 78.2717C80.3852 78.7551 82.1248 79.2259 83.8265 79.5764C85.1861 79.8551 86.5203 80.0556 87.8377 80.1232ZM88.4267 50.2584C86.6364 52.1754 85.4141 53.4822 84.5738 54.3879C84.6899 53.5667 84.749 52.7264 84.749 51.8735C84.749 46.794 82.6674 42.198 79.3149 38.9003C80.5731 39.1389 82.3972 39.4788 85.0552 39.9728C88.528 40.6167 93.2254 41.4907 96.0586 42.0481C94.1058 44.1782 90.8398 47.6744 88.4267 50.2584Z" fill="#0044AA"/>
<path d="M77.4591 79.891L77.0052 79.7917C77.0052 79.7917 77.0073 79.7981 77.0073 79.8002L77.4612 79.8973C77.4612 79.8973 77.4591 79.8931 77.4591 79.891ZM77.4591 79.891L77.0052 79.7917C77.0052 79.7917 77.0073 79.7981 77.0073 79.8002L77.4612 79.8973C77.4612 79.8973 77.4591 79.8931 77.4591 79.891Z" fill="#0044AA"/>
<path d="M48.9941 85.1035C48.8548 84.9916 48.7302 84.8797 48.6246 84.7678C48.5339 84.6707 48.4579 84.5778 48.3945 84.487C48.4663 84.4215 48.5233 84.3498 48.5613 84.2695C48.6035 84.1724 48.6162 84.0732 48.5972 83.9761C48.574 83.8494 48.5043 83.7502 48.3924 83.6784C48.2826 83.6045 48.1602 83.5771 48.0293 83.5982C47.8921 83.6214 47.7865 83.6826 47.7105 83.7797C47.6303 83.8769 47.6007 83.9866 47.624 84.1091C47.6324 84.1576 47.6535 84.2104 47.6873 84.2653C47.7042 84.2928 47.7232 84.3202 47.7464 84.3477C47.7443 84.3477 47.7422 84.3477 47.7401 84.3477C47.7063 84.3603 47.6662 84.3688 47.6197 84.3751C47.3347 84.4258 47.0518 84.3751 46.7795 84.2231C46.5135 84.0753 46.3572 83.8916 46.3171 83.6805C46.2939 83.5623 46.3235 83.4525 46.4058 83.3512C46.4924 83.2414 46.6042 83.1781 46.7478 83.1548L48.2362 82.9036L48.0567 81.9641L48.6943 81.8565L48.6078 81.4068L45.1623 81.981L45.175 82.0423L41.6768 82.057V82.5173L43.1863 82.5088L43.1926 83.442C43.1926 83.5264 43.1609 83.5961 43.0955 83.6552C43.0321 83.7143 42.954 83.7481 42.859 83.7439C42.7661 83.7439 42.669 83.6995 42.5698 83.613C42.4663 83.518 42.3734 83.3913 42.2932 83.233L42.2616 83.1675L41.8309 83.4715L43.6803 85.9142L44.1004 85.6587L42.9772 84.202C43.1208 84.2083 43.2517 84.164 43.3657 84.0901L44.9512 84.0816L44.9596 85.8508H45.479L45.4642 82.4983H46.125V82.285L47.5522 82.0465L47.6366 82.5046L46.6591 82.6693C46.3784 82.7157 46.1525 82.8466 45.9857 83.062C45.821 83.2731 45.7619 83.5116 45.8126 83.7692C45.8653 84.0563 46.0406 84.3033 46.334 84.5018C46.5853 84.6707 46.8871 84.7804 47.2334 84.8269L46.4354 85.6038L46.8597 85.8825L47.9364 84.7467C48.0251 84.8818 48.1159 85.0021 48.2109 85.1077C48.3228 85.2322 48.4431 85.3336 48.5655 85.4138L48.5972 85.4349L49.0638 85.1583L48.9941 85.1013V85.1035ZM43.6908 83.5982C43.7014 83.5475 43.7056 83.4947 43.7056 83.4398L43.7014 82.5088L44.9428 82.5046L44.9491 83.5919L43.6908 83.5982Z" fill="#0044AA"/>
<path d="M77.4591 79.891L77.0052 79.7917C77.0052 79.7917 77.0073 79.7981 77.0073 79.8002L77.4612 79.8973C77.4612 79.8973 77.4591 79.8931 77.4591 79.891Z" fill="#0044AA"/>
<path d="M91.2198 82.0042L91.87 81.8776L91.7708 81.4279L88.6146 82.0465L87.673 81.9599L84.5907 81.6812L84.616 81.5841L81.6984 80.9191L81.7026 80.9043L78.5591 80.1126L78.5696 80.0641L77.5077 79.8361C77.343 79.3442 77.0855 78.9093 76.7456 78.5461C76.3951 78.1682 76.0088 77.9318 75.595 77.8431C75.2466 77.7692 74.9152 77.8114 74.6133 77.9698C74.3135 78.1281 74.1235 78.3646 74.0475 78.6686C74.02 78.7805 74.0074 78.8797 74.0074 78.9726C74.0095 79.0148 74.0137 79.0528 74.02 79.0866L73.4183 78.9557L73.3086 79.4033L73.9567 79.5426L73.1608 82.8086L73.6632 82.9142L74.4591 79.6503L75.1094 79.7917L77.3071 80.2646L77.1108 81.0711L75.1537 80.651C75.0693 80.6341 74.9891 80.6383 74.9173 80.6657C74.8138 80.7059 74.7779 80.7734 74.7653 80.822C74.7484 80.8959 74.7484 81.0394 74.9574 81.4574C75.1685 81.8712 75.2825 81.943 75.3585 81.9578C75.4261 81.9726 75.4915 81.9578 75.5549 81.9135C75.6161 81.8691 75.6562 81.81 75.6752 81.7361L75.7617 81.3751C75.766 81.3624 75.785 81.3498 75.8145 81.3371C75.8567 81.3223 75.899 81.3223 75.9496 81.3329L76.9905 81.5546L76.5133 83.5285L77.02 83.6362L77.8138 80.3723L78.3099 80.48L78.2973 80.5222L79.1101 80.727L78.8947 81.4807C78.8842 81.5166 78.8673 81.5419 78.8356 81.5651C78.8145 81.582 78.7955 81.5862 78.7723 81.5799L78.5063 81.5145C78.4535 81.4997 78.3986 81.5081 78.3458 81.5377C78.2931 81.5651 78.2593 81.6073 78.2424 81.6601C78.2086 81.7784 78.2635 81.9705 78.4092 82.2681C78.5633 82.5616 78.69 82.7136 78.8124 82.7453C78.8778 82.7622 78.9454 82.7474 79.0109 82.7052C79.0721 82.6629 79.1143 82.6059 79.1354 82.5341L79.6125 80.8537L80.4401 81.0605L79.925 82.8656L77.7441 83.3364L77.837 83.7819L79.7835 83.3638L79.5196 84.2949L80.0158 84.4215L80.9362 81.1872L81.2213 81.259L81.217 81.278L83.3894 81.7762L83.2923 82.152L82.1713 81.8966C82.0003 81.8586 81.8377 81.8755 81.6878 81.9472C81.5358 82.0211 81.4408 82.133 81.4049 82.2787C81.3733 82.4011 81.3796 82.5363 81.426 82.684C81.464 82.8002 81.5253 82.9184 81.6055 83.0345C81.483 83.0809 81.3733 83.1506 81.2783 83.2414C81.1685 83.3554 81.0925 83.4884 81.0545 83.6383C80.97 83.9655 81.1009 84.2949 81.4472 84.6179C81.7871 84.9261 82.2388 85.1478 82.792 85.2745L82.8384 85.285L83.0622 84.8649L82.982 84.8459C82.5323 84.7424 82.1628 84.5799 81.8842 84.3624C81.6203 84.1513 81.5105 83.9465 81.559 83.7565C81.597 83.6087 81.7132 83.5032 81.9137 83.4356C82.127 83.366 82.3655 83.3617 82.6294 83.4208C82.7941 83.4588 82.925 83.5285 83.02 83.6299C83.1108 83.7249 83.1424 83.8199 83.115 83.9212C83.1023 83.9697 83.0749 84.012 83.0263 84.0521C82.9799 84.0943 82.9208 84.126 82.849 84.1471L82.7582 84.1703L83.0812 84.5947L83.1234 84.5841C83.2459 84.5503 83.3514 84.4828 83.4401 84.3857C83.5267 84.2864 83.5879 84.1703 83.6217 84.0394C83.6829 83.7966 83.6259 83.5665 83.4507 83.3575C83.2839 83.1464 83.0474 83.0049 82.7497 82.9395C82.64 82.912 82.5281 82.8994 82.4204 82.8973C82.3275 82.8931 82.2388 82.8973 82.1544 82.9099C82.0615 82.8339 81.9939 82.7495 81.9475 82.6587C81.9011 82.5658 81.8884 82.4793 81.9095 82.4011C81.9095 82.3948 81.9243 82.3864 81.9412 82.38C81.9749 82.3716 82.0129 82.3716 82.0509 82.38L83.6681 82.7495L83.8455 82.0718L84.1642 82.1014L84.0101 83.5771C83.9848 83.8473 84.0566 84.0901 84.2297 84.2991C84.4028 84.5039 84.6329 84.62 84.9095 84.6474C85.1692 84.6685 85.4035 84.5947 85.6104 84.4258C85.8194 84.2526 85.9397 84.0268 85.9672 83.7586L86.1213 82.2808L86.7314 82.3357L86.3873 85.6693L86.9067 85.7157L87.2487 82.3821L88.1311 82.4645L88.1628 82.6038L88.2747 82.5827L87.9496 85.7474L87.9433 85.8107L88.4542 85.8571L88.661 83.8515C88.7518 84.202 88.9566 84.4828 89.2733 84.6833C89.6069 84.8881 89.9679 84.9536 90.35 84.8776C90.5294 84.8438 90.7026 84.7699 90.863 84.6601C90.9876 84.5714 91.1037 84.4638 91.2071 84.3392L91.4372 85.3821L91.9482 85.2829L91.2198 82.0042ZM74.9405 79.2829L74.5351 79.1985C74.5225 79.1584 74.514 79.1077 74.5119 79.0507C74.5119 78.9726 74.5246 78.8818 74.5499 78.7784C74.5922 78.5989 74.704 78.4638 74.8856 78.3667C75.0735 78.2632 75.2719 78.2379 75.4915 78.2843C75.7976 78.3498 76.0869 78.5292 76.3508 78.8164C76.5936 79.0739 76.7793 79.3737 76.9081 79.7073L74.9405 79.2829ZM77.0073 79.8002C77.0073 79.8002 77.0052 79.7938 77.0052 79.7917L77.4591 79.891C77.4591 79.891 77.4612 79.8952 77.4612 79.8973L77.0073 79.8002ZM85.45 83.708C85.4352 83.8452 85.3824 83.955 85.2853 84.0458C85.1987 84.1218 85.1058 84.1598 84.9982 84.1598L84.9623 84.1555C84.825 84.145 84.7174 84.088 84.6308 83.9845C84.5464 83.8769 84.5126 83.7586 84.5253 83.6256L84.6794 82.1478L85.6062 82.2322L85.4521 83.708H85.45ZM88.6991 83.7249L88.6737 83.7291L88.7983 82.5236L89.1424 82.5553C89.2078 82.608 89.2648 82.665 89.3134 82.7242C89.3979 82.8234 89.4527 82.9289 89.476 83.0345C89.5098 83.1844 89.4612 83.3195 89.3282 83.4462C89.1888 83.5771 88.9777 83.67 88.6991 83.7249ZM90.7469 84.1492C90.6181 84.2632 90.4682 84.3434 90.3057 84.3857L90.2466 84.3962C90.0312 84.4405 89.8264 84.4194 89.6406 84.3371C89.476 84.2632 89.3577 84.1619 89.2817 84.0225C89.5182 83.9233 89.704 83.7776 89.8349 83.5897C89.9848 83.3786 90.0354 83.1569 89.9848 82.9311C89.9573 82.8023 89.9003 82.6777 89.8138 82.5616C89.7546 82.475 89.6829 82.3948 89.6005 82.3209L90.711 82.1035L91.0594 83.6826C90.996 83.8663 90.8905 84.0225 90.7469 84.1492Z" fill="#0044AA"/>
<path d="M73.2706 78.9156L73.2136 79.3695L72.5528 79.2977L72.1369 82.6228L71.6259 82.5679L71.9004 80.3786C71.7167 80.3702 71.5267 80.4441 71.3452 80.5855C71.1362 80.7439 70.9694 80.9677 70.8511 81.2506L70.8258 81.3097L70.3804 81.1112L70.3951 81.0584C70.431 80.9381 70.4775 80.8304 70.5345 80.7354C70.5809 80.6594 70.6295 80.594 70.6801 80.5433C70.6189 80.4441 70.5429 80.3639 70.4479 80.3026C70.3402 80.233 70.222 80.1908 70.0953 80.176C69.8969 80.1527 69.7238 80.2013 69.5675 80.3174C69.4092 80.4335 69.3227 80.5813 69.2994 80.765C69.2741 80.9655 69.3585 81.1809 69.5528 81.4089C69.7554 81.639 70.0405 81.8417 70.4015 82.0106L70.4648 82.0423L70.1967 82.4624L70.146 82.4392C69.7048 82.2259 69.3543 81.962 69.1031 81.6517C68.8519 81.3329 68.7442 81.0141 68.7822 80.7059C68.8223 80.385 68.9764 80.1232 69.2424 79.9268C69.5105 79.7284 69.8188 79.644 70.1566 79.682C70.355 79.7052 70.5408 79.7643 70.7097 79.8614C70.8575 79.9416 70.982 80.043 71.0792 80.1633C71.2037 80.0683 71.3452 79.9965 71.4951 79.948C71.6471 79.8952 71.8033 79.8741 71.9616 79.8846L72.0418 79.2407L68.6914 78.8691L68.7505 78.4131L68.8117 78.4195L73.2706 78.9156Z" fill="#0044AA"/>
<path d="M68.4338 78.8311L68.417 78.373L63.2889 78.5461L63.3058 79.0043L64.7076 78.9578L64.7351 79.7052C64.7414 79.8255 64.7182 79.929 64.6696 80.0113C64.6253 80.0873 64.5725 80.1232 64.5049 80.1253C64.4142 80.1253 64.3234 80.0915 64.2305 80.0134C64.1376 79.9332 64.0595 79.8171 63.9983 79.6693L63.9729 79.6059L63.557 79.8213L63.5739 79.872C63.8082 80.5855 64.146 81.1724 64.5788 81.6179C65.0074 82.0486 65.455 82.2682 65.9089 82.2682C65.9237 82.2682 65.9405 82.2682 65.9553 82.266C66.2572 82.2555 66.5443 82.1774 66.8103 82.0359C67.0215 81.9198 67.203 81.7741 67.355 81.5968L67.3783 82.2196L67.8997 82.2006L67.7709 78.8544L68.4338 78.8311ZM67.3044 80.2119C67.203 80.2963 67.1017 80.3639 67.0046 80.4124C66.9117 80.4631 66.8272 80.4905 66.7555 80.4926C66.6161 80.4948 66.4958 80.4652 66.3944 80.3955C66.3037 80.328 66.2551 80.2499 66.253 80.1506C66.2488 80.0556 66.2889 79.9733 66.3776 79.8994C66.4726 79.8192 66.5866 79.7791 66.7259 79.7727H66.7428C66.7977 79.7727 66.861 79.7812 66.937 79.7981C67.0236 79.815 67.1186 79.8361 67.2178 79.8635L67.2917 79.8846L67.3044 80.2119ZM66.7386 81.5588C66.4894 81.7129 66.2213 81.7973 65.9405 81.8079C65.6534 81.8185 65.36 81.7045 65.075 81.4722C64.8174 81.2569 64.6021 80.9698 64.4374 80.6172C64.4669 80.6214 64.4965 80.6235 64.5261 80.6214C64.7351 80.6151 64.9145 80.5201 65.056 80.3385C65.1995 80.1549 65.2671 79.9353 65.2586 79.6862L65.2312 78.9388L67.2516 78.8713L67.2727 79.3906L67.2452 79.3779C67.1735 79.3442 67.0911 79.3188 67.0004 79.3019C66.9096 79.2808 66.8103 79.2724 66.7069 79.2766C66.4324 79.2872 66.196 79.3779 66.006 79.549C65.8202 79.72 65.7294 79.929 65.7379 80.1696C65.7463 80.404 65.8519 80.6045 66.0524 80.765C66.2551 80.9233 66.4916 80.9972 66.7723 80.9888C66.8779 80.9845 66.9877 80.9571 67.0996 80.9064C67.1756 80.8727 67.2516 80.8283 67.3255 80.7734L67.3297 80.9212C67.1819 81.1851 66.9835 81.4005 66.7386 81.5588Z" fill="#0044AA"/>
<path d="M61.2622 79.3209L61.1756 78.8713L57.5592 79.4793L57.4473 79.4983V79.5025L56.0349 79.7981L51.9181 80.6552L51.9244 80.6848L50.664 80.9508L50.7717 81.3983L51.1496 81.316L51.3481 82.152C51.2678 82.2175 51.1897 82.2745 51.1137 82.3188C51.0335 82.3674 50.9533 82.4012 50.8773 82.4159C50.7928 82.4328 50.6957 82.4413 50.5902 82.4392C50.5226 82.437 50.4529 82.4307 50.3811 82.4202C50.4635 82.3315 50.5268 82.2344 50.569 82.1309C50.6324 81.9852 50.645 81.8417 50.6134 81.7023C50.5606 81.4807 50.4276 81.3076 50.2165 81.1851C50.0117 81.0584 49.7879 81.0204 49.5578 81.069C49.3234 81.1197 49.1377 81.2442 49.0047 81.4427C48.8717 81.6369 48.8315 81.848 48.8843 82.0697C48.9139 82.1943 48.9878 82.3083 49.1039 82.4138C49.1947 82.4898 49.3023 82.5574 49.4269 82.6165C49.277 82.7242 49.1609 82.8551 49.0828 83.0028C48.9814 83.1865 48.954 83.3723 48.9962 83.5517C49.0617 83.8304 49.2453 84.0415 49.543 84.1851C49.8301 84.3139 50.1447 84.3477 50.4804 84.2843L51.1306 84.9282L51.4811 84.5947L50.9596 84.0648C51.0061 84.0141 51.0398 83.9529 51.0567 83.8853C51.0842 83.7924 51.0884 83.6995 51.0652 83.6066C51.0377 83.4884 50.9681 83.3976 50.8625 83.3385C50.7591 83.2731 50.6429 83.2541 50.5205 83.2773C50.398 83.3047 50.303 83.366 50.2376 83.4652C50.17 83.5623 50.151 83.67 50.1764 83.784C50.1827 83.803 50.1911 83.8241 50.2123 83.86L50.2186 83.8684C50.0666 83.8853 49.923 83.8579 49.7921 83.7924C49.6338 83.708 49.5388 83.594 49.5029 83.442C49.4755 83.3237 49.5008 83.2076 49.5789 83.0809C49.6549 82.9585 49.7668 82.8614 49.9104 82.7875C50.1046 82.8445 50.2925 82.8804 50.4677 82.8909C50.6514 82.9015 50.8245 82.8931 50.9786 82.8593C51.0863 82.8382 51.1876 82.8044 51.2826 82.7579C51.3481 82.7263 51.4093 82.6904 51.4663 82.6482L51.9286 84.5841L52.4353 84.4785L51.6584 81.2104L52.3044 81.0753L52.2981 81.0458L52.4649 81.012L52.8069 82.4624C52.8702 82.7263 53.0201 82.9353 53.2502 83.0831C53.4191 83.1865 53.5986 83.2372 53.7865 83.2372C53.8604 83.2372 53.9364 83.2287 54.0124 83.214C54.2657 83.1612 54.4642 83.0197 54.6035 82.7959C54.7471 82.5722 54.7893 82.323 54.7281 82.0591L54.3839 80.6109L54.9835 80.4863L55.7562 83.7544L56.2629 83.6489L55.4923 80.3808L56.5099 80.1654L57.2826 83.4377L57.7829 83.3322L57.0124 80.062L57.6668 79.9247L58.3614 79.8086C58.4923 79.8973 58.5979 79.9944 58.6781 80.1C58.7604 80.2034 58.8132 80.309 58.8322 80.4124C58.8618 80.5665 58.809 80.6995 58.6739 80.822C58.5303 80.9487 58.315 81.0373 58.0342 81.0838L57.9708 81.0943L57.9835 81.1577C58.0553 81.5356 58.2537 81.8375 58.5789 82.057C58.904 82.2703 59.265 82.3463 59.6492 82.2808C59.8308 82.2513 60.006 82.1816 60.1686 82.076C60.2974 81.9916 60.4156 81.8881 60.5211 81.7678L60.7196 82.8128L61.2326 82.7284L60.6077 79.4328L61.2622 79.3209ZM50.0497 82.057C49.9969 82.1436 49.9167 82.2238 49.8153 82.2935C49.695 82.2449 49.5958 82.19 49.5219 82.1309C49.448 82.0718 49.4058 82.0127 49.3931 81.9599C49.3699 81.8649 49.3847 81.7805 49.4353 81.7045C49.4902 81.6242 49.5641 81.5757 49.6633 81.5567C49.6929 81.5503 49.7225 81.5461 49.752 81.5461C49.8175 81.5461 49.8829 81.563 49.9441 81.5989C50.0307 81.6475 50.0835 81.7192 50.1067 81.8142C50.1236 81.886 50.1067 81.9662 50.0497 82.057ZM54.1707 82.5342C54.1095 82.6418 54.0208 82.7073 53.9005 82.7326C53.7675 82.7622 53.645 82.7389 53.5289 82.6672C53.4128 82.589 53.341 82.4877 53.3094 82.3547L52.9673 80.9085L53.8751 80.7164L54.2193 82.1668C54.2509 82.2998 54.234 82.4202 54.1707 82.5342ZM60.0672 81.563C59.9195 81.6876 59.7506 81.7657 59.5606 81.7952L59.5204 81.8037C59.3178 81.8311 59.1299 81.8037 58.9568 81.7192C58.7963 81.6432 58.6823 81.5377 58.6084 81.3983C58.847 81.3054 59.037 81.164 59.1742 80.9803C59.3304 80.7734 59.3874 80.5539 59.3452 80.3259C59.3199 80.1971 59.2671 80.0725 59.1848 79.9501C59.1278 79.8635 59.0581 79.7812 58.98 79.7052L60.0947 79.5194L60.3966 81.1049C60.3269 81.2843 60.2171 81.4385 60.0672 81.563Z" fill="#0044AA"/>
<path d="M73.4965 53.1655C73.4796 52.5681 73.4648 52.0044 73.4648 51.4808C73.4648 48.8925 72.9518 47.4548 71.8962 47.0875C71.5753 46.9756 71.2312 46.984 70.8934 47.098L70.9081 43.2156C70.9314 42.274 70.4078 41.3999 69.633 41.0917C69.4071 41.0009 68.9469 40.8827 68.3937 41.0917C68.2945 40.6484 68.1151 40.1712 67.7878 39.8377C67.5007 39.5463 67.1376 39.3922 66.7322 39.3922C66.367 39.3922 66.0292 39.5358 65.7611 39.8081C65.3642 40.2113 65.1594 40.8679 65.0538 41.4675C64.7688 41.3915 64.5218 41.4232 64.4015 41.4485C63.4599 41.6427 62.7041 42.692 62.7041 43.4309V44.649C62.3895 44.5709 62.056 44.5773 61.7287 44.6765C60.8716 44.934 60.3185 45.7405 60.3185 46.7307V53.9762C59.4698 56.2943 59.3009 59.6785 63.0377 62.9614V64.3189H64.3044C64.3044 63.2844 64.4775 62.6004 66.8125 62.535C67.0405 62.5286 67.2516 62.5307 67.45 62.5392C67.6063 62.6215 67.7836 62.6342 67.9419 62.5835C68.512 62.6616 68.9321 62.8263 69.196 63.0775C69.4789 63.3456 69.6245 63.7573 69.6393 64.3379L70.906 64.321V63.0142C73.7012 61.0571 73.5872 56.6933 73.4965 53.1655ZM69.8969 52.1648C69.9032 52.1775 69.9074 52.1923 69.9138 52.205L69.88 52.2113C69.8863 52.1965 69.8906 52.1817 69.8969 52.1648ZM68.5141 42.4914C68.6956 42.3289 68.9405 42.179 69.1643 42.2676C69.443 42.3795 69.652 42.7806 69.6414 43.1966L69.6224 48.3352C69.6203 48.4872 69.6224 48.6518 69.6224 48.825C69.6245 49.3506 69.6245 49.9439 69.5718 50.5392C69.2635 50.2331 68.9089 49.9882 68.5141 49.8045V42.4914ZM66.215 42.7891C66.2066 42.1346 66.3438 41.022 66.6626 40.699C66.7027 40.6589 66.7175 40.6589 66.7322 40.6589C66.7871 40.6589 66.8293 40.6695 66.8842 40.7244C67.1355 40.9798 67.2474 41.7251 67.2495 42.1769C67.2474 42.1937 67.2474 42.2106 67.2474 42.2275V49.4541C67.0595 49.4309 66.8695 49.4203 66.6731 49.4203C66.595 49.4203 66.519 49.4224 66.4409 49.4266C66.3649 49.4287 66.291 49.433 66.215 49.4393V42.7891ZM64.6675 42.6878C64.7731 42.6688 64.8744 42.7975 64.9483 42.9411V49.6821C64.6168 49.7813 64.2875 49.9059 63.9708 50.0537V43.433C63.9814 43.2451 64.3529 42.7405 64.6675 42.6878ZM61.5852 46.7307C61.5852 46.224 61.8491 45.9622 62.094 45.8883C62.151 45.8714 62.208 45.863 62.265 45.863C62.4233 45.863 62.5774 45.9326 62.7041 46.0614V50.801C62.2945 51.0987 61.9166 51.4344 61.5852 51.7996V46.7307ZM63.9201 62.0515C61.2664 59.744 60.4684 57.1409 61.5451 54.3161C61.5493 54.2992 61.5535 54.2866 61.5577 54.2739C61.5915 54.1599 61.6337 54.048 61.6802 53.9361C62.3959 52.2282 64.5092 50.7778 66.4958 50.6912C67.3973 50.6532 68.5732 50.8897 69.2171 52.1944C69.1939 52.2514 69.1706 52.3084 69.1453 52.3654C68.9616 52.7771 68.7041 53.1444 68.3536 53.44C66.8821 54.6687 65.2016 56.8833 65.2987 59.0747C65.3346 59.896 65.6091 60.6412 66.1137 61.3084C65.1425 61.4012 64.4205 61.6419 63.9201 62.0515ZM69.9982 62.0958C69.5042 61.6588 68.8096 61.397 67.8955 61.3041C67.8892 61.2999 67.8828 61.2936 67.8765 61.2894C67.0341 60.637 66.6035 59.8918 66.5633 59.0177C66.481 57.1873 68.1277 55.2936 69.1348 54.4386C69.1453 54.428 69.1559 54.4196 69.1664 54.4111C69.7744 53.9023 70.1671 53.2669 70.4226 52.5829C70.5028 52.4752 70.5471 52.3443 70.5471 52.2113C70.8955 51.0438 70.8913 49.7877 70.8891 48.8207V48.5801C71.1235 48.3436 71.3578 48.2423 71.4782 48.2845C71.5077 48.295 72.1981 48.5674 72.1981 51.4808C72.1981 52.0213 72.2129 52.5934 72.2297 53.1972C72.3142 56.4991 72.4219 60.6032 69.9982 62.0958Z" fill="#0044AA"/>
</svg>
