<svg width="48" height="48" viewBox="0 0 48 48" fill="none" xmlns="http://www.w3.org/2000/svg">
<rect width="48" height="48" rx="12" fill="url(#paint0_linear_132_8925)"/>
<path d="M34.666 13.3335H13.3327C11.866 13.3335 10.666 14.5335 10.666 16.0002V32.0002C10.666 33.4668 11.866 34.6668 13.3327 34.6668H34.666C36.1327 34.6668 37.3327 33.4668 37.3327 32.0002V16.0002C37.3327 14.5335 36.1327 13.3335 34.666 13.3335ZM34.1327 19.0002L25.4127 24.4535C24.546 25.0002 23.4527 25.0002 22.586 24.4535L13.866 19.0002C13.7323 18.9251 13.6152 18.8237 13.5219 18.7021C13.4285 18.5805 13.3608 18.4412 13.3228 18.2927C13.2848 18.1441 13.2774 17.9894 13.3009 17.8379C13.3244 17.6864 13.3785 17.5412 13.4597 17.4112C13.541 17.2812 13.6478 17.169 13.7737 17.0815C13.8995 16.9939 14.0418 16.9328 14.192 16.9019C14.3422 16.8709 14.4971 16.8708 14.6473 16.9014C14.7975 16.9321 14.94 16.9929 15.066 17.0802L23.9993 22.6668L32.9327 17.0802C33.0587 16.9929 33.2012 16.9321 33.3514 16.9014C33.5016 16.8708 33.6565 16.8709 33.8067 16.9019C33.9569 16.9328 34.0992 16.9939 34.225 17.0815C34.3509 17.169 34.4577 17.2812 34.539 17.4112C34.6202 17.5412 34.6743 17.6864 34.6978 17.8379C34.7213 17.9894 34.7139 18.1441 34.6759 18.2927C34.6379 18.4412 34.5702 18.5805 34.4768 18.7021C34.3835 18.8237 34.2664 18.9251 34.1327 19.0002Z" fill="white"/>
<defs>
<linearGradient id="paint0_linear_132_8925" x1="7" y1="4.52002e-07" x2="40.5" y2="48" gradientUnits="userSpaceOnUse">
<stop stop-color="#FFA945"/>
<stop offset="1" stop-color="#BA6502"/>
</linearGradient>
</defs>
</svg>
