<svg width="12" height="12" viewBox="0 0 12 12" fill="none" xmlns="http://www.w3.org/2000/svg">
<path d="M8.08333 5.75C8.08333 5.86051 8.03943 5.96649 7.96129 6.04463C7.88315 6.12277 7.77717 6.16667 7.66667 6.16667H1.41667C1.30616 6.16667 1.20018 6.12277 1.12204 6.04463C1.0439 5.96649 1 5.86051 1 5.75C1 5.63949 1.0439 5.53351 1.12204 5.45537C1.20018 5.37723 1.30616 5.33333 1.41667 5.33333H7.66667C7.77717 5.33333 7.88315 5.37723 7.96129 5.45537C8.03943 5.53351 8.08333 5.63949 8.08333 5.75ZM1.41667 2.83333H10.5833C10.6938 2.83333 10.7998 2.78943 10.878 2.71129C10.9561 2.63315 11 2.52717 11 2.41667C11 2.30616 10.9561 2.20018 10.878 2.12204C10.7998 2.0439 10.6938 2 10.5833 2H1.41667C1.30616 2 1.20018 2.0439 1.12204 2.12204C1.0439 2.20018 1 2.30616 1 2.41667C1 2.52717 1.0439 2.63315 1.12204 2.71129C1.20018 2.78943 1.30616 2.83333 1.41667 2.83333ZM10.1667 8.66667H1.41667C1.30616 8.66667 1.20018 8.71057 1.12204 8.7887C1.0439 8.86685 1 8.97283 1 9.08333C1 9.19384 1.0439 9.29982 1.12204 9.37796C1.20018 9.4561 1.30616 9.5 1.41667 9.5H10.1667C10.2772 9.5 10.3832 9.4561 10.4613 9.37796C10.5394 9.29982 10.5833 9.19384 10.5833 9.08333C10.5833 8.97283 10.5394 8.86685 10.4613 8.7887C10.3832 8.71057 10.2772 8.66667 10.1667 8.66667Z" fill="white"/>
</svg>
