<svg width="24" height="25" viewBox="0 0 24 25" fill="none" xmlns="http://www.w3.org/2000/svg">
<path d="M16.1635 2.5C15.9425 2.5 15.7306 2.5878 15.5743 2.74408C15.4181 2.90036 15.3303 3.11232 15.3303 3.33333C15.3303 5.79083 13.1783 6.66667 11.1646 6.66667H5.33258C4.44873 6.66667 3.60107 7.01786 2.97609 7.64298C2.35111 8.2681 2 9.11594 2 10L2 11.6667C2.00182 12.1656 2.11619 12.6577 2.33459 13.1063C2.55299 13.5549 2.86979 13.9484 3.26138 14.2575L6.23738 20.9008C6.44903 21.3767 6.79406 21.7811 7.23071 22.0649C7.66736 22.3487 8.1769 22.4998 8.69765 22.5C9.11199 22.4997 9.51967 22.3958 9.88361 22.1977C10.2475 21.9996 10.5562 21.7137 10.7814 21.3658C11.0066 21.018 11.1413 20.6193 11.1731 20.2061C11.205 19.7929 11.133 19.3783 10.9638 19L9.13089 15H11.1646C13.1783 15 15.3303 15.8758 15.3303 18.3333C15.3303 18.5543 15.4181 18.7663 15.5743 18.9226C15.7306 19.0789 15.9425 19.1667 16.1635 19.1667C16.3844 19.1667 16.5963 19.0789 16.7526 18.9226C16.9088 18.7663 16.9966 18.5543 16.9966 18.3333V3.33333C16.9966 3.11232 16.9088 2.90036 16.7526 2.74408C16.5963 2.5878 16.3844 2.5 16.1635 2.5ZM9.44582 19.6825C9.501 19.8072 9.52421 19.9436 9.51334 20.0795C9.50247 20.2154 9.45786 20.3464 9.38356 20.4607C9.30926 20.575 9.20761 20.669 9.08784 20.734C8.96807 20.7991 8.83395 20.8332 8.69765 20.8333C8.49886 20.8332 8.30439 20.7753 8.13785 20.6667C7.97132 20.5582 7.83989 20.4035 7.75953 20.2217L5.42006 15H7.29797L9.44582 19.6825ZM15.3303 14.6667C14.14 13.7493 12.6662 13.2776 11.1646 13.3333H5.33258C4.89065 13.3333 4.46683 13.1577 4.15434 12.8452C3.84185 12.5326 3.66629 12.1087 3.66629 11.6667V10C3.66629 9.55797 3.84185 9.13405 4.15434 8.82149C4.46683 8.50893 4.89065 8.33333 5.33258 8.33333H11.1646C12.6657 8.39025 14.1394 7.92002 15.3303 7.00417V14.6667ZM21.9122 15.3767C21.8633 15.4746 21.7956 15.562 21.713 15.6338C21.6303 15.7056 21.5343 15.7604 21.4305 15.7951C21.3266 15.8298 21.217 15.8436 21.1078 15.8359C20.9986 15.8281 20.892 15.799 20.7941 15.75L19.1278 14.9167C18.93 14.8179 18.7796 14.6445 18.7096 14.4348C18.6396 14.2251 18.6558 13.9961 18.7546 13.7983C18.8533 13.6005 19.0266 13.4501 19.2363 13.3801C19.446 13.31 19.6749 13.3262 19.8726 13.425L21.5389 14.2583C21.7357 14.3571 21.8854 14.5297 21.9553 14.7384C22.0252 14.9472 22.0097 15.1751 21.9122 15.3725V15.3767ZM18.7546 7.87667C18.7056 7.77873 18.6764 7.67211 18.6687 7.56289C18.661 7.45367 18.6748 7.34399 18.7095 7.24013C18.7441 7.13628 18.7989 7.04027 18.8707 6.9576C18.9425 6.87493 19.0298 6.80722 19.1278 6.75833L20.7941 5.925C20.9919 5.82621 21.2208 5.81004 21.4304 5.88005C21.6401 5.95007 21.8134 6.10053 21.9122 6.29833C22.0109 6.49614 22.0271 6.72509 21.9571 6.93482C21.8871 7.14455 21.7367 7.31787 21.5389 7.41667L19.8726 8.25C19.7747 8.29896 19.6681 8.32815 19.5589 8.33588C19.4497 8.34362 19.3401 8.32976 19.2362 8.29508C19.1324 8.26041 19.0364 8.20561 18.9538 8.13382C18.8711 8.06203 18.8034 7.97464 18.7546 7.87667ZM18.6629 10.8333C18.6629 10.6123 18.7507 10.4004 18.9069 10.2441C19.0632 10.0878 19.2751 10 19.496 10H21.1623C21.3833 10 21.5952 10.0878 21.7515 10.2441C21.9077 10.4004 21.9955 10.6123 21.9955 10.8333C21.9955 11.0543 21.9077 11.2663 21.7515 11.4226C21.5952 11.5789 21.3833 11.6667 21.1623 11.6667H19.496C19.2751 11.6667 19.0632 11.5789 18.9069 11.4226C18.7507 11.2663 18.6629 11.0543 18.6629 10.8333Z" fill="#004890"/>
</svg>
