<svg width="126" height="104" viewBox="0 0 126 104" fill="none" xmlns="http://www.w3.org/2000/svg">
<rect width="126" height="104" fill="white"/>
<path d="M26.9594 16.0735C28.3122 15.8946 29.7258 16.0301 30.9799 16.588C31.5572 16.8683 32.1225 17.1975 32.5789 17.6558C33.1165 18.1685 33.5518 18.7882 33.845 19.4706C33.8754 19.4706 33.9344 19.4697 33.964 19.4697C34.401 18.9643 34.8252 18.4433 35.3324 18.0053C36.0185 17.4161 36.7663 16.8748 37.6211 16.5594C38.9499 16.0449 40.4133 15.8614 41.8233 16.0984C43.0903 16.292 44.3213 16.8287 45.2536 17.7232C45.995 18.4526 46.5538 19.3572 46.9291 20.3254C47.4326 21.6717 47.6742 23.1093 47.6825 24.546C47.676 25.1279 47.7102 25.7097 47.6862 26.2916C47.6677 29.5218 47.6899 32.753 47.6677 35.9841C46.6958 36.021 45.723 35.9675 44.751 35.9749C44.0299 35.9777 43.3098 35.9638 42.5896 35.9933C42.1866 35.9897 41.7836 36.0109 41.3834 35.9675C41.3834 33.6456 41.3742 31.3228 41.3779 28.9999C41.3677 27.5955 41.4074 26.1883 41.3253 24.7848C41.2331 23.7972 40.9924 22.7626 40.3322 21.9926C39.7955 21.4062 38.9979 21.0465 38.1993 21.0899C37.3897 21.1277 36.6013 21.4965 36.0526 22.0931C35.385 22.7967 35.0392 23.7622 35.0216 24.7249C34.9801 27.8362 35.0216 30.9474 35.0189 34.0587C35.0189 34.7005 35.0235 35.3432 34.9977 35.986C34.0608 36.0016 33.1248 35.9629 32.1879 35.9675C31.0426 35.9574 29.8983 35.9694 28.753 35.9703C28.694 32.3638 28.7954 28.7555 28.6931 25.1482C28.6663 24.1458 28.4717 23.1139 27.9139 22.2637C27.5072 21.6551 26.8451 21.2411 26.1295 21.1074C25.2009 20.9801 24.2299 21.3351 23.5761 22.0028C23.1123 22.4731 22.7647 23.0558 22.548 23.6783C22.3488 24.2998 22.3728 24.961 22.358 25.6055C22.3322 28.9455 22.3663 32.2864 22.3506 35.6263C22.3488 35.7388 22.3433 35.8532 22.3368 35.9675C20.712 35.9795 19.0872 35.9555 17.4624 35.9703C17.006 35.9731 16.5504 35.9694 16.094 35.9611C16.0958 32.7179 16.0921 29.4748 16.0903 26.2326C16.0792 23.184 16.1014 20.1318 15.9252 17.0869C15.9151 16.8951 15.9031 16.7014 15.9271 16.5106C17.3204 16.47 18.7147 16.4691 20.1089 16.481C20.5294 16.5115 20.9573 16.4488 21.3732 16.5272C21.4248 17.2381 21.5189 17.9454 21.6139 18.6508C21.6378 18.8601 21.6526 19.0704 21.7079 19.2742C21.7844 19.2142 21.8647 19.1571 21.9265 19.0805C22.418 18.4581 22.9519 17.8569 23.6029 17.3949C24.5785 16.6609 25.7625 16.256 26.9594 16.0735Z" fill="#92CA52"/>
<path d="M46.9254 16.274C48.6424 16.2583 50.3613 16.2528 52.0802 16.2721C52.7745 16.2869 53.4707 16.2601 54.1651 16.2989C54.5127 17.3713 54.829 18.453 55.173 19.5254C55.3058 19.9855 55.4736 20.4374 55.5833 20.9021C55.599 21.1899 55.634 21.5061 55.8388 21.7275L55.8572 21.7505C56.037 22.3748 56.2675 22.9862 56.4206 23.616C56.4215 23.8308 56.463 24.042 56.5396 24.2421C56.9333 25.5082 57.2828 26.7936 57.8204 28.0081C57.9246 28.2497 58.0482 28.4839 58.1155 28.7393C58.1625 28.8933 58.1828 29.0649 58.2999 29.1866C58.323 29.1995 58.3672 29.2244 58.3903 29.2364C58.583 28.8113 58.7011 28.3576 58.8753 27.9251C59.3927 26.6194 59.6721 25.2389 60.0243 23.8834C60.3876 22.4467 60.7648 21.0137 61.1253 19.577C61.2563 19.1123 61.3476 18.6355 61.497 18.1773C61.5735 18.0546 61.6454 17.9255 61.6768 17.7826C61.7837 17.316 61.9174 16.8568 62.0392 16.3938C62.5998 16.2878 63.1725 16.3542 63.7396 16.3422C64.3427 16.3247 64.943 16.3966 65.546 16.3763C66.5963 16.3828 67.6457 16.369 68.696 16.3975C68.6831 16.5571 68.6822 16.7175 68.6831 16.877C68.3576 17.8416 67.9491 18.7812 67.5969 19.7384C66.5917 22.289 65.6078 24.847 64.6018 27.3976C63.2536 30.8704 62.0687 34.4123 60.5075 37.7993C60.0594 38.7648 59.5651 39.7136 58.9777 40.6035C58.3082 41.6132 57.4903 42.5252 56.5506 43.2896C56.0066 43.7074 55.409 44.0799 54.7599 44.3021C54.5976 44.3455 54.4519 44.3981 54.2979 44.4432C53.8479 44.6065 53.3582 44.6387 52.8843 44.6747C51.5555 44.8066 49.6798 44.3925 48.364 44.2321C47.8522 44.1482 48.411 44.2607 46.8369 43.925C47.0213 43.9342 47.7397 43.8752 47.9204 43.8604C48.505 43.7728 49.0113 43.7507 49.5692 43.5893C50.1584 43.3643 50.732 43.0914 51.2659 42.7548C51.5398 42.5326 51.8939 42.4404 52.1576 42.2052C52.3642 42.0254 52.5947 41.8769 52.8049 41.7036C53.1203 41.4085 53.3748 41.0562 53.6054 40.692C54.0268 40.1627 54.356 39.5559 54.5542 38.9058C54.7156 38.5573 54.6815 38.1654 54.7746 37.7993C54.8714 37.4037 54.9157 36.9961 54.9369 36.5904C54.9526 36.3442 54.8493 36.1155 54.7746 35.8877C54.9212 35.6018 55.0144 35.2782 54.9886 34.9554C54.9895 34.8309 54.8973 34.7415 54.8336 34.6465C54.3172 33.3648 53.7409 32.1024 53.207 30.8261C51.7712 27.5055 50.3456 24.1803 48.9108 20.8588C48.2422 19.3336 47.617 17.7881 46.9254 16.274Z" fill="#418DC9"/>
<path d="M61.9517 16.2925C62.327 16.2428 62.706 16.2759 63.0841 16.2704C65.0316 16.264 66.9801 16.2815 68.9276 16.2898C68.8465 16.4853 68.7773 16.6863 68.6832 16.8763C68.6823 16.7167 68.6832 16.5563 68.6961 16.3967C67.6458 16.3682 66.5965 16.382 65.5461 16.3755C64.9431 16.3958 64.3428 16.3239 63.7397 16.3414C63.1726 16.3534 62.5999 16.287 62.0393 16.3931C61.9176 16.856 61.7839 17.3152 61.6769 17.7818C61.6455 17.9247 61.5736 18.0538 61.4971 18.1765C61.6206 17.542 61.8484 16.9316 61.9517 16.2925Z" fill="#406C9D"/>
<path d="M55.583 20.9014C55.6844 21.1716 55.7628 21.4491 55.8384 21.7267C55.6337 21.5054 55.5987 21.1891 55.583 20.9014Z" fill="#406C9D"/>
<path d="M56.4209 23.6152C56.9244 25.1174 57.2978 26.6684 57.9535 28.1152C58.1167 28.4555 58.231 28.8151 58.3002 29.1858C58.1831 29.0641 58.1628 28.8926 58.1158 28.7386C58.0485 28.4832 57.9249 28.2489 57.8207 28.0073C57.2831 26.7929 56.9336 25.5074 56.5399 24.2414C56.4633 24.0413 56.4218 23.8301 56.4209 23.6152Z" fill="#406C9D"/>
<path d="M54.8335 34.6465C54.8971 34.7415 54.9893 34.8309 54.9884 34.9554C55.0142 35.2781 54.9211 35.6018 54.7744 35.8877C54.7412 35.8969 54.6758 35.9153 54.6426 35.9246C54.7588 35.6968 54.8916 35.469 54.9091 35.2099C54.9349 35.0172 54.8731 34.8309 54.8335 34.6465Z" fill="#418DC9"/>
<path d="M48.668 38.8067C49.2757 38.8058 49.8852 38.8381 50.4901 38.7588C50.3417 38.8031 50.1932 38.8482 50.0383 38.851C49.4721 38.8639 48.905 38.8519 48.3379 38.8492C48.4467 38.8326 48.5574 38.8169 48.668 38.8067Z" fill="#406C9D"/>
<path d="M30.0564 46.4727L30.0813 46.481C30.0831 46.5658 30.0693 46.6792 29.9678 46.6995C29.9208 46.623 29.9881 46.5142 30.0564 46.4727Z" fill="#406C9D"/>
<path d="M28.877 49.8554C28.8908 49.6792 28.935 49.5068 28.9931 49.3408C28.9885 49.5188 28.9618 49.6968 28.877 49.8554Z" fill="#406C9D"/>
<path d="M43.2598 55.1771C43.6756 55.1365 44.0943 55.1669 44.5111 55.1568C45.5439 55.1568 46.5776 55.1485 47.6104 55.1623L47.615 55.1973C46.62 55.2075 45.625 55.1964 44.631 55.2038C44.1736 55.1946 43.7135 55.2407 43.2598 55.1771Z" fill="#406C9D"/>
<path d="M18.6896 73.3381C19.1045 73.0006 19.3913 72.5293 19.8109 72.1992C20.093 72.6372 20.4435 73.0218 20.7616 73.433C21.5592 74.4022 22.3311 75.3916 23.1342 76.3571C23.3758 76.643 23.622 76.9261 23.8517 77.2221C24.2472 77.2433 24.6392 77.1584 25.0338 77.1815C26.0002 77.2055 26.9675 77.2304 27.9348 77.2276C27.6868 76.6863 27.6176 76.0759 27.6951 75.4894C27.8159 74.9149 28.1008 74.381 28.4743 73.9319C28.952 73.3657 29.7072 73.0559 30.443 73.1149C30.9816 73.1499 31.4841 73.3842 31.924 73.6848C32.7594 74.2546 33.3828 75.0726 33.9195 75.9173C34.1814 76.347 34.4635 76.7675 34.6756 77.2258C34.9246 77.2885 35.1819 77.2341 35.4345 77.2405C35.8449 77.2239 36.2552 77.2543 36.6647 77.2202C36.6868 77.7449 36.6601 78.2696 36.6665 78.7934C36.1427 78.7961 35.619 78.7915 35.0961 78.8127C35.0574 80.6496 35.0721 82.4874 35.0703 84.3252C35.0777 85.5157 35.0509 86.7062 35.0768 87.8957C34.4903 87.9114 33.9038 87.9252 33.3182 87.9151C33.3422 84.8868 33.3081 81.8576 33.3247 78.8293C32.6884 78.8349 32.0531 78.8478 31.4177 78.8441C31.3984 79.5495 31.427 80.255 31.4104 80.9604C31.3901 81.5367 31.1678 82.1213 30.728 82.5068C30.2577 82.9052 29.6685 83.1523 29.0626 83.2362C29.3328 83.6087 29.591 83.9896 29.863 84.3612C30.3342 85.0251 30.893 85.6208 31.4528 86.2101C31.6667 86.4452 31.9212 86.6435 32.1167 86.8952C32.0964 86.9791 31.9996 87.0243 31.9434 87.0879C31.604 87.372 31.2886 87.6864 30.9484 87.9686C30.6173 87.9566 30.3776 87.6634 30.1378 87.4633C29.2194 86.5024 28.4411 85.417 27.6896 84.3243C27.0265 83.3588 26.4336 82.3491 25.8647 81.3265C25.7568 81.1107 25.5705 80.917 25.5567 80.6662C25.6111 80.5657 25.742 80.5482 25.8296 80.4836C26.1994 80.2356 26.5369 79.9396 26.9085 79.6934C27.0736 79.8815 27.1603 80.1194 27.2912 80.3287C27.4729 80.6487 27.6665 80.9604 27.8491 81.2804C27.9763 81.5017 28.2013 81.6889 28.4688 81.6926C28.8736 81.7267 29.4056 81.6686 29.5827 81.2379C29.7219 80.444 29.6343 79.6334 29.6602 78.8321C28.9612 78.7952 28.2604 78.8247 27.5605 78.8192C26.6374 78.8164 25.7134 78.8275 24.7904 78.8413C24.7618 79.3854 24.7738 79.9304 24.7719 80.4763C24.7572 82.9467 24.7609 85.417 24.7516 87.8884C24.1772 87.892 23.6027 87.9188 23.0282 87.8967C23.0162 86.9072 23.0254 85.9178 23.0208 84.9283C23.0079 84.3133 23.0568 83.6945 22.9987 83.0813C22.095 83.0813 21.1904 83.0711 20.2867 83.0739C20.2765 83.4511 20.2885 83.831 20.2452 84.2072C20.2277 84.3409 20.2314 84.4885 20.1548 84.6065C19.9003 84.8545 19.5186 84.9486 19.1746 84.8647C18.7154 84.6176 18.3438 84.2395 18.0099 83.8448C17.6512 83.4428 17.2833 83.0057 17.1644 82.4653C17.0934 82.1379 17.2916 81.8207 17.5489 81.6372C17.785 81.4676 18.0893 81.4648 18.3687 81.4657C18.4369 81.4805 18.5273 81.4482 18.5171 81.3634C18.5549 80.5205 18.5107 79.674 18.5365 78.833C17.7435 78.7491 16.9384 78.8266 16.1408 78.7971C16.1426 78.2705 16.115 77.744 16.1223 77.2193C18.1252 77.2516 20.1309 77.1769 22.1328 77.2571C20.9847 75.9873 19.7721 74.7766 18.5964 73.5326C18.6047 73.457 18.6195 73.3777 18.6896 73.3381ZM30.0945 74.6502C29.7182 74.8042 29.5357 75.2164 29.4813 75.5963C29.3743 76.0445 29.5716 76.4853 29.7597 76.8827C29.8317 77.0229 29.8805 77.2387 30.0825 77.2258C31.0249 77.2636 31.9673 77.1769 32.9107 77.1649C32.7474 76.8919 32.5307 76.6586 32.35 76.3986C31.9461 75.8536 31.5302 75.3022 30.9899 74.8845C30.7335 74.7148 30.4071 74.499 30.0945 74.6502ZM20.295 78.8312C20.2858 79.6998 20.2895 80.5694 20.295 81.4381C21.1978 81.4565 22.1024 81.4482 23.0051 81.4381C22.9941 80.5611 23.0402 79.6832 23.0014 78.8072C22.0996 78.821 21.1968 78.8026 20.295 78.8312Z" fill="#406C9D"/>
<path d="M42.3552 77.2463C45.5365 77.226 48.7197 77.2813 51.9011 77.2278C53.465 77.2131 55.029 77.2177 56.5929 77.2352C58.1753 77.2343 59.7567 77.2205 61.3391 77.2149C62.9012 77.2278 64.4642 77.2389 66.0263 77.2334C67.7488 77.2352 69.4714 77.2472 71.1948 77.226C73.0188 77.202 74.8428 77.2371 76.6677 77.2149C77.9688 77.2131 79.2709 77.2398 80.572 77.2343C81.6131 77.2334 82.6532 77.2315 83.6943 77.2454C83.9286 77.2509 84.1655 77.2334 84.3998 77.2712C84.4071 77.7774 84.3776 78.2837 84.3601 78.7899C83.8815 78.7992 83.402 78.789 82.9244 78.8185C82.8395 78.8499 82.8801 78.9605 82.8672 79.0288C82.8533 79.7591 82.8995 80.4903 82.8478 81.2207C82.7906 81.7454 82.5334 82.2415 82.1166 82.5707C81.6629 82.9432 81.093 83.1562 80.5148 83.2282C80.8191 83.6293 81.0958 84.0507 81.3973 84.4546C82.0446 85.3306 82.8054 86.1144 83.5781 86.8789C83.5772 86.8992 83.5754 86.9379 83.5735 86.9582C83.154 87.28 82.7796 87.6571 82.3794 88.0029C81.9395 87.836 81.6149 87.481 81.3023 87.1444C80.4263 86.1384 79.6314 85.0623 78.8993 83.9465C78.2621 83.0032 77.7171 82.0017 77.1463 81.0169C77.0863 80.9007 76.9997 80.7854 77.0153 80.648C77.4533 80.3981 77.8397 80.0699 78.2528 79.7812C78.3174 79.7268 78.4373 79.6973 78.4714 79.8052C78.7121 80.2792 79.0007 80.7264 79.2589 81.1912C79.3723 81.382 79.5217 81.5775 79.7347 81.6615C80.0584 81.7232 80.4106 81.7195 80.7168 81.5849C80.9408 81.4853 81.0764 81.2529 81.0884 81.0123C81.1437 80.2838 81.1087 79.5516 81.1299 78.8222C80.1819 78.7835 79.2331 78.8148 78.2851 78.8158C77.4377 78.8121 76.5902 78.8305 75.7428 78.8305C75.6865 81.8496 75.7492 84.8686 75.7207 87.8877C75.148 87.9098 74.5754 87.9153 74.0037 87.919C73.9539 87.3473 74.0055 86.7691 73.9926 86.1956C74.0027 84.2075 73.9861 82.2193 73.9898 80.2321C73.9778 79.7655 74.0092 79.2934 73.976 78.8305C72.5485 78.8065 71.1201 78.8167 69.6927 78.801C69.1127 78.8084 68.5308 78.7779 67.9545 78.8342C67.9674 79.3736 67.9923 79.914 67.9545 80.4516C68.2615 80.3133 68.5354 80.0966 68.8692 80.0201C69.8421 79.7692 70.9579 80.0616 71.6467 80.8039C72.0727 81.2354 72.3761 81.7942 72.46 82.3992C72.5578 82.9331 72.4102 83.4698 72.2332 83.9705C71.9657 84.6547 71.5268 85.2541 71.0593 85.8138C70.7605 86.1532 70.4913 86.5238 70.1418 86.8134C69.6291 86.4224 69.3137 86.1485 68.8111 85.7382C69.0103 85.5224 69.2196 85.3159 69.3063 85.2126C69.5996 84.9193 69.7997 84.5911 70.056 84.2646C70.3649 83.8368 70.6434 83.3545 70.6969 82.8196C70.6748 82.4729 70.6619 82.0773 70.3944 81.8201C70.0828 81.4779 69.5415 81.394 69.1348 81.6061C68.6866 81.8201 68.3796 82.2405 68.1509 82.6684C67.925 83.1055 67.9646 83.6099 67.9619 84.0848C67.9738 85.3564 67.9637 86.629 67.9941 87.8997C67.4003 87.9393 66.8037 87.9319 66.208 87.9319C66.2024 87.1112 66.196 86.2905 66.2135 85.4699C65.9138 85.5731 65.6279 85.7327 65.3089 85.7659C64.7095 85.8249 64.0889 85.7935 63.5246 85.5639C62.6144 85.219 61.9846 84.3532 61.7393 83.4319C61.4673 82.3613 61.8703 81.1626 62.7214 80.4636C63.3281 79.9647 64.1313 79.6899 64.917 79.7868C65.3522 79.82 65.7801 79.9315 66.1702 80.1298C66.1794 80.6831 66.1775 81.2363 66.1702 81.7896C65.8363 81.5987 65.485 81.4392 65.1226 81.3129C64.632 81.158 64.0695 81.4199 63.8178 81.8588C63.4305 82.448 63.4204 83.2558 63.7975 83.8515C64.2079 84.379 65.0332 84.4288 65.5468 84.024C65.8087 83.8017 66.0991 83.5555 66.1895 83.2106C66.2476 82.6408 66.2319 82.0893 66.2292 81.5121C66.2329 81.0694 66.2338 80.6204 66.2292 80.1814C66.2163 79.725 66.2163 79.2648 66.2024 78.8075C64.1949 78.8231 62.1865 78.7798 60.1791 78.8536C60.2058 79.5903 60.2123 80.3299 60.1671 81.0658C60.1385 81.5462 59.979 82.0285 59.6341 82.3743C59.2283 82.7745 58.7037 83.0566 58.1448 83.1664C58.0379 83.1848 57.9346 83.2116 57.8369 83.2567C58.1762 83.6883 58.4713 84.1512 58.7996 84.5911C59.1684 85.0964 59.6166 85.5344 60.0168 86.0148C60.2731 86.3201 60.571 86.5875 60.8541 86.8678V86.9582C60.4677 87.2984 60.0942 87.6562 59.7069 87.9965C59.351 87.9015 59.0946 87.6175 58.8318 87.3777C57.9328 86.4326 57.1738 85.3666 56.4361 84.2932C55.6514 83.1424 54.957 81.9326 54.2876 80.7126C54.7496 80.3677 55.2143 80.0247 55.6818 79.6909C55.9843 80.1759 56.2637 80.6775 56.5486 81.1736C56.6436 81.335 56.7635 81.4853 56.9175 81.5932C57.0816 81.7131 57.2965 81.679 57.4874 81.69C57.7566 81.679 58.0867 81.6568 58.2518 81.4097C58.4464 81.0722 58.4095 80.6683 58.4316 80.2939C58.4491 79.807 58.4261 79.3192 58.4436 78.8324C57.8866 78.7789 57.326 78.8185 56.7672 78.8093C55.5675 78.8185 54.3669 78.8102 53.1672 78.8407C53.1626 80.6084 53.158 82.377 53.1616 84.1448C53.1533 85.3887 53.1792 86.6345 53.1469 87.8775C52.5807 87.9633 51.985 87.9172 51.4068 87.9347C51.4087 86.2703 51.4262 84.604 51.4022 82.9386C50.5852 82.9358 49.77 82.9478 48.9549 82.9423C48.6856 82.803 48.5787 82.5993 48.4754 82.3438C48.3435 82.5356 48.089 82.8704 47.8843 83.0105C47.5652 83.2217 47.1881 83.3075 46.8395 83.4541C47.0673 83.8829 47.378 84.2628 47.651 84.6639C48.2522 85.4708 48.9245 86.2242 49.6631 86.9065C49.3062 87.2496 48.8986 87.5373 48.5279 87.8674C48.4523 87.9568 48.3306 87.9384 48.2282 87.9522C47.6113 87.5917 47.2204 86.972 46.8109 86.4077C45.8925 85.0023 44.8689 83.6652 44.0482 82.1981C43.8149 81.7721 43.553 81.359 43.364 80.9099C43.8601 80.6305 44.3018 80.2653 44.7961 79.9823C45.1078 80.5401 45.3392 81.1487 45.7108 81.6753C45.9192 81.9279 46.2706 81.8855 46.5601 81.8551C46.6588 81.8431 46.8137 81.8118 46.798 81.6799C46.8183 80.9984 46.8063 80.317 46.8248 79.6346C46.8211 79.3681 46.8441 79.097 46.8063 78.8342C46.4107 78.7789 45.9967 78.8167 45.5946 78.8028C44.5111 78.7992 43.4276 78.8139 42.3441 78.7973C42.3404 78.2929 42.3478 77.7867 42.3174 77.2832L42.3552 77.2463ZM48.5916 78.8121C48.5556 79.665 48.5694 80.518 48.5787 81.371C49.5119 81.3756 50.4441 81.371 51.3773 81.3765C51.4271 80.554 51.405 79.7268 51.4078 78.9015C51.4336 78.7945 51.3026 78.8167 51.2436 78.813C50.3593 78.7872 49.4759 78.8065 48.5916 78.8121Z" fill="#406C9D"/>
<path d="M52.8287 37.9381C53.5591 37.395 54.1391 36.673 54.6426 35.9242C54.6555 35.8965 54.7615 35.7011 54.7495 35.7103C54.8251 35.938 54.9524 36.3438 54.9367 36.59C54.9155 36.9957 54.8713 37.4033 54.7744 37.7989C54.6813 38.165 54.7154 38.5569 54.554 38.9055C54.3558 39.5556 54.0266 40.1623 53.6052 40.6916C53.3746 41.0559 53.1201 41.4081 52.8048 41.7032C52.5945 41.8766 52.364 42.025 52.1574 42.2048C51.8937 42.44 51.5396 42.5322 51.2657 42.7544C50.7318 43.091 50.1582 43.364 49.569 43.589C49.0249 43.7789 49.1577 43.6987 48.5593 43.7928C48.3665 43.8057 47.793 43.8767 47.6021 43.896C47.3448 43.908 47.2674 43.9126 46.9824 43.9255L46.6938 43.9283C46.5702 43.9283 46.4319 43.9292 46.313 43.9348C45.5651 43.9089 44.0639 43.9569 42.9555 44.1349C41.1195 44.4087 39.2992 45.1446 37.9667 46.4706C36.5319 47.8428 35.7942 49.8087 35.6153 51.7581C35.5803 52.3787 35.5803 53.0021 35.6098 53.6227C35.7675 55.5702 36.4028 57.5528 37.7565 59.0024C38.6832 60.0296 39.9041 60.7692 41.2145 61.1961C42.3948 61.5705 43.6379 61.707 44.8726 61.7171C45.6979 61.7033 46.5167 61.5761 47.331 61.4516C47.438 61.4147 47.65 61.4433 47.6261 61.2736C47.6722 59.8305 47.6417 58.3846 47.6436 56.9396C47.6353 56.3586 47.6593 55.7768 47.615 55.1977L47.6104 55.1626C46.5776 55.1488 45.5439 55.1571 44.5111 55.1571C44.0943 55.1672 43.6757 55.1368 43.2598 55.1774C43.2469 55.1783 43.221 55.1811 43.2081 55.182C43.2229 54.3226 43.2054 53.4631 43.2054 52.6028C43.1989 51.6235 43.2192 50.6423 43.198 49.663C45.2368 49.6501 47.2766 49.6787 49.3163 49.6667C50.9255 49.6806 52.5364 49.6409 54.1455 49.6815C54.1584 52.8029 54.1418 55.9243 54.1446 59.0448C54.1317 61.1565 54.1806 63.2672 54.1354 65.378C52.8075 65.7459 51.4778 66.1148 50.1204 66.3545C48.5473 66.6644 46.9501 66.847 45.3475 66.9023C44.0085 66.9761 42.6659 66.8931 41.3316 66.7695C38.8068 66.4846 36.2783 65.7893 34.1371 64.3812C32.8194 63.5218 31.6704 62.3995 30.7935 61.091C29.8317 59.6949 29.2056 58.0849 28.8552 56.4315C28.4328 54.3189 28.3987 52.1242 28.8257 50.0098C28.8376 49.9563 28.8542 49.9056 28.8764 49.8558C28.9612 49.6972 28.988 49.5192 28.9926 49.3412C29.1917 48.4338 29.5357 47.5587 29.9248 46.7159L29.9673 46.6993C30.0687 46.679 30.0825 46.5656 30.0807 46.4808C30.0761 46.3932 30.124 46.3166 30.16 46.2419C31.2453 44.2169 32.8775 42.4962 34.8195 41.2763C36.7634 40.0747 38.9608 39.3241 41.2034 38.9304C42.0001 38.8086 42.7978 38.6759 43.6056 38.662C44.7896 38.6307 45.9755 38.6408 47.1595 38.6934C47.6602 38.7542 48.1655 38.7487 48.6681 38.8068C48.5574 38.8169 48.9632 38.792 48.8543 38.8077C49.4205 38.8114 49.4722 38.8142 50.0384 38.8013C50.2993 38.7708 50.7189 38.7533 50.9356 38.7127C51.0813 38.6768 51.1984 38.6454 51.3284 38.6076C51.8596 38.4665 52.3824 38.2637 52.8287 37.9381Z" fill="#1BB99D"/>
<path d="M69.5356 38.4837C70.9935 38.3657 72.4653 38.4764 73.9029 38.7336C76.2312 39.1726 78.4831 40.1795 80.2388 41.7905C81.0374 42.5061 81.7456 43.3212 82.3164 44.2305C83.0974 45.4154 83.6664 46.7322 84.0426 48.0988C84.4105 49.4672 84.6328 50.8799 84.6309 52.2982C84.6466 54.6902 84.2612 57.1099 83.3012 59.3101C82.3994 61.3913 80.9369 63.2347 79.076 64.5339C76.9173 66.0656 74.2985 66.8623 71.675 67.0514C70.1701 67.1067 68.6476 67.0956 67.1667 66.7922C64.7839 66.3044 62.4795 65.2172 60.7459 63.4855C59.1986 62.0073 58.1012 60.0976 57.4401 58.0716C57.0177 56.7622 56.7604 55.3975 56.6839 54.0244C56.6037 53.1502 56.6516 52.2733 56.7309 51.4028C56.9439 48.8946 57.7287 46.4113 59.1423 44.319C60.3189 42.5134 61.9843 41.0417 63.895 40.0541C65.6378 39.1403 67.5835 38.6552 69.5356 38.4837ZM69.8888 43.6532C68.8533 43.7408 67.8574 44.1465 67.0136 44.7487C66.3746 45.2254 65.8296 45.8276 65.4054 46.5035C64.6981 47.6045 64.2611 48.8605 64.0185 50.1422C63.8083 51.4065 63.6497 52.6984 63.8018 53.9792C63.9485 55.5782 64.3062 57.1855 65.0956 58.5973C65.5963 59.5286 66.3322 60.3263 67.1953 60.933C67.9855 61.4808 68.9224 61.786 69.8731 61.892C71.2342 62.0884 72.6515 61.7786 73.8374 61.0907C74.706 60.5586 75.4345 59.808 75.9564 58.9338C76.5208 58.0265 76.8961 57.0121 77.1395 55.9747C77.5001 54.4809 77.5527 52.9289 77.4448 51.4009C77.3378 50.1579 77.0436 48.9278 76.5503 47.7807C76.1446 46.8475 75.5719 45.9816 74.8388 45.2734C74.0384 44.4721 72.9853 43.9437 71.8788 43.7205C71.2231 43.6117 70.5518 43.5933 69.8888 43.6532Z" fill="#C1569C"/>
<path d="M83.2393 38.9057C85.5953 38.8642 87.9513 38.8909 90.3074 38.8955C90.4051 38.9121 90.5637 38.8725 90.6006 38.9988C90.797 39.4516 90.9151 39.932 91.0617 40.4023C91.8381 42.9428 92.6017 45.486 93.3679 48.0302C94.3694 51.3231 95.3644 54.6206 96.1841 57.9652C96.3474 58.6273 96.4442 59.3051 96.6747 59.9487C96.6959 59.9589 96.7365 59.9801 96.7568 59.9902C97.0463 58.69 97.3589 57.3944 97.7176 56.1126C98.3613 53.6413 99.1082 51.2005 99.8828 48.7679C100.895 45.5118 101.914 42.2586 102.952 39.0099C102.974 38.8706 103.126 38.9001 103.23 38.8965C105.476 38.89 107.721 38.8762 109.965 38.8992C110.06 38.878 110.118 38.9629 110.071 39.0477C109.296 41.294 108.505 43.5357 107.712 45.7746C106.034 50.5365 104.352 55.2975 102.676 60.0594C101.898 62.1978 101.173 64.3565 100.375 66.4875C100.348 66.6452 100.167 66.6462 100.042 66.6443C98.5798 66.6581 97.1183 66.6462 95.6558 66.6563C94.7336 66.6545 93.8115 66.6766 92.8903 66.6379C92.7566 66.6102 92.5436 66.6489 92.5085 66.4728C92.1738 65.5341 91.8649 64.587 91.5513 63.6409C89.9266 58.8735 88.3516 54.0876 86.7341 49.3165C85.9485 46.9577 85.1481 44.6035 84.3624 42.2447C83.9917 41.1299 83.6293 40.0132 83.2393 38.9057Z" fill="#F17024"/>
</svg>
