<svg width="294" height="104" viewBox="0 0 294 104" fill="none" xmlns="http://www.w3.org/2000/svg">
<rect width="294" height="104" fill="white"/>
<path d="M224.924 18.5255C225.187 16.2653 228.257 15.2495 229.947 16.6218C230.145 17.1353 230.048 17.7026 230.095 18.2385C229.402 18.03 228.696 17.8708 227.97 17.8909C227.458 18.2833 226.891 18.7923 227.041 19.5144C227.391 20.5682 228.355 21.2275 229.05 22.0414C229.465 22.0593 229.884 22.0705 230.306 22.084C230.295 22.8352 230.315 23.5863 230.248 24.3352C229.81 24.3173 229.378 24.3106 228.947 24.3106C228.954 25.36 228.965 26.4116 228.934 27.461C227.218 27.4161 225.501 27.4453 223.785 27.452C224.279 28.2996 224.898 29.7302 226.131 29.2907C227.106 28.9431 228.167 28.7368 229.194 28.988C229.931 29.3131 230.035 30.2055 230.091 30.9141C230.028 31.8267 229.795 32.7841 229.156 33.4703C228.647 34.0622 227.936 34.4031 227.27 34.7775C228.082 35.4525 229.097 35.8157 229.918 36.4794C229.371 37.0422 228.846 37.6252 228.366 38.2441C226.963 37.3988 225.588 36.4704 224.395 35.3403C223.451 35.217 222.33 35.3403 221.599 34.5937C221.025 34.1676 221.063 33.3918 221.131 32.7572C221.427 32.0599 222.142 31.7617 222.85 31.6742C223.978 31.7886 224.72 32.6518 225.478 33.3739C226.671 33.4479 227.817 31.5756 226.842 30.636C226.142 30.7078 225.539 31.2056 224.817 31.1383C223.131 31.0621 221.909 29.6203 221.211 28.2144C220.736 27.3578 220.947 26.1156 221.924 25.721C223.025 25.5775 224.146 25.6851 225.256 25.6672C225.617 25.6313 226.041 25.7725 226.364 25.5438C226.386 25.1223 226.364 24.7007 226.348 24.2814C223.864 24.3487 221.375 24.2568 218.891 24.324C218.823 27.9767 218.87 31.6361 218.868 35.291C217.931 35.2955 216.996 35.291 216.061 35.3022C216.056 31.6383 216.061 27.9745 216.059 24.3106C215.224 24.2971 214.39 24.2971 213.558 24.333C213.628 27.9857 213.576 31.6428 213.574 35.2977C212.686 35.2977 211.796 35.2977 210.91 35.2888C210.904 33.6362 210.881 31.9837 210.919 30.3333C210.502 30.4073 210.078 30.4477 209.659 30.4455C209.789 31.7235 209.534 33.2079 208.343 33.9277C206.746 34.8358 204.522 34.7932 203.103 33.5532C201.717 32.3716 200.495 30.8535 200.02 29.0777C200.67 28.7817 201.347 28.544 201.984 28.2166C202.663 29.2548 202.995 30.5239 203.917 31.3962C204.531 31.9119 205.327 32.3716 206.159 32.246C207.226 31.8962 207.509 30.3087 206.639 29.6046C206.038 28.9857 205.132 29.1315 204.358 29.1315C204.109 28.6539 203.89 28.1606 203.665 27.674C204.506 27.2345 205.545 27.0888 206.094 26.2255C206.132 25.6246 206.067 25.0012 205.556 24.6088C204.441 24.4788 203.556 25.2075 202.881 25.9968C202.47 25.2546 202.19 24.4518 201.798 23.7029C203.296 22.2925 205.789 21.9181 207.545 23.0639C209.009 24.0258 209.235 26.4318 207.879 27.5753C208.419 27.8758 208.926 28.2749 209.534 28.4386C209.984 28.3713 210.527 28.3332 210.847 27.9655C210.98 26.7659 210.839 25.5506 210.935 24.3465C210.395 24.324 209.859 24.3083 209.323 24.2635C209.329 23.5213 209.329 22.7769 209.35 22.0347C215.166 22.0952 220.987 22.084 226.801 22.0392C225.927 21.0458 224.622 20.0211 224.924 18.5255Z" fill="#2384C5"/>
<path d="M240.73 16.6106C242.463 15.819 244.553 16.0119 246.186 16.9603C247.986 17.9806 249.17 19.8349 249.885 21.7252C249.957 26.2434 249.867 30.7683 249.93 35.2887C248.986 35.3022 248.044 35.3022 247.103 35.2842C247.139 31.6271 247.114 27.9677 247.114 24.3105C246.295 24.3016 245.477 24.306 244.663 24.306C244.634 27.9677 244.638 31.6293 244.661 35.291C243.757 35.2999 242.856 35.2999 241.957 35.2842C241.952 33.5375 241.975 31.7885 241.948 30.0395C242.019 29.4229 241.264 29.7548 240.932 29.7615C240.385 29.0799 239.968 28.3085 239.595 27.5237C240.383 27.5708 241.172 27.5865 241.961 27.5394C241.963 26.4609 241.961 25.3846 241.948 24.3083C240.986 24.3217 240.022 24.25 239.066 24.3307C238.835 25.8487 239.504 27.6044 238.477 28.9206C238.1 29.4835 237.416 29.6942 236.815 29.9162C237.9 31.2033 238.974 32.5016 240.028 33.8155C239.309 34.3627 238.582 34.8986 237.867 35.4502C236.124 32.8334 234.187 30.3467 232.539 27.665C233.18 27.1739 233.851 26.7187 234.515 26.2523C234.795 26.8622 235.171 27.4385 235.761 27.795C235.918 27.656 236.077 27.517 236.241 27.378C236.232 26.3465 236.257 25.3173 236.214 24.2859C235.36 24.3083 234.51 24.3105 233.66 24.3083C233.662 23.5571 233.665 22.8082 233.665 22.0593C235.687 22.0615 237.712 22.1041 239.735 22.0369C238.961 21.0884 238.752 19.8237 238.995 18.6443C239.266 17.7676 239.923 17.0366 240.73 16.6106ZM241.948 18.4694C240.876 19.0883 240.905 20.8036 241.887 21.492C242.916 22.2454 244.242 22.0481 245.437 22.075C246.047 22.0548 246.726 22.2207 247.251 21.8126C246.766 20.77 246.159 19.7228 245.172 19.0815C244.253 18.4627 243.026 17.9043 241.948 18.4694Z" fill="#2384C5"/>
<path d="M131.708 27.2843C137.491 23.2796 144.462 21.0508 151.487 20.8647C155.925 20.7682 160.369 20.8714 164.808 20.8086C164.838 27.5377 164.815 34.269 164.82 40.9981C149.895 41.0317 134.97 41.0115 120.046 41.0025C122.551 35.4664 126.714 30.7217 131.708 27.2843Z" fill="#2384C5"/>
<path d="M15.5985 21.952C19.1884 22.0014 22.7872 21.8354 26.3704 22.0753C31.8281 22.0283 37.2903 22.1336 42.748 22.0215C44.2211 24.2212 45.4701 26.5599 46.8603 28.8111C49.273 32.8831 51.7148 36.9372 54.1073 41.0226C41.2748 41.0069 28.4422 41.0069 15.6097 41.0203C15.585 34.6635 15.6074 28.3089 15.5985 21.952Z" fill="#2384C5"/>
<path d="M61.0928 21.9745C68.499 21.923 75.9075 21.9656 83.316 21.9521C83.2958 28.3157 83.3563 34.6815 83.2846 41.0429C75.9075 40.989 68.5282 40.9958 61.1511 41.0384C61.0591 34.6838 61.169 28.3292 61.0928 21.9745Z" fill="#2384C5"/>
<path d="M89.5936 21.9517C97.3362 21.9517 105.079 21.9495 112.821 21.954C112.772 28.2996 112.817 34.6475 112.799 40.9931C105.068 41.0425 97.3362 40.9864 89.6048 41.0201C89.5801 34.6632 89.6026 28.3086 89.5936 21.9517Z" fill="#2384C5"/>
<path d="M176.926 22.0747C184.18 22.0568 191.434 22.0792 198.688 22.0635C198.679 22.8102 198.67 23.5568 198.676 24.3035C198.149 24.3035 197.625 24.3058 197.102 24.3237C197.118 27.9876 197.118 31.6492 197.102 35.3131C196.208 35.2862 195.313 35.2952 194.42 35.2884C194.418 33.1941 194.434 31.1021 194.409 29.0078C193.364 29.0257 192.319 29.0213 191.277 29.0078C191.306 29.8061 191.326 30.6402 190.911 31.3555C190.526 31.3443 190.064 31.5236 189.757 31.2075C188.844 30.398 187.978 29.5056 187.351 28.454C187.102 28.0817 187.073 27.6109 187.173 27.1826C187.481 26.6557 188.16 26.6624 188.694 26.6489C190.604 26.6579 192.515 26.6669 194.425 26.6422C194.427 25.8641 194.423 25.0861 194.416 24.308C191.427 24.3013 188.44 24.299 185.454 24.3125C185.433 25.8529 185.49 27.3956 185.431 28.9338C185.285 30.0796 184.063 30.5101 183.093 30.7366C182.346 30.0953 181.568 29.4899 180.857 28.8082C181.469 28.8105 182.106 28.8082 182.662 28.5055C182.651 27.1131 182.606 25.7206 182.68 24.3304C181.698 24.2901 180.713 24.3035 179.731 24.3214C179.734 26.2094 179.738 28.0974 179.727 29.9854C181.418 31.5371 183.261 32.9139 184.978 34.4364C185.442 34.8445 185.754 35.4431 185.703 36.0732C185.754 37.1338 184.7 37.793 183.817 38.0868C183.44 38.0756 182.915 38.2146 182.684 37.8312C182.357 37.4141 182.083 36.9589 181.801 36.5105C182.373 36.6383 182.936 36.4589 183.189 35.9051C181.131 34.1314 178.998 32.443 176.915 30.6962C176.951 27.8216 176.928 24.947 176.926 22.0747Z" fill="#2384C5"/>
<path d="M176.707 39.9978C177.778 40.0158 178.848 39.9911 179.92 40.0135C181.678 43.211 183.503 46.3726 185.377 49.5028C185.288 46.3412 185.377 43.1774 185.317 40.0158C186.29 40.0135 187.265 40.0113 188.241 39.9844C188.252 44.7089 188.288 49.4356 188.223 54.16C187.221 54.1219 186.218 54.1107 185.218 54.1533C183.236 50.9334 181.498 47.561 179.453 44.3815C179.604 47.6261 179.435 50.8774 179.523 54.1242C178.581 54.1399 177.637 54.1331 176.695 54.1197C176.731 49.4132 176.707 44.7044 176.707 39.9978Z" fill="#2384C5"/>
<path d="M207.869 40.0131C208.845 40.0019 209.82 40.0019 210.795 40.0041C210.793 40.8629 210.798 41.7239 210.762 42.5827C209.802 42.5782 208.845 42.5805 207.887 42.5782C207.871 41.7239 207.869 40.8696 207.869 40.0131Z" fill="#2384C5"/>
<path d="M247.114 39.9971C248.083 40.0083 249.051 40.006 250.022 39.9993C250.042 44.7103 250.016 49.4214 250.038 54.1324C249.058 54.1324 248.078 54.1369 247.101 54.1167C247.148 49.4101 247.112 44.7036 247.114 39.9971Z" fill="#2384C5"/>
<path d="M201.591 40.91C202.522 40.9123 203.452 40.9078 204.385 40.8809C204.405 41.8585 204.398 42.8339 204.398 43.8115C204.952 43.816 205.508 43.8048 206.067 43.7981C206.087 44.482 206.089 45.1659 206.071 45.8497C205.511 45.8385 204.952 45.8273 204.394 45.8408C204.425 47.8207 204.351 49.8029 204.43 51.7806C204.744 52.3299 205.551 52.0586 206.078 52.1191C206.069 52.8255 206.082 53.5318 206.082 54.2381C204.867 54.1664 203.58 54.4601 202.434 53.9444C201.871 53.6865 201.609 53.0183 201.587 52.4353C201.596 50.2334 201.611 48.0315 201.584 45.8296C201.107 45.8273 200.634 45.8273 200.161 45.8251C200.111 45.1546 200.116 44.4842 200.167 43.816C200.643 43.816 201.123 43.8182 201.602 43.8115C201.605 42.8451 201.6 41.8764 201.591 40.91Z" fill="#2384C5"/>
<path d="M216.612 43.3834C218.173 43.2287 219.891 43.4282 221.13 44.4731C223.335 46.5719 223.532 50.3456 221.72 52.7471C220.678 54.1261 218.839 54.597 217.184 54.4692C215.722 54.4983 214.184 53.9221 213.321 52.7023C211.767 50.5968 211.733 47.5002 213.209 45.3409C213.966 44.1973 215.271 43.5381 216.612 43.3834ZM216.076 46.2086C215.276 46.8791 215.173 47.9845 215.031 48.9465C215.179 49.7223 215.195 50.5721 215.697 51.2291C216.455 52.3256 218.198 52.4242 219.124 51.4847C219.79 50.7919 219.933 49.7851 219.985 48.8635C219.911 47.776 219.651 46.4037 218.498 45.9642C217.72 45.5584 216.778 45.7378 216.076 46.2086Z" fill="#2384C5"/>
<path d="M192.687 43.6677C194.297 43.3112 196.05 43.3605 197.591 43.9973C198.535 44.383 199.129 45.3965 199.122 46.4033C199.145 48.4931 199.113 50.5851 199.127 52.6772C199.12 53.2265 199.595 53.61 199.817 54.0763C198.73 54.1234 197.618 54.2311 196.543 54.0405C196.4 53.7153 196.458 53.3566 196.434 53.0135C195.541 53.823 194.438 54.5539 193.178 54.4777C191.736 54.5831 190.153 53.7288 189.85 52.2354C189.799 51.3139 189.682 50.2891 190.238 49.4864C190.873 48.4191 192.167 48.1141 193.299 47.8966C194.223 47.7128 195.272 47.8383 196.082 47.2733C196.6 46.8315 196.2 46.04 195.629 45.8853C194.938 45.6633 194.122 45.5871 193.49 45.9974C193.077 46.253 192.989 46.7643 192.812 47.1769C191.913 47.1679 191.016 47.1903 190.119 47.1567C190.086 45.5804 191.108 44.0265 192.687 43.6677ZM193.252 50.0447C192.826 50.2331 192.725 50.7331 192.541 51.1143C192.633 51.3991 192.72 51.6861 192.808 51.9753C193.64 52.565 194.884 52.4372 195.626 51.7466C196.357 51.1322 196.286 50.0582 196.344 49.1927C195.362 49.6478 194.232 49.594 193.252 50.0447Z" fill="#2384C5"/>
<path d="M227.382 44.8609C227.981 44.2644 228.624 43.6388 229.501 43.5088C230.548 43.4281 231.685 43.372 232.613 43.955C233.602 44.4393 234.093 45.5582 234.113 46.6166C234.113 49.119 234.086 51.6213 234.118 54.1237C233.142 54.1372 232.167 54.1327 231.194 54.1215C231.18 51.8007 231.228 49.48 231.174 47.1614C231.122 45.6681 228.99 45.4147 228.129 46.3587C227.443 47 227.46 47.9911 227.386 48.8544C227.371 50.6123 227.375 52.368 227.389 54.126C226.451 54.1304 225.516 54.126 224.581 54.1372C224.584 50.6504 224.568 47.1659 224.59 43.6814C225.523 43.7039 226.456 43.6971 227.389 43.7196C227.382 44.0985 227.375 44.4797 227.382 44.8609Z" fill="#2384C5"/>
<path d="M238.12 43.8203C239.68 43.2911 241.443 43.3382 243.01 43.8337C244.048 44.114 244.954 45.0266 244.972 46.1433C245.008 48.2488 244.966 50.3543 244.986 52.4598C244.963 53.0741 245.414 53.5473 245.665 54.0697C244.64 54.1841 243.609 54.1123 242.584 54.1392C242.517 54.0518 242.387 53.8769 242.32 53.7894C242.32 53.5899 242.32 53.1907 242.32 52.9912C241.378 53.9464 240.071 54.6236 238.701 54.4711C237.308 54.4599 235.835 53.4396 235.7 51.9844C235.624 51.1166 235.635 50.1771 236.151 49.4327C236.627 48.5918 237.613 48.2757 238.49 48.038C239.559 47.742 240.721 47.8586 241.757 47.4326C242.302 47.1456 242.284 46.3585 241.802 46.0244C241.03 45.5782 240.006 45.5849 239.25 46.0581C238.958 46.372 238.826 46.7958 238.636 47.1702C237.741 47.1635 236.846 47.177 235.956 47.168C236.012 45.7666 236.739 44.318 238.12 43.8203ZM239.189 50.0112C238.407 50.3318 238.257 51.5113 238.853 52.0696C239.746 52.6279 240.97 52.323 241.696 51.6189C242.201 50.9372 242.216 50.0515 242.203 49.2398C241.219 49.5807 240.147 49.5986 239.189 50.0112Z" fill="#2384C5"/>
<path d="M15.6191 43.5586C22.1868 43.6416 28.7566 43.5698 35.3243 43.5945C42.1296 43.5765 48.9371 43.6281 55.7447 43.5676C57.2493 45.9287 58.6798 48.3369 60.1463 50.7204C60.6149 51.4738 61.023 52.2698 61.6172 52.9358C61.4647 49.8235 61.2248 46.718 61.088 43.6057C68.492 43.5631 75.8983 43.6326 83.3023 43.572C83.3336 46.8615 83.3067 50.1531 83.3157 53.4425C60.7427 53.4582 38.1697 53.4672 15.5967 53.4381C15.6169 50.1442 15.5721 46.8525 15.6191 43.5586Z" fill="#2384C5"/>
<path d="M89.6142 43.5605C97.3411 43.6368 105.07 43.5785 112.797 43.5875C112.795 46.8836 112.824 50.1797 112.784 53.4737C105.052 53.4154 97.3209 53.4893 89.5918 53.4378C89.612 50.1439 89.5694 46.8522 89.6142 43.5605Z" fill="#2384C5"/>
<path d="M118.517 44.8211C118.707 44.3659 118.676 43.4735 119.389 43.6013C127.959 43.6013 136.529 43.5654 145.097 43.617C143.168 45.404 141.507 47.5903 140.892 50.1913C140.531 51.2474 140.511 52.3663 140.343 53.4583C132.542 53.4426 124.741 53.465 116.94 53.4471C117.169 50.5277 117.62 47.6172 118.517 44.8211Z" fill="#2384C5"/>
<path d="M207.869 43.6973C208.84 43.7018 209.813 43.6995 210.789 43.713C210.784 47.184 210.777 50.6551 210.795 54.1261C209.82 54.1373 208.847 54.1328 207.874 54.1194C207.874 50.6461 207.885 47.1728 207.869 43.6973Z" fill="#2384C5"/>
<path d="M15.5988 56.0342C38.0126 56.0342 60.4264 56.0342 82.8424 56.0342C83.0196 57.6688 83.042 59.3169 83.181 60.956C83.1653 61.9852 83.4164 63.0009 83.2774 64.0301C69.7296 63.936 56.175 64.066 42.6294 63.9651C41.1226 61.6331 39.7997 59.1734 38.3467 56.8078C38.2816 56.7719 38.1494 56.6979 38.0843 56.662C38.3982 59.0994 38.4095 61.5681 38.7032 64.01C31.0099 63.9987 23.3167 63.9763 15.6234 64.0212C15.5674 61.3596 15.6167 58.6958 15.5988 56.0342Z" fill="#2384C5"/>
<path d="M89.5937 56.0342C97.3363 56.0364 105.079 56.0319 112.821 56.0364C112.779 58.6868 112.799 61.3394 112.815 63.9898C105.081 64.0234 97.3453 63.9696 89.6117 64.0167C89.5713 61.3551 89.6072 58.6958 89.5937 56.0342Z" fill="#2384C5"/>
<path d="M117.021 56.0475C124.896 56.0295 132.769 56.0183 140.642 56.0519C140.973 58.1664 141.891 60.1732 143.211 61.8527C143.801 62.633 144.57 63.2519 145.218 63.9829C136.276 64.0412 127.331 63.9425 118.392 64.0344C117.56 61.4513 117.158 58.7516 117.021 56.0475Z" fill="#2384C5"/>
<path d="M194.661 57.0589C195.73 56.0969 197.264 56.3682 198.578 56.4041C198.567 57.1889 198.569 57.976 198.556 58.7607C198.266 58.698 197.982 58.6307 197.699 58.5612C197.434 58.7338 196.883 58.7338 196.914 59.1599C196.874 59.485 196.872 59.8101 196.903 60.1353C197.484 60.2563 198.087 60.1667 198.681 60.1824C198.679 60.855 198.672 61.5277 198.683 62.2026C198.085 62.2004 197.486 62.1982 196.892 62.2004C196.885 65.0077 196.885 67.8151 196.885 70.6224C195.916 70.6224 194.948 70.6112 193.981 70.6246C193.959 67.8151 193.993 65.0055 193.959 62.1959C193.475 62.1982 192.992 62.2004 192.513 62.2049C192.504 61.5367 192.499 60.8707 192.49 60.2025C192.979 60.1891 193.47 60.1846 193.963 60.1801C193.97 59.1218 193.919 57.9064 194.661 57.0589Z" fill="#2384C5"/>
<path d="M176.511 56.4805C177.505 56.485 178.5 56.4805 179.498 56.485C179.505 61.1982 179.541 65.9115 179.484 70.6248C178.487 70.6225 177.489 70.6113 176.491 70.627C176.493 65.9115 176.453 61.1937 176.511 56.4805Z" fill="#2384C5"/>
<path d="M253.832 56.3685C254.772 56.3663 255.713 56.3752 256.657 56.3775C256.653 57.234 256.655 58.0906 256.637 58.9471C255.702 58.9516 254.767 58.9494 253.834 58.9494C253.854 58.0883 253.848 57.2296 253.832 56.3685Z" fill="#2384C5"/>
<path d="M247.482 57.252C248.403 57.2609 249.327 57.2676 250.253 57.2699C250.249 58.243 250.242 59.2184 250.264 60.1916C250.816 60.1893 251.37 60.1759 251.926 60.1714C251.935 60.8486 251.935 61.5257 251.93 62.2029C251.37 62.2096 250.812 62.1984 250.258 62.1939C250.28 64.2434 250.188 66.2973 250.3 68.3467C250.825 68.5284 251.377 68.6225 251.937 68.5441C251.933 69.2616 251.935 69.9814 251.926 70.7011C250.605 70.6899 249.083 70.968 247.968 70.0845C247.266 69.4141 247.486 68.34 247.448 67.47C247.459 65.7233 247.439 63.9743 247.459 62.2276C246.973 62.1962 246.486 62.1917 246.004 62.185C245.988 61.5212 245.984 60.8553 245.993 60.1916C246.457 60.1243 247.02 60.362 247.432 60.0683C247.484 59.1287 247.417 58.1892 247.482 57.252Z" fill="#2384C5"/>
<path d="M185.884 60.1804C187.263 59.6221 188.958 59.7275 190.185 60.6065C191.005 61.1894 191.301 62.2433 191.283 63.2075C191.272 65.6852 191.294 68.1652 191.272 70.6429C190.303 70.5891 189.335 70.5913 188.366 70.6205C188.359 68.2347 188.404 65.8467 188.35 63.4631C188.128 61.8845 185.646 61.8106 185.025 63.1335C184.814 63.5775 184.66 64.0573 184.666 64.5529C184.644 66.5844 184.707 68.6136 184.635 70.6429C183.68 70.6003 182.727 70.598 181.774 70.5958C181.715 67.0934 181.785 63.5909 181.733 60.0885C182.682 60.0616 183.633 60.0638 184.581 60.084C184.561 60.5011 184.527 60.9181 184.498 61.3352C184.969 60.9652 185.368 60.4966 185.884 60.1804Z" fill="#2384C5"/>
<path d="M202.925 59.9538C204.484 59.5794 206.192 59.6915 207.618 60.4516C208.937 61.2947 209.744 62.7768 209.973 64.3016C210.134 65.9855 209.93 67.8287 208.809 69.1741C207.818 70.5575 206.004 70.9724 204.394 70.9544C203.098 70.8199 201.679 70.562 200.773 69.5351C199.01 67.591 198.739 64.4899 200.024 62.223C200.605 61.0906 201.676 60.2274 202.925 59.9538ZM204.067 62.2252C203.34 62.371 202.777 62.9405 202.513 63.6132C202.042 64.833 202.053 66.2658 202.661 67.434C203.304 68.6628 205.069 68.8041 206.123 68.0507C206.834 67.3959 206.995 66.3824 207.076 65.4653C207.051 64.5124 206.912 63.445 206.168 62.7656C205.643 62.1938 204.793 62.0683 204.067 62.2252Z" fill="#2384C5"/>
<path d="M215.485 60.3891C216.157 59.8958 217.02 59.851 217.821 59.7949C217.87 60.7838 217.85 61.7726 217.852 62.7615C216.969 62.7951 215.908 62.544 215.236 63.2794C214.529 63.8579 214.538 64.8356 214.489 65.6674C214.469 67.32 214.502 68.9748 214.46 70.6296C213.534 70.6296 212.61 70.6139 211.686 70.6139C211.679 67.1047 211.733 63.5911 211.659 60.0819C212.552 60.0662 213.446 60.0707 214.343 60.0662C214.368 60.5887 214.377 61.1134 214.406 61.6381C214.738 61.2008 215.054 60.7389 215.485 60.3891Z" fill="#2384C5"/>
<path d="M223.438 60.0949C224.922 59.494 226.862 59.929 227.633 61.4223C228.586 60.2003 230.223 59.5209 231.743 59.9895C233.059 60.2406 234.039 61.4739 234.122 62.7856C234.1 65.3956 234.1 68.0079 234.111 70.6201C233.14 70.6269 232.169 70.6112 231.201 70.5977C231.192 68.2814 231.196 65.9652 231.198 63.6489C231.248 62.8843 230.503 62.1802 229.739 62.3013C228.732 62.1869 228.043 63.2004 228.046 64.1108C228.059 66.2701 228.057 68.4294 228.055 70.5887C227.081 70.6291 226.108 70.6224 225.137 70.6022C225.16 68.5102 225.128 66.4159 225.155 64.3238C225.14 63.8036 225.184 63.187 224.776 62.7946C223.985 61.79 222 62.3529 222.007 63.6825C221.987 65.9943 222.003 68.3083 221.998 70.6224C221.03 70.6224 220.061 70.6134 219.094 70.6201C219.115 67.102 219.025 63.5794 219.119 60.0635C220.007 60.1083 220.911 59.985 221.792 60.1397C221.801 60.5523 221.763 60.9649 221.763 61.3775C222.285 60.9088 222.716 60.272 223.438 60.0949Z" fill="#2384C5"/>
<path d="M237.048 60.8912C238.382 59.8194 240.223 59.6938 241.856 59.9472C242.851 60.1602 244.004 60.4338 244.578 61.3621C245.152 62.2433 244.952 63.333 244.981 64.3241C244.999 65.9049 244.934 67.488 245.015 69.0665C245.029 69.6338 245.446 70.0621 245.697 70.5397C244.638 70.6474 243.567 70.6608 242.508 70.5756C242.304 70.2841 242.385 69.8872 242.313 69.5598C241.535 70.0531 240.784 70.6832 239.84 70.8066C238.86 70.8738 237.782 70.9545 236.941 70.3469C235.607 69.5733 235.407 67.7571 235.873 66.4162C236.293 65.2479 237.506 64.6022 238.672 64.4071C239.741 64.1649 240.943 64.3264 241.91 63.721C242.502 63.3106 242.071 62.3464 241.436 62.2635C240.779 62.1491 240.066 62.1043 239.434 62.3464C239.001 62.5931 238.876 63.0976 238.699 63.5236C237.788 63.5483 236.878 63.564 235.97 63.5147C235.992 63.2254 236.021 62.9384 236.053 62.6514C236.297 62.0258 236.501 61.3307 237.048 60.8912ZM239.544 66.2727C238.696 66.4969 238.113 67.5597 238.712 68.3154C239.427 69.1742 240.714 68.8132 241.481 68.219C242.262 67.6023 242.161 66.5036 242.228 65.6157C241.371 65.9857 240.439 66.0619 239.544 66.2727Z" fill="#2384C5"/>
<path d="M260.859 60.2655C262.601 59.5883 264.711 59.6892 266.306 60.7027C267.366 61.4068 267.689 62.7118 267.837 63.898C266.866 63.8823 265.893 63.8935 264.924 63.8666C264.772 63.2343 264.458 62.5392 263.778 62.3418C263.207 62.2835 262.554 62.1983 262.072 62.5818C261.238 63.1737 261.045 64.2724 261.012 65.2277C261 66.1784 261.088 67.2322 261.738 67.9834C262.254 68.5866 263.142 68.5238 263.857 68.4363C264.561 68.1493 264.761 67.3466 264.915 66.6807C265.866 66.6851 266.819 66.6784 267.772 66.6963C267.736 68.2458 266.75 69.6517 265.438 70.4163C263.926 71.1271 262.126 71.0867 260.592 70.4656C258.361 69.4386 257.877 66.6537 258.119 64.4496C258.283 62.7342 259.184 60.9359 260.859 60.2655Z" fill="#2384C5"/>
<path d="M271.151 60.2143C272.223 59.6941 273.456 59.8376 274.611 59.869C275.698 60.0327 276.885 60.4386 277.521 61.3982C277.916 61.9588 277.988 62.6584 278.118 63.3131C277.228 63.3266 276.335 63.2818 275.449 63.3715C275.158 62.8938 274.923 62.2884 274.324 62.1315C273.514 61.8512 272.25 61.8445 271.866 62.775C271.862 63.0665 271.99 63.367 272.286 63.4768C274.012 64.1832 276.12 64.0688 277.58 65.3716C278.97 66.7147 278.517 69.2664 276.86 70.1969C275.102 71.1387 272.952 71.123 271.075 70.5602C269.64 70.1185 268.646 68.6363 268.734 67.1452C269.642 67.1183 270.557 67.1856 271.463 67.069C271.647 67.4569 271.774 67.8784 272.03 68.2327C272.855 68.8471 274.012 68.8561 274.958 68.5399C275.539 68.3246 275.732 67.4681 275.106 67.1766C273.436 66.4209 271.449 66.477 269.911 65.4052C269.214 64.9097 269.019 64.0105 269.088 63.2033C269.01 61.8826 269.983 60.7144 271.151 60.2143Z" fill="#2384C5"/>
<path d="M253.825 60.0706C254.767 60.0706 255.711 60.0638 256.655 60.0818C256.603 63.5977 256.691 67.1136 256.615 70.6295C255.691 70.6295 254.767 70.6138 253.845 70.6138C253.834 67.1001 253.877 63.5842 253.825 60.0706Z" fill="#2384C5"/>
<path d="M15.6102 66.5527C23.3393 66.6043 31.0706 66.5281 38.802 66.5953C38.82 68.3084 38.7392 70.0238 38.941 71.7302C31.1603 71.7302 23.3796 71.7302 15.5989 71.7302C15.6034 70.0036 15.59 68.277 15.6102 66.5527Z" fill="#2384C5"/>
<path d="M44.3984 66.5598C57.3633 66.5642 70.3281 66.5979 83.293 66.5508C83.3401 68.2773 83.3042 70.0039 83.3154 71.7304C71.6511 71.7327 59.9867 71.726 48.3224 71.7327C47.5892 71.8784 47.3762 71.0465 47.0174 70.5959C46.1452 69.2505 45.2527 67.9163 44.3984 66.5598Z" fill="#2384C5"/>
<path d="M89.6053 66.5527C97.3344 66.6133 105.066 66.5213 112.795 66.5931C112.815 68.304 112.786 70.0148 112.804 71.7257C105.068 71.7369 97.3322 71.7279 89.5941 71.7302C89.5985 70.0036 89.5851 68.277 89.6053 66.5527Z" fill="#2384C5"/>
<path d="M119.279 66.5615C134.46 66.5996 149.637 66.5256 164.815 66.5929C164.836 68.3038 164.806 70.0146 164.824 71.7255C150.474 71.7345 136.121 71.7322 121.77 71.7255C120.883 70.0348 119.842 68.4024 119.279 66.5615Z" fill="#2384C5"/>
<path d="M180.211 73.5641C181.818 73.0148 183.608 73.0775 185.206 73.6314C187.157 74.3018 188.568 76.2414 188.671 78.2931C187.662 78.1585 186.628 78.329 185.632 78.1922C185.314 77.5509 185.144 76.7818 184.505 76.3647C183.3 75.5867 181.457 75.5911 180.475 76.7347C179.482 77.7818 179.249 79.3178 179.276 80.708C179.246 82.0265 179.48 83.4907 180.482 84.4392C181.484 85.5042 183.291 85.632 184.448 84.7419C185.132 84.2979 185.267 83.4324 185.635 82.7642C186.61 82.6027 187.628 82.7664 188.619 82.7328C188.408 84.6006 187.314 86.3899 185.639 87.2824C183.834 88.2443 181.599 88.186 179.735 87.4214C178.056 86.7128 176.912 85.1006 176.441 83.3808C175.984 81.282 175.95 79.0106 176.746 76.9881C177.354 75.4275 178.621 74.1247 180.211 73.5641Z" fill="#2384C5"/>
<path d="M213.359 74.3263C214.294 74.2815 215.231 74.3084 216.171 74.3129C216.166 75.2815 216.164 76.2524 216.173 77.2234C216.727 77.2323 217.283 77.2189 217.839 77.2077C217.859 77.896 217.859 78.5889 217.814 79.2773C217.269 79.2526 216.729 79.2324 216.189 79.2167C216.148 80.9052 216.184 82.5981 216.157 84.2888C216.168 84.6632 216.117 85.0668 216.292 85.4166C216.803 85.5512 217.337 85.513 217.861 85.5534C217.852 86.2463 217.852 86.9391 217.834 87.632C216.612 87.7867 215.278 87.9056 214.146 87.3181C213.543 87.0019 213.368 86.2844 213.37 85.6566C213.361 83.6968 213.375 81.7348 213.37 79.7751C213.547 78.8871 212.41 79.3311 211.924 79.2302C211.908 78.5642 211.904 77.9005 211.906 77.2368C212.374 77.1718 212.928 77.3893 213.35 77.1135C213.401 76.1852 213.357 75.2546 213.359 74.3263Z" fill="#2384C5"/>
<path d="M15.5986 74.4209C23.4062 74.4231 31.2161 74.4187 39.0237 74.4231C39.0282 75.6183 39.0596 76.8157 38.9968 78.0108C31.1982 78.0041 23.3995 78.0108 15.5986 78.0085C15.5986 76.8112 15.5986 75.616 15.5986 74.4209Z" fill="#2384C5"/>
<path d="M49.5039 74.5177C50.3739 74.3652 51.2618 74.428 52.1408 74.4213C62.5338 74.4213 72.9245 74.4213 83.3152 74.4213C83.3152 75.6164 83.3152 76.8138 83.3152 78.0089C72.8393 78.0179 62.3656 77.9932 51.8897 78.0202C51.0533 76.8811 50.3829 75.6276 49.5039 74.5177Z" fill="#2384C5"/>
<path d="M89.5938 74.4215C97.3363 74.4215 105.079 74.4192 112.821 74.4237C112.781 75.6166 112.797 76.8095 112.804 78.0046C105.068 78.0158 97.3318 78.0069 89.5938 78.0091C89.5938 76.8117 89.5938 75.6166 89.5938 74.4215Z" fill="#2384C5"/>
<path d="M123.647 74.5169C124.401 74.3846 125.168 74.4138 125.93 74.4205C138.902 74.4227 151.871 74.4183 164.843 74.4228C164.802 75.6156 164.818 76.8085 164.825 78.0037C152.14 78.0216 139.456 77.9925 126.773 78.0171C125.607 76.9655 124.704 75.6695 123.647 74.5169Z" fill="#2384C5"/>
<path d="M190.227 79.5494C190.992 77.7331 193.052 76.7062 194.969 76.8743C196.505 76.7936 198.127 77.3766 199.059 78.6435C200.044 79.9193 200.219 81.6055 200.138 83.1662C197.597 83.146 195.057 83.2065 192.519 83.1437C192.577 84.0451 192.965 85.0497 193.889 85.3703C195.026 85.978 196.561 85.5475 197.167 84.3949C198.131 84.4039 199.095 84.3882 200.059 84.4308C199.683 86.0251 198.367 87.3233 196.783 87.709C194.922 88.2046 192.788 87.9086 191.267 86.6798C190.274 85.895 189.794 84.6169 189.718 83.3814C189.705 82.0944 189.61 80.7311 190.227 79.5494ZM193.768 79.4507C193.068 79.7848 192.788 80.5606 192.568 81.249C194.108 81.2737 195.653 81.3006 197.196 81.2244C197.104 79.5875 195.133 78.722 193.768 79.4507Z" fill="#2384C5"/>
<path d="M205.071 77.3336C206.457 76.6161 208.244 76.7148 209.547 77.5713C210.491 78.1969 210.733 79.4145 210.793 80.4683C210.787 82.825 210.789 85.1839 210.782 87.5405C209.813 87.527 208.845 87.5293 207.876 87.5405C207.874 85.5606 207.874 83.5806 207.878 81.6007C207.881 81.0424 207.849 80.4594 207.594 79.9526C207.324 79.4526 206.721 79.3405 206.239 79.1544C205.64 79.3181 204.905 79.3876 204.557 79.9773C204.237 80.5266 204.037 81.1612 204.055 81.8025C204.06 83.7129 204.064 85.6256 204.055 87.5382C203.12 87.5293 202.187 87.5539 201.257 87.5203C201.264 84.0493 201.257 80.5805 201.259 77.1117C202.149 77.1117 203.039 77.1117 203.932 77.1117C203.95 77.5399 203.972 77.9682 204.017 78.3965C204.378 78.0534 204.652 77.6117 205.071 77.3336Z" fill="#2384C5"/>
<path d="M223.519 77.1878C224.106 76.8537 224.795 76.8851 225.449 76.8447C225.492 77.8448 225.476 78.8448 225.472 79.8449C225.174 79.7821 224.88 79.7148 224.588 79.6431C223.656 79.7754 222.595 80.1588 222.306 81.1611C221.916 83.2621 222.198 85.4125 222.122 87.5359C221.182 87.5314 220.245 87.5292 219.31 87.5449C219.297 84.0716 219.368 80.5961 219.276 77.125C220.171 77.1071 221.068 77.1116 221.965 77.1071C221.99 77.634 222.005 78.1632 222.05 78.6901C222.451 78.1161 222.857 77.486 223.519 77.1878Z" fill="#2384C5"/>
<path d="M227.122 78.5514C228.127 77.3294 229.759 76.7486 231.315 76.8742C232.999 76.7957 234.766 77.5873 235.618 79.0851C236.452 80.2757 236.374 81.7826 236.354 83.166C233.824 83.1772 231.295 83.1346 228.768 83.2042C228.86 84.11 229.315 85.0428 230.203 85.3971C231.304 85.9577 232.824 85.5698 233.389 84.4307C234.358 84.3948 235.329 84.3881 236.3 84.4083C236.006 86.0653 234.598 87.3613 232.988 87.7313C231.403 88.1035 229.647 87.9869 228.221 87.1461C226.943 86.4913 226.187 85.1101 226.017 83.7221C225.759 81.953 225.945 79.9753 227.122 78.5514ZM228.846 81.2646C230.38 81.2668 231.914 81.2713 233.448 81.2556C233.439 79.9349 232.116 79.0425 230.878 79.2151C229.75 79.2331 229.064 80.2645 228.846 81.2646Z" fill="#2384C5"/>
<path d="M15.6209 80.5783C23.4442 80.5828 31.2675 80.6052 39.0886 80.5693C39.2837 81.4573 39.2635 82.3676 39.2702 83.2713C31.3864 83.3139 23.5025 83.2489 15.6209 83.3027C15.5873 82.3945 15.5873 81.4864 15.6209 80.5783Z" fill="#2384C5"/>
<path d="M53.5879 80.5762C63.4988 80.6188 73.4119 80.5358 83.3227 80.6188C83.3138 81.5157 83.3339 82.4148 83.2801 83.3117C74.1697 83.2445 65.0571 83.3028 55.9445 83.2826C55.6934 83.2512 55.3481 83.3544 55.1956 83.0853C54.6216 82.2736 54.1148 81.417 53.5879 80.5762Z" fill="#2384C5"/>
<path d="M89.614 80.5804C97.3409 80.5871 105.068 80.5938 112.792 80.5781C112.813 81.4795 112.799 82.3832 112.808 83.2846C105.079 83.298 97.3498 83.2532 89.6229 83.307C89.5781 82.3989 89.5826 81.4885 89.614 80.5804Z" fill="#2384C5"/>
<path d="M129.713 80.6477C133.155 80.5042 136.606 80.6252 140.05 80.5849C148.306 80.5826 156.562 80.5916 164.818 80.5804C164.831 81.4818 164.82 82.3832 164.829 83.2868C154.542 83.2801 144.256 83.2868 133.969 83.2823C133.628 83.2958 133.283 83.2353 133.014 83.0133C131.904 82.2374 130.735 81.5446 129.713 80.6477Z" fill="#2384C5"/>
<path d="M138.908 85.8145C147.539 85.9221 156.176 85.81 164.811 85.8728C164.811 86.3862 164.824 86.902 164.829 87.4177C157.833 87.4334 150.837 87.4311 143.841 87.4199C142.13 87.18 140.415 86.662 138.908 85.8145Z" fill="#2384C5"/>
<path d="M15.612 85.8343C23.5227 85.9015 31.4335 85.8746 39.342 85.832C39.3644 86.433 39.4025 87.0406 39.3218 87.6415C31.42 87.6707 23.5137 87.6371 15.6097 87.6595C15.5985 87.0496 15.5985 86.4419 15.612 85.8343Z" fill="#2384C5"/>
<path d="M57.0742 85.8903C65.8101 85.8141 74.5528 85.9329 83.2909 85.832C83.3133 86.4352 83.3515 87.0429 83.2707 87.6438C74.9766 87.6595 66.6779 87.655 58.3815 87.646C57.7895 87.2402 57.5137 86.4599 57.0742 85.8903Z" fill="#2384C5"/>
<path d="M89.5918 85.8766C97.3277 85.8677 105.064 85.8542 112.799 85.8811C112.802 86.4798 112.804 87.0763 112.797 87.675C105.068 87.6279 97.3366 87.657 89.6075 87.6593C89.5963 87.0651 89.5918 86.4709 89.5918 85.8766Z" fill="#2384C5"/>
</svg>
