<svg width="59" height="59" viewBox="0 0 59 59" fill="none" xmlns="http://www.w3.org/2000/svg">
<rect x="0.5" y="0.5" width="58" height="58" rx="12" fill="#F5F6F7"/>
<path d="M46.8904 31.7144C46.5596 30.365 45.6932 29.4811 44.3848 29.1584C43.0301 28.8242 41.8056 29.2057 40.746 30.2914C39.5163 31.5515 38.252 32.8201 37.0286 34.0476C36.3103 34.7676 35.5699 35.5106 34.8401 36.2484C34.5692 35.8217 34.2363 35.4717 33.8477 35.2037C33.8246 35.1879 33.8005 35.1711 33.7763 35.1554C33.7889 35.1438 33.8015 35.1333 33.8141 35.1228L33.8509 35.0923C35.8125 33.4191 36.702 31.2573 36.4216 28.841C36.1034 26.1001 34.5702 24.0601 31.9858 22.9397C31.8955 21.955 31.6235 21.0648 31.1772 20.2923C31.1846 20.2849 31.194 20.2755 31.2045 20.266C31.8336 19.7058 32.4573 19.1225 33.0601 18.5592L33.2355 18.3942C33.4728 18.1725 33.7847 17.8235 33.7469 17.36C33.708 16.8966 33.3468 16.6044 33.0769 16.4257C32.7692 16.2197 32.4626 16.0137 32.1549 15.8067C31.277 15.216 30.3697 14.6054 29.4529 14.0347C29.2124 13.8844 29.2166 13.8697 29.2933 13.6227C29.3952 13.2959 29.4981 12.8166 29.2177 12.4341C28.9331 12.0462 28.4217 12.0011 28.0615 12.0011C26.7383 12 25.4151 12 24.0909 12H22.4737C21.8783 12 21.3165 12 21.0098 12.3941C20.7053 12.7851 20.8345 13.3148 20.9762 13.876C19.8137 14.6369 18.6407 15.4199 17.5055 16.1777L17.1149 16.4383C16.9637 16.5392 16.5037 16.8461 16.4617 17.359C16.4197 17.8719 16.8251 18.2502 16.9584 18.3742L17.0151 18.4289C17.6715 19.0416 18.3499 19.6754 19.0314 20.2881C18.5788 21.09 18.3141 21.9571 18.2459 22.8693C18.2438 22.8987 18.2406 22.9166 18.2375 22.9261C18.2259 22.9345 18.1976 22.9534 18.1325 22.9828C15.4221 24.2219 13.9162 26.388 13.7776 29.2467C13.6421 32.0087 14.8781 34.2641 17.3543 35.7828C16.4512 36.3493 15.7109 37.0839 14.9894 37.7997C14.8225 37.9657 14.6555 38.1307 14.4875 38.2947C14.4591 38.2968 14.414 38.2968 14.3783 38.2968C14.2617 38.2968 14.1462 38.2968 14.0307 38.2957C13.7125 38.2947 13.3838 38.2936 13.0561 38.3041C12.5458 38.3199 12.1551 38.6299 12.0365 39.1155C11.9619 39.4182 12.0029 39.7251 12.1488 39.9573C12.2685 40.1486 12.4555 40.28 12.6728 40.3262C13.5759 40.5186 14.4728 40.5154 15.3391 40.3147C15.5649 40.2621 15.7046 40.1097 15.7875 40.0172C15.8001 40.0046 15.8117 39.991 15.8232 39.9794L16.1456 39.6683C16.53 39.2973 16.9269 38.9137 17.3144 38.5322C18.4916 37.3719 19.8473 36.7718 21.3448 36.7476C24.6937 36.693 28.1024 36.7119 31.3988 36.7297L31.9228 36.7329C32.2641 36.735 32.5834 36.8706 32.8238 37.1165C33.079 37.3772 33.2218 37.7408 33.2155 38.1149C33.2029 38.9011 32.596 39.4318 31.7033 39.435C30.2269 39.4402 28.7252 39.4402 27.2718 39.4392C26.3319 39.4392 25.391 39.4381 24.4501 39.4392C23.6173 39.4392 23.2424 39.9741 23.2403 40.5017C23.2393 40.7855 23.3432 41.0462 23.5323 41.2374C23.6856 41.3919 23.9691 41.5759 24.448 41.5759C24.9804 41.5769 25.5128 41.578 26.0463 41.579C27.9743 41.5822 29.9696 41.5864 31.9333 41.5716C33.4844 41.5601 34.7771 40.5669 35.2265 39.0409C35.2706 38.8927 35.3011 38.8118 35.3578 38.755C36.1958 37.9184 37.0317 37.0797 37.8676 36.2421C39.4029 34.7024 40.9907 33.1101 42.5649 31.5589C42.9114 31.2163 43.3745 31.0891 43.8324 31.2089C44.2976 31.3308 44.6567 31.6903 44.7933 32.1685C44.9413 32.6824 44.8006 33.1291 44.3543 33.5757L44.1128 33.8175C40.9708 36.9536 37.7227 40.197 34.5377 43.3972C33.5558 44.3841 32.3975 44.8644 30.9987 44.8644H30.9893C26.753 44.8581 22.4443 44.8591 18.2795 44.8602H13.4499C13.3449 44.8602 13.2389 44.8602 13.1338 44.8623C12.4681 44.8749 12.0302 45.2837 12.0176 45.9038C12.0102 46.2937 12.1656 46.5386 12.2969 46.6742C12.4376 46.8192 12.7001 46.9937 13.1496 46.999C13.2284 47 13.3071 47 13.3859 47H31.1352C32.9478 47 34.5356 46.362 35.8556 45.103C36.1139 44.857 36.3659 44.6016 36.6106 44.3557C36.7135 44.2517 36.8154 44.1476 36.9194 44.0446L39.2979 41.6673C41.4759 39.4907 43.7284 37.2405 45.94 35.0229C46.8641 34.0949 47.1939 32.9504 46.8904 31.7144ZM28.6895 16.0883C28.8333 16.1829 28.974 16.2754 29.1148 16.369C29.3248 16.5066 29.5327 16.6464 29.7417 16.7851C30.1376 17.0489 30.544 17.3201 30.9536 17.5839C30.6133 17.8866 30.2573 18.2155 29.8751 18.5792C29.3994 18.1241 28.8869 17.7542 28.3461 17.4735C28.4605 17.0185 28.5729 16.5602 28.6895 16.0883ZM24.4921 14.1482C24.9006 14.1461 25.3091 14.1461 25.7176 14.1472C26.1271 14.1493 26.5472 14.1503 26.9662 14.1461C26.7236 15.092 26.5094 15.9559 26.3162 16.7725C25.9171 16.6969 25.5139 16.659 25.1085 16.659C24.7032 16.659 24.3031 16.6958 23.8988 16.7715C23.694 15.8918 23.4693 15.0079 23.2487 14.1461C23.6667 14.1514 24.0846 14.1493 24.4921 14.1482ZM21.0445 16.3984L21.5213 16.082C21.5444 16.1735 21.5664 16.2649 21.5885 16.3563C21.6777 16.7221 21.7691 17.0983 21.8657 17.4735C21.3228 17.7584 20.8093 18.1294 20.3367 18.5813C19.9692 18.2345 19.5985 17.8939 19.2582 17.5839C19.8547 17.1898 20.4501 16.7946 21.0445 16.3984ZM29.4088 34.5731C28.4248 34.5931 27.4199 34.5878 26.4485 34.5826C25.9969 34.5805 25.5454 34.5784 25.0938 34.5784C24.6811 34.5784 24.2684 34.5784 23.8557 34.5784C22.9032 34.5794 21.9193 34.5815 20.9521 34.5763C18.478 34.5616 16.3809 32.8316 15.9671 30.4606C15.5386 28.0097 16.9479 25.6397 19.317 24.8273C20.0101 24.5887 20.3304 24.1505 20.3567 23.4064C20.4449 20.8588 22.5661 18.803 25.0938 18.803H25.1369C27.7265 18.8262 29.8026 20.8756 29.8646 23.4694C29.8803 24.1599 30.1901 24.5835 30.837 24.8042C32.6338 25.4148 33.7564 26.6298 34.1743 28.4154C34.524 29.9141 34.1964 31.4538 33.2743 32.6425C32.3481 33.8374 30.9388 34.5416 29.4088 34.5731Z" fill="#85919E"/>
<path d="M27.4766 30.6771C27.0796 30.9987 26.6417 31.2205 26.1744 31.3371C26.1891 31.5557 26.187 31.7859 26.166 32.0392C26.1198 32.6225 25.7186 33.0135 25.1432 33.0366C25.1264 33.0366 25.1106 33.0376 25.0938 33.0376C24.5719 33.0376 24.1854 32.7076 24.0542 32.1474C24.0447 32.1065 24.0206 32.0024 24.0479 31.8742C24.1466 31.4149 24.0668 31.1774 23.3317 30.9829C22.7699 30.8348 22.3572 30.449 21.9938 30.0528C21.7491 29.7869 21.6263 29.4674 21.6483 29.1553C21.6683 28.882 21.7995 28.634 22.0169 28.4564C22.5136 28.0528 23.0692 28.0833 23.5428 28.5415C24.2726 29.2478 25.0518 29.4359 25.9234 29.1185C26.2038 29.0165 26.3708 28.8211 26.4191 28.5383C26.4422 28.4049 26.4348 28.2535 26.0788 27.9981C25.8268 27.8163 25.516 27.7039 25.1883 27.5851C25.0297 27.5273 24.8659 27.4684 24.7032 27.3991C24.3419 27.2456 24.0195 27.1143 23.7171 26.9976C22.6543 26.5867 22.0673 25.7543 22.0642 24.6539C22.06 23.5136 22.6607 22.615 23.6709 22.2503C24.0584 22.1105 24.0846 22.0264 24.0468 21.6628C23.9901 21.1068 24.1739 20.781 24.3388 20.6044C24.5414 20.3879 24.8292 20.2744 25.1484 20.2881C25.5286 20.3018 26.167 20.492 26.1765 21.6029V21.9833L26.1565 22.0485C26.1943 22.0632 26.2521 22.0811 26.3393 22.1C26.8297 22.203 27.3169 22.4395 27.8315 22.8241C28.3629 23.2224 28.4847 23.81 28.1392 24.3207C27.9208 24.6444 27.6519 24.7537 27.465 24.7895C27.2655 24.8263 26.9494 24.8178 26.5808 24.5625C25.999 24.1599 25.4698 24.0054 24.9153 24.0759C24.638 24.1105 24.4574 24.1915 24.3314 24.3365C24.2274 24.4553 24.1844 24.5919 24.2117 24.7127C24.2358 24.8231 24.3167 24.9103 24.4438 24.966C24.7956 25.1195 25.1652 25.2635 25.5223 25.4032C25.8237 25.521 26.1355 25.6418 26.4422 25.7711C27.2749 26.1221 28.3986 26.7611 28.554 28.2598C28.6517 29.2047 28.2894 30.0181 27.4766 30.6771Z" fill="#85919E"/>
</svg>
