<svg width="28" height="28" viewBox="0 0 28 28" fill="none" xmlns="http://www.w3.org/2000/svg">
<rect width="28" height="28" rx="6" fill="#EFF7FF"/>
<path d="M22 14C22 14.2546 21.8989 14.4988 21.7188 14.6788C21.5388 14.8589 21.2946 14.96 21.04 14.96H14.96V21.04C14.96 21.2946 14.8589 21.5388 14.6788 21.7188C14.4988 21.8989 14.2546 22 14 22C13.7454 22 13.5012 21.8989 13.3212 21.7188C13.1411 21.5388 13.04 21.2946 13.04 21.04V14.96H6.96C6.70539 14.96 6.46121 14.8589 6.28118 14.6788C6.10114 14.4988 6 14.2546 6 14C6 13.7454 6.10114 13.5012 6.28118 13.3212C6.46121 13.1411 6.70539 13.04 6.96 13.04H13.04V6.96C13.04 6.70539 13.1411 6.46121 13.3212 6.28118C13.5012 6.10114 13.7454 6 14 6C14.2546 6 14.4988 6.10114 14.6788 6.28118C14.8589 6.46121 14.96 6.70539 14.96 6.96V13.04H21.04C21.2946 13.04 21.5388 13.1411 21.7188 13.3212C21.8989 13.5012 22 13.7454 22 14Z" fill="#004890"/>
</svg>
