<svg width="227" height="170" viewBox="0 0 227 170" fill="none" xmlns="http://www.w3.org/2000/svg">
<path d="M151.334 0H189.167C199.201 0 208.824 3.98015 215.919 11.0649C223.014 18.1496 227 27.7585 227 37.7778V75.5555C227 80.5652 225.007 85.3697 221.459 88.912C217.912 92.4544 213.1 94.4444 208.083 94.4444H160.792C160.807 106.964 165.794 118.966 174.66 127.819C183.525 136.672 195.546 141.652 208.083 141.667C211.846 141.667 215.455 143.159 218.115 145.816C220.776 148.473 222.271 152.076 222.271 155.833C222.271 159.591 220.776 163.194 218.115 165.851C215.455 168.507 211.846 170 208.083 170C188.022 169.977 168.789 162.01 154.604 147.845C140.419 133.681 132.44 114.476 132.417 94.4444V18.8889C132.417 13.8792 134.41 9.07478 137.958 5.53243C141.505 1.99007 146.317 0 151.334 0Z" fill="#004081"/>
<path d="M18.9166 0H56.7498C66.7838 0 76.4068 3.98015 83.5019 11.0649C90.597 18.1496 94.5829 27.7585 94.5829 37.7778V75.5555C94.5829 80.5652 92.59 85.3697 89.0424 88.912C85.4949 92.4544 80.6833 94.4444 75.6664 94.4444H28.3749C28.3899 106.964 33.3772 118.966 42.2428 127.819C51.1084 136.672 63.1285 141.652 75.6664 141.667C79.4291 141.667 83.0377 143.159 85.6984 145.816C88.3591 148.473 89.8538 152.076 89.8538 155.833C89.8538 159.591 88.3591 163.194 85.6984 165.851C83.0377 168.507 79.4291 170 75.6664 170C55.6053 169.977 36.3724 162.01 22.187 147.845C8.00174 133.681 0.0225372 114.476 0 94.4444V18.8889C0 13.8792 1.99298 9.07478 5.54054 5.53243C9.08809 1.99007 13.8996 0 18.9166 0Z" fill="#004081"/>
</svg>
