<svg width="59" height="59" viewBox="0 0 59 59" fill="none" xmlns="http://www.w3.org/2000/svg">
<rect x="0.25" y="0.5" width="58" height="58" rx="12" fill="#F5F6F7"/>
<path d="M29.25 12C24.9414 12.0031 20.786 13.5992 17.5833 16.4815V13.4583C17.5833 13.0716 17.4297 12.7006 17.1562 12.4271C16.8827 12.1536 16.5118 12 16.125 12C15.7382 12 15.3673 12.1536 15.0938 12.4271C14.8203 12.7006 14.6667 13.0716 14.6667 13.4583V17.8333C14.6667 18.9937 15.1276 20.1065 15.9481 20.9269C16.7685 21.7474 17.8813 22.2083 19.0417 22.2083H23.4167C23.8034 22.2083 24.1744 22.0547 24.4479 21.7812C24.7214 21.5077 24.875 21.1368 24.875 20.75C24.875 20.3632 24.7214 19.9923 24.4479 19.7188C24.1744 19.4453 23.8034 19.2917 23.4167 19.2917H19.0417C18.9925 19.2844 18.9438 19.2742 18.8958 19.261C21.2722 16.8677 24.4056 15.3732 27.7611 15.0328C31.1167 14.6925 34.4863 15.5272 37.2949 17.3946C40.1035 19.262 42.177 22.0463 43.1613 25.2722C44.1457 28.4981 43.9799 31.9657 42.6923 35.083C41.4047 38.2003 39.0751 40.7741 36.1012 42.365C33.1272 43.956 29.6933 44.4655 26.3856 43.8066C23.0778 43.1476 20.1013 41.3611 17.964 38.7519C15.8268 36.1428 14.6614 32.8727 14.6667 29.5C14.6667 29.1132 14.513 28.7423 14.2395 28.4688C13.966 28.1953 13.5951 28.0417 13.2083 28.0417C12.8216 28.0417 12.4506 28.1953 12.1771 28.4688C11.9036 28.7423 11.75 29.1132 11.75 29.5C11.75 32.9612 12.7764 36.3446 14.6993 39.2225C16.6222 42.1003 19.3553 44.3433 22.553 45.6679C25.7507 46.9924 29.2694 47.339 32.6641 46.6637C36.0587 45.9885 39.1769 44.3218 41.6244 41.8744C44.0718 39.4269 45.7385 36.3087 46.4137 32.9141C47.089 29.5194 46.7424 26.0007 45.4179 22.803C44.0933 19.6053 41.8503 16.8722 38.9725 14.9493C36.0946 13.0264 32.7112 12 29.25 12Z" fill="#85919E"/>
<path d="M29.25 20.75C28.8632 20.75 28.4923 20.9036 28.2188 21.1771C27.9453 21.4506 27.7917 21.8216 27.7917 22.2083V29.5C27.7917 29.8867 27.9454 30.2576 28.219 30.531L32.594 34.906C32.869 35.1717 33.2374 35.3187 33.6197 35.3154C34.0021 35.312 34.3679 35.1587 34.6383 34.8883C34.9087 34.6179 35.062 34.2521 35.0654 33.8697C35.0687 33.4874 34.9217 33.119 34.656 32.844L30.7083 28.8962V22.2083C30.7083 21.8216 30.5547 21.4506 30.2812 21.1771C30.0077 20.9036 29.6368 20.75 29.25 20.75Z" fill="#85919E"/>
</svg>
