<svg width="14" height="14" viewBox="0 0 14 14" fill="none" xmlns="http://www.w3.org/2000/svg">
<path d="M12.6963 12.01L9.79712 9.11081C10.5872 8.14454 10.9756 6.91155 10.8821 5.6669C10.7886 4.42225 10.2203 3.26116 9.29469 2.42378C8.36911 1.58641 7.15708 1.13683 5.90931 1.16803C4.66154 1.19922 3.47349 1.70882 2.59091 2.5914C1.70833 3.47398 1.19874 4.66203 1.16754 5.9098C1.13634 7.15757 1.58592 8.3696 2.4233 9.29518C3.26067 10.2208 4.42176 10.7891 5.66641 10.8826C6.91107 10.9761 8.14405 10.5877 9.11032 9.79761L12.0095 12.6968C12.1011 12.7853 12.2238 12.8343 12.3512 12.8332C12.4785 12.832 12.6004 12.781 12.6904 12.6909C12.7805 12.6009 12.8316 12.479 12.8327 12.3517C12.8338 12.2243 12.7848 12.1016 12.6963 12.01ZM6.03868 9.92487C5.27016 9.92487 4.5189 9.69697 3.8799 9.27001C3.24091 8.84304 2.74287 8.23618 2.44877 7.52616C2.15467 6.81614 2.07772 6.03486 2.22765 5.28111C2.37758 4.52736 2.74766 3.83499 3.29108 3.29157C3.8345 2.74814 4.52687 2.37807 5.28062 2.22814C6.03437 2.07821 6.81566 2.15516 7.52567 2.44926C8.23569 2.74335 8.84255 3.24139 9.26952 3.88039C9.69649 4.51939 9.92438 5.27065 9.92438 6.03917C9.92322 7.06937 9.51346 8.05704 8.78501 8.78549C8.05655 9.51395 7.06888 9.92371 6.03868 9.92487Z" fill="white"/>
</svg>
