<svg width="42" height="42" viewBox="0 0 42 42" fill="none" xmlns="http://www.w3.org/2000/svg">
<path d="M34.8941 17.3559H33.4147C32.9862 10.6054 27.5821 5.25 20.9997 5.25C14.4173 5.25 9.01319 10.6054 8.5847 17.3559H7.10532C5.1173 17.3559 3.5 19.0417 3.5 21.114V25.001C3.5 27.0732 5.1173 28.759 7.10532 28.759H8.78628C9.53068 28.759 10.1366 28.1275 10.1366 27.3515V18.221C10.1366 11.9772 15.0097 6.89771 20.9997 6.89771C26.9897 6.89771 31.8628 11.9772 31.8628 18.221V26.9092C31.8628 32.2566 27.3274 33.446 24.7323 33.6874C24.4076 32.9207 23.672 32.3856 22.8168 32.3856H19.1036C17.9472 32.3856 17.0101 33.3624 17.0101 34.5678C17.0101 35.7732 17.9472 36.75 19.1036 36.75H22.8168C23.7121 36.75 24.4754 36.1645 24.7748 35.3407C27.0333 35.1619 28.9772 34.4922 30.4465 33.3729C31.9442 32.232 32.9019 30.658 33.2709 28.759H34.8947C36.8827 28.759 38.5 27.0732 38.5 25.001V21.114C38.5 19.0417 36.8821 17.3559 34.8941 17.3559Z" fill="white"/>
<path d="M20.9997 10.6084C15.915 10.6084 11.7928 14.9053 11.7928 20.2053C11.7928 22.9269 12.8796 25.3838 14.626 27.1304L13.6093 29.2984C13.3647 29.82 13.8462 30.3895 14.3731 30.2028L17.5117 29.0889C18.5873 29.5485 19.7649 29.8022 20.9991 29.8022C26.0838 29.8022 30.206 25.5054 30.206 20.2053C30.206 14.9053 26.0844 10.6084 20.9997 10.6084ZM16.6612 21.4064C16.0246 21.4064 15.5089 20.8688 15.5089 20.2053C15.5089 19.5418 16.0246 19.0043 16.6612 19.0043C17.2977 19.0043 17.8134 19.5418 17.8134 20.2053C17.8134 20.8688 17.2977 21.4064 16.6612 21.4064ZM20.9997 21.4064C20.3631 21.4064 19.8474 20.8688 19.8474 20.2053C19.8474 19.5418 20.3631 19.0043 20.9997 19.0043C21.6362 19.0043 22.152 19.5418 22.152 20.2053C22.152 20.8688 21.6362 21.4064 20.9997 21.4064ZM25.3382 21.4064C24.7017 21.4064 24.186 20.8688 24.186 20.2053C24.186 19.5418 24.7017 19.0043 25.3382 19.0043C25.9748 19.0043 26.4905 19.5418 26.4905 20.2053C26.4905 20.8688 25.9748 21.4064 25.3382 21.4064Z" fill="#FF981F"/>
</svg>
