<svg width="59" height="59" viewBox="0 0 59 59" fill="none" xmlns="http://www.w3.org/2000/svg">
<rect x="0.75" y="0.5" width="58" height="58" rx="12" fill="#F5F6F7"/>
<path d="M43.7061 38.1796C43.5354 36.6646 42.8167 35.2716 41.6825 34.2582C40.5491 33.2457 39.0985 32.7004 37.6022 32.7237C37.52 32.7237 37.4994 32.719 37.4315 32.6399C33.808 28.4245 27.9025 27.1431 23.0697 29.5244C18.5845 31.7345 16.1256 35.5312 15.7601 40.8093C15.6894 41.8302 15.9924 42.7645 16.6128 43.4391C17.2429 44.125 18.1376 44.4851 19.1297 44.4562C20.8789 44.4041 22.6639 44.4162 24.389 44.4274C25.1272 44.433 25.8915 44.4376 26.6432 44.4376H28.3155C30.3552 44.4376 32.4637 44.4376 34.5382 44.4339H34.5418C34.7152 44.4339 34.852 44.4674 34.9994 44.5474C35.87 45.0155 36.7746 45.25 37.7023 45.25C38.1528 45.25 38.6096 45.1942 39.0699 45.0834C42.1222 44.3464 44.0717 41.4431 43.7061 38.1796ZM31.729 39.5103C31.8085 40.4315 32.0668 41.2932 32.5003 42.0824C27.9839 42.0842 23.4674 42.0842 18.9519 42.0824C18.6158 42.0824 18.3727 42.0042 18.2288 41.8516C18.0876 41.7018 18.0205 41.4561 18.0277 41.1211C18.0339 40.7786 18.05 40.3292 18.1108 39.8937C18.732 35.4018 21.8452 31.8973 26.0398 30.9649C26.8282 30.79 27.5977 30.7025 28.3486 30.7025C30.7663 30.7025 32.9857 31.6089 34.9717 33.4114C32.8078 34.5792 31.5136 36.9922 31.729 39.5103ZM41.0604 37.1857C41.6664 38.428 41.6494 39.6359 41.0103 40.8689C40.3668 42.1112 39.1128 42.8836 37.739 42.8845C37.116 42.8826 36.5475 42.7384 36.0103 42.4434C37.7265 40.6679 39.4229 38.9017 41.0604 37.1857ZM39.4694 35.521C37.7283 37.3262 36.03 39.0943 34.414 40.7852C33.9 39.8006 33.8571 38.5862 34.3094 37.4751C34.8082 36.2514 35.8101 35.3879 36.99 35.1636C37.2805 35.1087 37.5066 35.0836 37.7148 35.0836C37.7309 35.0836 37.747 35.0836 37.7622 35.0845H37.7971C38.3727 35.0845 38.9233 35.2278 39.4694 35.521Z" fill="#85919E"/>
<path d="M33.3235 14.2185C31.9426 12.7835 30.1139 11.9972 28.185 12C24.1959 12.0084 20.9406 15.3956 20.9272 19.5506C20.921 21.5746 21.6709 23.4776 23.0393 24.9088C24.4068 26.3391 26.232 27.131 28.1787 27.1366H28.2002C30.1317 27.1366 31.9506 26.3521 33.3253 24.9255C34.7045 23.4943 35.4651 21.5941 35.466 19.5757C35.4669 17.5583 34.7063 15.6562 33.3235 14.2185ZM33.1931 19.5767C33.1922 20.9716 32.6675 22.2818 31.7174 23.2673C30.7654 24.2537 29.5061 24.7915 28.1636 24.7869C25.4088 24.7757 23.1743 22.427 23.1823 19.5515C23.1895 16.6901 25.4392 14.3646 28.1966 14.3646H28.2038C30.9567 14.3683 33.1948 16.7068 33.1931 19.5767Z" fill="#85919E"/>
</svg>
