<svg width="196" height="104" viewBox="0 0 196 104" fill="none" xmlns="http://www.w3.org/2000/svg">
<rect width="196" height="104" fill="white"/>
<g clip-path="url(#clip0_320_1329)">
<path fill-rule="evenodd" clip-rule="evenodd" d="M62.043 42.9688H74.7174V45.2823H62.043V42.9688Z" fill="#F7A609"/>
<path fill-rule="evenodd" clip-rule="evenodd" d="M62.043 47.1855H74.7174V49.4943H62.043V47.1855Z" fill="#1CA438"/>
<path fill-rule="evenodd" clip-rule="evenodd" d="M34.0327 51.8533C33.7801 51.9304 33.5189 51.9756 33.2551 51.9877C32.8654 51.9996 32.4765 51.9444 32.1055 51.8245V48.9589H38.9959V51.1981C38.6406 50.7638 38.2381 50.3701 37.7959 50.0245C37.4261 49.8305 37.0135 49.7323 36.5959 49.7389C35.1271 49.7389 34.0951 50.7133 34.0567 51.8533H34.0327ZM104.787 48.9589V50.2501H102.656C101.113 50.2501 100.419 51.1333 100.419 51.9637C100.419 52.9837 100.974 53.9293 102.579 56.2213L103.179 55.7581C102.366 54.7981 101.821 53.7973 101.821 53.0677C101.821 52.2277 102.121 51.6277 103.208 51.6277H104.847V55.3213L106.299 56.3461V48.9541H107.912L107.113 47.5693H86.5927L87.3991 48.9541H88.5775V52.0429H86.0839L86.1343 50.2645C86.1343 49.2805 85.5799 47.5861 83.8687 47.5861C83.4405 47.5659 83.0218 47.7162 82.7042 48.0041C82.3866 48.292 82.1961 48.694 82.1743 49.1221V49.2157C82.1743 50.1397 82.9303 51.0637 84.7591 51.4933L84.6751 52.0141H83.8687C83.808 52.0138 83.7478 52.0255 83.6916 52.0485C83.6355 52.0715 83.5844 52.1054 83.5413 52.1483C83.4983 52.1911 83.4641 52.242 83.4408 52.298C83.4175 52.3541 83.4055 52.4142 83.4055 52.4749V52.5085C83.4055 53.0773 84.9895 54.5677 85.4887 54.5677C85.8439 54.5677 85.9495 54.2917 85.9687 53.4037H88.5775V55.2877L90.0175 56.3125V48.9253H91.9879V55.2733L93.4279 56.2981V48.9109H96.6967V51.1693C96.6967 51.3445 96.6319 51.4645 96.5215 51.4645C96.2431 51.4645 95.8519 51.0541 95.4319 51.0541C95.3079 51.0827 95.1963 51.15 95.113 51.2462C95.0297 51.3424 94.9792 51.4625 94.9687 51.5893C94.9687 51.8581 95.2567 52.2877 95.8375 52.9741L98.5567 56.3629L99.1351 55.7917C98.3651 55.0499 97.6616 54.242 97.0327 53.3773C97.3192 53.2085 97.5632 52.9762 97.7459 52.6982C97.9285 52.4203 98.045 52.1041 98.0863 51.7741V48.9589H104.787ZM84.8671 49.4845L84.8119 50.7901C83.8879 50.6293 83.4607 50.1997 83.4607 49.5205C83.4607 49.286 83.5391 49.0582 83.6835 48.8734C83.8279 48.6885 84.03 48.5573 84.2575 48.5005C84.5167 48.5005 84.9055 48.7597 84.8671 49.4845ZM53.3191 49.8901V48.9661H55.6279L54.8479 47.5813H27.6367L28.4119 48.9661H30.6751V51.3901C30.6751 51.5053 30.6391 51.5893 30.5959 51.5893C30.4207 51.5893 30.0655 51.1285 29.7319 51.1285C29.5817 51.1381 29.4398 51.2008 29.3316 51.3055C29.2234 51.4102 29.156 51.5499 29.1415 51.6997C29.2436 52.2583 29.4781 52.7842 29.8255 53.2333L32.4391 56.7781L33.0439 56.1781C32.2937 55.4069 31.6052 54.578 30.9847 53.6989C31.407 53.3772 31.7708 52.985 32.0599 52.5397C32.4655 52.9189 32.9455 53.3581 33.4999 53.3581C33.8272 53.3492 34.1518 53.2959 34.4647 53.1997C34.7117 53.6344 35.0604 54.0027 35.4809 54.2731C35.9014 54.5436 36.3812 54.7081 36.8791 54.7525C37.5367 54.7525 38.2015 54.4429 39.0271 53.8285V55.3381L40.4119 56.3629V48.9805H51.9559V49.7509C51.5384 49.7935 51.152 49.9907 50.8726 50.3038C50.5932 50.617 50.4412 51.0233 50.4463 51.4429C50.4463 52.2925 51.1015 53.0941 52.4071 53.8189C52.0392 54.2321 51.5922 54.5675 51.0927 54.8053C50.5931 55.0432 50.051 55.1786 49.4983 55.2037C48.7543 55.2037 48.5383 54.9877 48.5383 54.6085C48.5383 54.1477 48.9991 53.6869 50.3839 53.6869L49.7839 52.2469C49.3087 52.187 48.8264 52.2705 48.3991 52.4869C48.3126 52.4307 48.2321 52.3655 48.1591 52.2925L47.9023 51.9013C47.8975 51.8502 47.8975 51.7988 47.9023 51.7477C47.9093 51.6377 47.938 51.5301 47.9867 51.4311C48.0354 51.3321 48.1032 51.2438 48.1862 51.1711C48.2691 51.0984 48.3656 51.0428 48.4701 51.0075C48.5746 50.9722 48.6851 50.9578 48.7951 50.9653H48.8239C49.1342 50.9676 49.4435 50.9989 49.7479 51.0589L49.1191 49.6741C48.9016 49.6258 48.6795 49.6008 48.4567 49.5997C48.0952 49.5676 47.7334 49.6575 47.4289 49.855C47.1244 50.0525 46.8948 50.3462 46.7767 50.6893L46.5223 50.2285H41.6071L42.3919 51.6133H43.3159C43.144 51.918 43.0608 52.2647 43.0759 52.6141C43.0759 53.6437 44.3839 55.0021 45.6079 55.0021C46.2923 54.9211 46.9359 54.634 47.4535 54.1789C47.6935 55.1821 49.1335 56.3221 50.4031 56.3221C52.2175 56.3221 54.6295 54.5437 54.6295 52.1197C54.5134 51.2356 54.056 50.4319 53.3551 49.8805L53.3191 49.8901ZM46.9063 51.6229C47.0457 51.897 47.2164 52.1539 47.4151 52.3885C46.4023 53.3677 45.5119 53.8621 44.7967 53.8621C44.4271 53.8621 44.2471 53.7181 44.2471 53.3677C44.2748 53.0532 44.3761 52.7496 44.5429 52.4815C44.7096 52.2134 44.9372 51.9884 45.2071 51.8245C45.5864 51.6665 45.997 51.5975 46.4071 51.6229H46.9063ZM52.7551 53.3389C52.5032 53.179 52.294 52.9602 52.1456 52.7014C51.9971 52.4426 51.9139 52.1515 51.9031 51.8533C51.9031 51.2293 52.3279 50.6533 52.8247 50.6533C53.0983 50.6533 53.3239 50.8933 53.3239 51.5773C53.2828 52.2162 53.0796 52.834 52.7335 53.3725L52.7551 53.3389ZM36.1351 53.6029C36.0302 53.6017 35.9265 53.5798 35.83 53.5384C35.7335 53.4971 35.6461 53.4372 35.5728 53.3621C35.4995 53.287 35.4417 53.1982 35.4027 53.1007C35.3637 53.0033 35.3443 52.8991 35.3455 52.7941C35.3455 52.7677 35.3455 52.7413 35.3455 52.7173C35.3265 52.3149 35.4671 51.9213 35.7368 51.622C36.0064 51.3227 36.3833 51.1419 36.7855 51.1189C37.6049 51.1378 38.3885 51.4582 38.9863 52.0189V52.2133C38.2015 52.7845 36.7711 53.5981 36.1207 53.5981L36.1351 53.6029Z" fill="#1E1E1C"/>
<path fill-rule="evenodd" clip-rule="evenodd" d="M25.0728 83.2909V80.1709H29.8248V82.0909C29.6741 81.7088 29.4197 81.3764 29.0904 81.1309C28.8035 80.9872 28.4873 80.9117 28.1664 80.9101C27.9446 80.8952 27.7219 80.9244 27.5115 80.9962C27.301 81.0679 27.1068 81.1807 26.9403 81.3281C26.7737 81.4754 26.6381 81.6544 26.5412 81.8545C26.4444 82.0547 26.3882 82.2721 26.376 82.4941C26.376 82.5229 26.376 82.5517 26.376 82.5781C26.376 83.5021 27.576 84.5461 28.5792 84.5461C29.0547 84.4959 29.5026 84.2988 29.8608 83.9821V85.0549L30.96 85.8397V83.3557C31.4015 82.9263 31.9399 82.6094 32.5296 82.4317C32.6264 82.4414 32.7164 82.4855 32.7834 82.556C32.8503 82.6264 32.8897 82.7186 32.8944 82.8157C32.7285 83.5079 32.4478 84.1674 32.064 84.7669L33.0792 85.5253C33.4481 84.9352 33.6703 84.2653 33.7272 83.5717C33.7272 82.4269 32.9232 81.5125 32.1144 81.5125C31.6841 81.5626 31.2761 81.7313 30.936 81.9997V80.1805H34.5576L33.948 79.1557H19.6992L20.2992 80.1805H21.1632V83.5405C21.1632 83.7805 21.2424 84.0013 21.624 84.2605C21.864 84.4165 24.636 86.0557 24.948 86.2693C25.0391 86.3195 25.1157 86.3922 25.1708 86.4804C25.2258 86.5687 25.2573 86.6695 25.2624 86.7733C25.2307 86.9433 25.1681 87.106 25.0776 87.2533L26.0664 87.9997C26.3048 87.7418 26.4647 87.4213 26.5272 87.0757C26.5168 86.9095 26.4633 86.7489 26.372 86.6096C26.2806 86.4703 26.1547 86.3572 26.0064 86.2813L23.2968 84.6157C22.3728 84.0373 22.296 83.7421 22.296 83.4397V80.2117H23.976V82.5181C23.976 82.9813 23.8464 83.1229 23.5656 83.1229C23.3928 83.1229 23.2128 83.0821 23.0856 83.0725L23.5464 83.8813C23.8537 84.0007 24.1775 84.0719 24.5064 84.0925C24.8952 84.0925 25.0752 83.9365 25.0752 83.3173L25.0728 83.2909ZM114.113 80.1709H114.977V81.8509C114.977 81.9805 114.936 82.0645 114.847 82.0645C114.641 82.0645 114.353 81.7645 114.041 81.7645C113.947 81.7829 113.862 81.8317 113.799 81.9033C113.736 81.9749 113.699 82.0654 113.693 82.1605C113.693 82.3645 113.902 82.6837 114.346 83.2189L116.376 85.7557L116.806 85.3357C116.236 84.7741 115.712 84.1691 115.236 83.5261C115.448 83.3985 115.628 83.224 115.763 83.016C115.897 82.808 115.982 82.572 116.011 82.3261V80.1781H118.056L117.442 79.1533H112.162C111.502 78.0373 111.029 77.2093 110.498 76.7245C110.232 76.4535 109.868 76.2991 109.488 76.2949C109.193 76.2949 108.833 76.2949 108.833 76.5493C108.833 76.6933 108.883 76.8037 109.349 77.6293C109.576 77.5646 109.811 77.5259 110.047 77.5141C110.165 77.516 110.281 77.5422 110.388 77.5909C110.495 77.6396 110.59 77.7099 110.669 77.7973C111.067 78.2072 111.416 78.6623 111.708 79.1533H107.839L108.415 80.1781H109.205V81.6877C109.205 82.0069 108.564 82.3813 108.043 82.3813C107.69 82.3427 107.362 82.1783 107.119 81.9181C107.276 81.8336 107.407 81.7087 107.5 81.5564C107.592 81.4041 107.642 81.2298 107.645 81.0517C107.645 80.1829 106.414 79.0021 105.386 79.0021C104.835 79.0751 104.296 79.2178 103.781 79.4269L104.35 80.5021C104.924 80.2358 105.539 80.0671 106.169 80.0029C106.476 80.0029 106.685 80.1085 106.685 80.4373C106.685 80.9965 106.126 81.4669 104.981 81.6373C104.741 81.6709 104.676 81.7477 104.676 81.7981C104.858 82.131 105.079 82.4405 105.336 82.7197C105.808 82.6118 106.263 82.4364 106.685 82.1989C106.84 82.4631 106.923 82.7636 106.925 83.0701C106.925 83.6341 106.366 84.0781 105.636 84.0781C104.906 84.0781 104.28 83.4877 103.74 82.3693L103.306 82.6333C103.975 84.0397 105.084 85.0477 106.075 85.0477C107.15 85.0477 107.885 84.3541 107.885 83.5429C107.89 83.3084 107.846 83.0754 107.755 82.8589V82.8253C108.079 83.0112 108.429 83.1456 108.794 83.2237C108.952 83.2356 109.11 83.2118 109.258 83.1541V84.9133L110.333 85.6933V80.1733H111.576V84.9205L112.651 85.6813V80.1733L114.113 80.1709ZM100.961 80.1709L100.358 79.1461H99.1776C98.9784 77.2453 98.0592 76.3765 96.9624 76.3765C96.5944 76.3496 96.2305 76.4672 95.9477 76.7042C95.665 76.9412 95.4857 77.2791 95.448 77.6461C95.469 77.9999 95.6144 78.3348 95.8584 78.5917L96.4992 78.5173C96.492 78.387 96.492 78.2564 96.4992 78.1261C96.503 77.9044 96.5946 77.6932 96.7538 77.5389C96.9131 77.3846 97.1271 77.2997 97.3488 77.3029H97.3728C98.052 77.3029 98.6568 78.0445 98.6928 79.1485H89.052L89.652 80.1733H93.6888V82.0933C93.5385 81.7097 93.2821 81.3767 92.9496 81.1333C92.6635 80.9874 92.3468 80.9117 92.0256 80.9125C91.5772 80.887 91.1371 81.0405 90.8018 81.3393C90.4665 81.6381 90.2636 82.0578 90.2376 82.5061C90.2376 82.5325 90.2376 82.5589 90.2376 82.5829C90.2376 83.5069 91.4376 84.5509 92.4384 84.5509C92.9159 84.5003 93.3661 84.3033 93.7272 83.9869L93.7032 85.0597L94.8072 85.8397V83.3605C95.2487 82.9311 95.7871 82.6142 96.3768 82.4365C96.4733 82.4458 96.563 82.4899 96.6293 82.5606C96.6955 82.6313 96.7338 82.7237 96.7368 82.8205C96.5761 83.5098 96.3019 84.1675 95.9256 84.7669L96.9456 85.5253C97.3108 84.9343 97.5289 84.2644 97.5816 83.5717C97.5816 82.4269 96.7872 81.5125 95.9808 81.5125C95.5508 81.5697 95.1448 81.744 94.8072 82.0165V80.1973H98.424V84.9421L99.5064 85.7053V80.1733L100.961 80.1709ZM93.7008 82.7197C93.4008 82.9741 92.0856 83.7733 91.74 83.7733C91.5 83.7733 91.2768 83.5141 91.2768 83.0989C91.2881 82.8011 91.4082 82.5177 91.6143 82.3023C91.8203 82.087 92.0982 81.9545 92.3952 81.9301C92.6572 81.961 92.9096 82.0474 93.1356 82.1836C93.3616 82.3197 93.5559 82.5025 93.7056 82.7197H93.7008ZM86.0688 85.6933V80.1733H87.5376L86.9184 79.1485H57.9576L58.5648 80.1733H60.3168V81.9997C60.3168 82.0885 60.3168 82.1485 60.252 82.1485C60.1176 82.1485 59.8392 81.7957 59.592 81.7957C59.4748 81.7954 59.3618 81.8396 59.2758 81.9193C59.1899 81.999 59.1373 82.1084 59.1288 82.2253C59.2098 82.6459 59.3918 83.0404 59.6592 83.3749L61.668 86.0341L62.136 85.5997C61.5551 85.0298 61.0236 84.4116 60.5472 83.7517C60.8653 83.5065 61.1452 83.2153 61.3776 82.8877C61.663 83.2162 62.0561 83.4323 62.4864 83.4973C62.7404 83.4919 62.9928 83.4548 63.2376 83.3869C63.4395 83.7139 63.7158 83.9886 64.0441 84.1884C64.3723 84.3882 64.7432 84.5075 65.1264 84.5365C65.7463 84.4859 66.3324 84.2329 66.7944 83.8165V84.9469L67.8888 85.7101V80.1733H76.8456V80.7469C76.5227 80.7708 76.2211 80.9174 76.0029 81.1566C75.7846 81.3958 75.6662 81.7096 75.672 82.0333C75.672 82.6621 76.176 83.2717 77.1864 83.7973C76.8975 84.1098 76.5497 84.362 76.1629 84.5395C75.7761 84.7171 75.3581 84.8164 74.9328 84.8317C74.3568 84.8317 74.1936 84.6517 74.1936 84.3709C74.1936 84.0157 74.5584 83.6509 75.6336 83.6509L75.1704 82.5733C74.8076 82.5349 74.4413 82.6007 74.1144 82.7629C74.0448 82.7231 73.981 82.6738 73.9248 82.6165L73.8888 82.1533C73.8392 82.2205 73.783 82.2824 73.7208 82.3381C73.7066 82.3047 73.6992 82.2688 73.6992 82.2325C73.7139 82.0607 73.7962 81.9017 73.9281 81.7905C74.0599 81.6793 74.2306 81.6251 74.4024 81.6397H74.4288C74.666 81.6393 74.9025 81.6642 75.1344 81.7141L74.6304 80.7253C74.4612 80.6862 74.2881 80.6661 74.1144 80.6653C73.8381 80.6373 73.5602 80.7017 73.3244 80.8485C73.0885 80.9953 72.9081 81.2162 72.8112 81.4765L72.6144 81.1405H68.8104L69.4152 82.1653H70.1352C69.9967 82.3884 69.9259 82.6468 69.9312 82.9093C69.9312 83.6845 70.956 84.6949 71.9064 84.6949C72.4187 84.6301 72.9004 84.4155 73.2912 84.0781C73.4808 84.8389 74.6088 85.6837 75.6 85.6837C77.0088 85.6837 78.8784 84.3541 78.8784 82.5445C78.832 82.2152 78.7209 81.8984 78.5516 81.6121C78.3823 81.3259 78.1582 81.0759 77.892 80.8765V80.1757H82.632V81.1357H81.0408C79.8936 81.1357 79.3728 81.7957 79.3728 82.4101C79.3728 83.1805 79.7832 83.8885 80.9808 85.5949L81.4416 85.2541C80.8272 84.5341 80.4168 83.7853 80.4168 83.2309C80.4168 82.6765 80.6568 82.1605 81.4512 82.1605H82.6752V84.9301L83.7552 85.6933V80.1733H85.0104V84.9205L86.0808 85.6813L86.0688 85.6933ZM72.9024 82.1749C73.0129 82.3813 73.1474 82.5738 73.3032 82.7485C72.5184 83.4829 71.8272 83.8549 71.2728 83.8549C70.9896 83.8549 70.8384 83.7397 70.8384 83.4829C70.8634 83.2436 70.9451 83.0136 71.0765 82.8121C71.208 82.6105 71.3855 82.4431 71.5944 82.3237C71.8883 82.2089 72.2033 82.1582 72.5184 82.1749H72.9024ZM77.4504 83.4589C77.2553 83.3421 77.0921 83.1789 76.9753 82.9838C76.8584 82.7886 76.7916 82.5677 76.7808 82.3405C76.7628 82.1215 76.8294 81.9039 76.9669 81.7325C77.1044 81.5611 77.3023 81.4489 77.52 81.4189C77.7264 81.4189 77.9064 81.6109 77.9064 82.0957C77.8758 82.5769 77.7167 83.041 77.4456 83.4397L77.4504 83.4589ZM63.216 80.1829H66.7752V81.8509C66.4996 81.5273 66.1898 81.2343 65.8512 80.9773C65.5541 80.8276 65.2237 80.7557 64.8912 80.7685C63.768 80.7685 62.9568 81.4885 62.9232 82.3381C62.7288 82.4004 62.5271 82.4367 62.3232 82.4461C62.0201 82.4515 61.7181 82.4094 61.428 82.3213V80.1829H63.2112H63.216ZM64.5624 83.6509C64.4022 83.6509 64.2485 83.5876 64.1348 83.4748C64.021 83.3619 63.9565 83.2087 63.9552 83.0485C63.9552 83.0293 63.9552 83.0101 63.9552 82.9909C63.9485 82.8391 63.9719 82.6875 64.0241 82.5448C64.0763 82.4022 64.1562 82.2713 64.2593 82.1597C64.3624 82.0481 64.4867 81.958 64.6248 81.8947C64.7629 81.8315 64.9122 81.7962 65.064 81.7909H65.0832C65.7109 81.8052 66.3137 82.0387 66.7872 82.4509V82.5997C66.1824 83.0245 65.064 83.6341 64.56 83.6341L64.5624 83.6509ZM52.1664 83.4805H54.0864V84.9205L55.2 85.6813V80.1613H56.4L55.8 79.1365H36.1032L36.7128 80.1613H40.7496V82.0813H40.716C40.57 81.6966 40.3147 81.3629 39.9816 81.1213C39.6951 80.9765 39.3786 80.9009 39.0576 80.9005C38.8367 80.8866 38.6152 80.9164 38.4059 80.9883C38.1965 81.0602 38.0035 81.1727 37.8378 81.3195C37.6721 81.4662 37.537 81.6443 37.4403 81.8434C37.3436 82.0425 37.2873 82.2588 37.2744 82.4797C37.2744 82.5085 37.2744 82.5397 37.2744 82.5685C37.2744 83.4925 38.4744 84.5365 39.468 84.5365C39.9448 84.4886 40.3942 84.2912 40.752 83.9725V85.0453L41.8488 85.8253V83.3557C42.2897 82.9266 42.8271 82.6097 43.416 82.4317C43.5126 82.4423 43.6024 82.4866 43.6696 82.5568C43.7368 82.627 43.777 82.7187 43.7832 82.8157C43.6214 83.5038 43.3525 84.1622 42.9864 84.7669L43.9776 85.5013C44.343 84.9099 44.5633 84.2405 44.6208 83.5477C44.6208 82.4029 43.8216 81.4885 43.008 81.4885C42.5858 81.5508 42.1884 81.7267 41.8584 81.9973V80.1781H48.2952V81.1765H46.692C45.732 81.1765 45.1968 81.5821 45.1968 82.4869C45.1859 83.2217 45.4672 83.9308 45.9789 84.4582C46.4906 84.9857 47.1908 85.2884 47.9256 85.2997C48.192 85.3175 48.4582 85.2627 48.696 85.1413L49.5456 86.8597L50.1096 86.5813L49.1496 84.9421C49.2766 84.8847 49.386 84.7948 49.467 84.6814C49.5479 84.568 49.5974 84.4352 49.6104 84.2965C49.6104 83.8357 48.5712 83.1325 48.2256 83.1325C48.1334 83.1305 48.0435 83.1616 47.9722 83.2202C47.9009 83.2787 47.8528 83.3609 47.8368 83.4517C47.8368 83.8021 48.012 83.8765 48.012 84.0517C48.012 84.2269 47.6472 84.4405 47.2152 84.4405C46.9094 84.4274 46.6212 84.2939 46.4135 84.0691C46.2057 83.8443 46.0954 83.5464 46.1064 83.2405C46.0899 83.1154 46.0982 82.9882 46.1309 82.8663C46.1636 82.7444 46.22 82.6301 46.2969 82.53C46.3738 82.4299 46.4697 82.346 46.5791 82.283C46.6885 82.22 46.8092 82.1792 46.9344 82.1629C46.9768 82.1604 47.0193 82.1604 47.0616 82.1629H49.1208C49.2456 82.1629 49.3344 82.0573 49.3344 81.8773V80.1973H51.0456V82.4365H50.6904C50.6157 82.4333 50.5427 82.4597 50.4874 82.5101C50.4321 82.5604 50.399 82.6306 50.3952 82.7053V82.7197C50.3952 83.1517 51.5184 84.3157 51.8352 84.3157C52.0344 84.3157 52.1544 84.2149 52.1544 84.0445V83.4949L52.1664 83.4805ZM54.0744 80.1829V82.4581H52.1664V80.1829H54.0744ZM40.7496 82.7197C40.4496 82.9741 39.132 83.7733 38.7768 83.7733C38.5512 83.7733 38.316 83.5141 38.316 83.0989C38.3284 82.801 38.4491 82.5179 38.6555 82.3027C38.8619 82.0875 39.1397 81.955 39.4368 81.9301C39.6992 81.961 39.9519 82.0473 40.1783 82.1835C40.4046 82.3196 40.5994 82.5024 40.7496 82.7197ZM29.8296 82.7197C29.5248 82.9741 28.2144 83.7733 27.8616 83.7733C27.6216 83.7733 27.4008 83.5141 27.4008 83.0989C27.4116 82.8009 27.5315 82.5172 27.7377 82.3018C27.9438 82.0863 28.222 81.954 28.5192 81.9301C28.7812 81.961 29.0336 82.0474 29.2596 82.1836C29.4856 82.3197 29.6799 82.5025 29.8296 82.7197Z" fill="#1E1E1C"/>
<path fill-rule="evenodd" clip-rule="evenodd" d="M41.18 27.6924C45.722 27.6919 50.1621 29.0382 53.9389 31.5611C57.7157 34.084 60.6597 37.6701 62.3985 41.8661C64.1373 46.0621 64.5928 50.6794 63.7075 55.1342C62.8223 59.5891 60.6359 63.6814 57.4249 66.8937C54.2139 70.106 50.1225 72.2941 45.6681 73.1813C41.2136 74.0684 36.5961 73.6148 32.3994 71.8777C28.2027 70.1407 24.6153 67.1983 22.0909 63.4225C19.5664 59.6467 18.2182 55.2071 18.2168 50.6652V50.6532C18.2174 44.5634 20.637 38.7232 24.9434 34.4173C29.2498 30.1114 35.0902 27.6924 41.18 27.6924ZM41.18 29.7516C45.3149 29.7525 49.3567 30.9796 52.7942 33.2776C56.2317 35.5756 58.9105 38.8414 60.492 42.6619C62.0735 46.4824 62.4866 50.6861 61.679 54.7413C60.8713 58.7966 58.8793 62.5213 55.9549 65.4444C53.0304 68.3676 49.3048 70.3579 45.2491 71.1636C41.1935 71.9694 36.99 71.5544 33.1702 69.9711C29.3504 68.3879 26.0859 65.7075 23.7895 62.269C21.4931 58.8304 20.2678 54.7881 20.2688 50.6532C20.2694 47.9077 20.8108 45.1893 21.862 42.653C22.9133 40.1168 24.4537 37.8124 26.3955 35.8715C28.3373 33.9306 30.6424 32.3912 33.1791 31.3412C35.7158 30.2911 38.4345 29.751 41.18 29.7516Z" fill="#1E1E1C"/>
<path fill-rule="evenodd" clip-rule="evenodd" d="M95.4608 27.6924C100.003 27.6914 104.444 29.0375 108.221 31.5603C111.998 34.0831 114.942 37.6694 116.681 41.8656C118.42 46.0617 118.876 50.6794 117.991 55.1345C117.105 59.5897 114.919 63.6822 111.707 66.8946C108.496 70.1069 104.404 72.2949 99.9492 73.1817C95.4943 74.0685 90.8766 73.6143 86.6798 71.8766C82.4831 70.1389 78.8959 67.1957 76.3719 63.4192C73.8479 59.6428 72.5005 55.2027 72.5 50.6604C72.4994 44.5699 74.918 38.7287 79.2239 34.4214C83.5298 30.1141 89.3704 27.6937 95.4608 27.6924ZM95.4608 29.7516C99.5958 29.7521 103.638 30.9787 107.076 33.2764C110.513 35.5742 113.193 38.8398 114.775 42.6602C116.356 46.4807 116.77 50.6844 115.962 54.7399C115.155 58.7953 113.163 62.5202 110.239 65.4436C107.315 68.367 103.589 70.3575 99.5332 71.1634C95.4775 71.9694 91.2739 71.5545 87.454 69.9714C83.6341 68.3882 80.3694 65.7078 78.0729 62.2692C75.7763 58.8306 74.5511 54.7882 74.552 50.6532C74.5533 45.1089 76.7568 39.7921 80.6779 35.8724C84.599 31.9526 89.9165 29.7509 95.4608 29.7516Z" fill="#1E1E1C"/>
<path fill-rule="evenodd" clip-rule="evenodd" d="M17.3165 49.4559C15.9917 50.0607 15.0917 48.1551 16.5965 47.4759L24.5789 43.8759L74.8565 20.4903L79.5245 18.4623C85.1261 16.3575 90.6292 14.8383 95.542 17.1831C103.169 21.0663 102.005 32.3919 95.6068 37.7391C94.4284 38.7183 93.1444 37.2759 94.1284 36.2295C103.896 25.9383 97.8293 13.3791 81.6701 19.9215C80.6549 20.3319 79.7813 20.6655 78.7901 21.1215C60.3245 29.4231 41.9501 38.0799 23.5541 46.6455L17.3165 49.4559Z" fill="#1E1E1C"/>
<path fill-rule="evenodd" clip-rule="evenodd" d="M115.416 49.554C114.101 50.1852 113.194 48.2796 114.696 47.5692L154.376 29.2236L159.034 27.1932C164.633 25.0836 169.976 23.31 174.874 25.6428C182.511 29.5284 181.337 40.878 174.939 46.2012C174.736 46.3829 174.471 46.4794 174.198 46.4707C173.926 46.4619 173.668 46.3484 173.477 46.154C173.286 45.9595 173.178 45.699 173.174 45.4266C173.171 45.1542 173.272 44.8909 173.458 44.6916C183.152 34.1796 177.178 21.6516 161.163 28.6524C160.155 29.1132 159.269 29.3964 158.283 29.8524C143.936 36.3108 129.61 42.7284 115.416 49.554Z" fill="#1E1E1C"/>
</g>
<defs>
<clipPath id="clip0_320_1329">
<rect width="164.366" height="72" fill="white" transform="translate(15.8164 16)"/>
</clipPath>
</defs>
</svg>
