<svg width="52" height="52" viewBox="0 0 52 52" fill="none" xmlns="http://www.w3.org/2000/svg">
<g clip-path="url(#clip0_339_28088)">
<path d="M13.8667 25.9999L24.2667 34.6666L38.1334 17.3333M26.0001 50.2666C22.8133 50.2666 19.6578 49.6389 16.7136 48.4194C13.7694 47.1999 11.0943 45.4124 8.84094 43.1591C6.58757 40.9057 4.8001 38.2306 3.58059 35.2864C2.36107 32.3422 1.7334 29.1867 1.7334 25.9999C1.7334 22.8132 2.36107 19.6577 3.58059 16.7135C4.8001 13.7693 6.58757 11.0942 8.84094 8.84082C11.0943 6.58745 13.7694 4.79998 16.7136 3.58047C19.6578 2.36095 22.8133 1.73328 26.0001 1.73328C32.436 1.73328 38.6083 4.28994 43.1592 8.84082C47.7101 13.3917 50.2667 19.564 50.2667 25.9999C50.2667 32.4359 47.7101 38.6082 43.1592 43.1591C38.6083 47.71 32.436 50.2666 26.0001 50.2666Z" stroke="#00B67A" stroke-width="3" stroke-linecap="round"/>
</g>
<defs>
<clipPath id="clip0_339_28088">
<rect width="52" height="52" fill="white"/>
</clipPath>
</defs>
</svg>
