<svg width="58" height="59" viewBox="0 0 58 59" fill="none" xmlns="http://www.w3.org/2000/svg">
<rect y="0.5" width="58" height="58" rx="12" fill="#F5F6F7"/>
<path d="M45.9491 27.4147L39.0645 15.7273C38.347 14.5074 37.0156 13.75 35.5893 13.75H22.4077C20.9815 13.75 19.6501 14.5074 18.9326 15.7273L12.0494 27.4147C11.313 28.6617 11.3174 30.2094 12.0596 31.4536L19.1193 43.2914C19.8411 44.4998 21.1682 45.25 22.5842 45.25H35.4158C36.8318 45.25 38.1589 44.4998 38.8807 43.2914L45.9404 31.4551C46.6826 30.2109 46.687 28.6631 45.9506 27.4161L45.9491 27.4147ZM44.6877 28.132C44.8087 28.3381 44.8991 28.5586 44.9575 28.7834H40.1903L35.0848 20.1643L37.453 15.9821C37.5858 16.121 37.7039 16.2742 37.803 16.4431L44.6877 28.1305V28.132ZM27.7962 28.7834H19.5393L23.7479 21.6375L27.7962 28.7834ZM25.0035 20.9088H32.9965L29.0007 27.963L25.0035 20.9088ZM27.7247 30.2152L23.764 37.2064L19.5932 30.2152H27.7247ZM29.0007 30.9067L33.0694 38.0898H24.9321L29.0007 30.9067ZM30.2767 30.2152H38.4214L34.2448 37.2193L30.2767 30.2152ZM30.2038 28.7834L34.2594 21.6246L38.4753 28.7834H30.2038ZM35.5908 15.1818C35.7979 15.1818 36.0006 15.2075 36.1989 15.2562L33.8088 19.477H24.1942L21.8026 15.2562C21.9994 15.2075 22.2036 15.1818 22.4107 15.1818H35.5908ZM20.1955 16.4446C20.2947 16.2756 20.4128 16.1224 20.5455 15.9835L22.9225 20.18L17.8564 28.7834H13.0411C13.0994 28.5572 13.1898 28.3381 13.3109 28.132L20.1955 16.4446ZM13.3182 30.7306C13.2204 30.5659 13.1432 30.3927 13.0848 30.2152H17.9031L22.94 38.6596L20.5703 42.8432C20.5003 42.7559 20.4361 42.6628 20.3778 42.5655L13.3182 30.7306ZM22.5842 43.8168C22.3027 43.8168 22.0257 43.7696 21.7646 43.6808L24.1213 39.5216H33.8802L36.2368 43.6808C35.9758 43.7696 35.6987 43.8168 35.4158 43.8168H22.5842ZM37.6222 42.5655C37.5639 42.6628 37.4997 42.7559 37.4297 42.8432L35.0658 38.6711L40.1086 30.2137H44.9137C44.8554 30.3913 44.7796 30.5645 44.6804 30.7292L37.6222 42.5655Z" fill="#85919E"/>
</svg>
