<svg width="16" height="16" viewBox="0 0 16 16" fill="none" xmlns="http://www.w3.org/2000/svg">
<path d="M11.3195 4.91403C11.1357 4.87663 10.9851 4.75931 10.9073 4.59155C10.0462 2.73766 8.0501 1.70104 6.0551 2.07624C4.23732 2.4163 2.81232 3.89669 2.50843 5.76078C2.41843 6.31111 2.4251 6.86201 2.52676 7.39873C2.5601 7.57386 2.48621 7.76883 2.33454 7.90939C1.69843 8.49939 1.33398 9.3399 1.33398 10.2161C1.33398 11.9346 2.70454 13.3333 4.38954 13.3333H10.5007C12.7984 13.3333 14.6673 11.4267 14.6673 9.08259C14.6673 7.06207 13.2595 5.3085 11.3195 4.91403ZM10.5007 12.1992H4.38954C3.31732 12.1992 2.4451 11.3094 2.4451 10.2156C2.4451 9.65843 2.67732 9.12283 3.08176 8.74763C3.51843 8.3424 3.72343 7.74276 3.61676 7.18166C3.5401 6.77813 3.53565 6.36269 3.60343 5.94555C3.82732 4.57284 4.91732 3.43988 6.25398 3.18993C6.46787 3.15026 6.68065 3.13099 6.89065 3.13099C8.1751 3.13099 9.33787 3.86155 9.90287 5.07726C10.1323 5.57148 10.5695 5.91721 11.1018 6.02546C12.524 6.31508 13.5557 7.6005 13.5557 9.08259C13.5557 10.801 12.1845 12.1998 10.5001 12.1998L10.5007 12.1992ZM9.73454 7.83118C9.95176 8.05278 9.95176 8.41098 9.73454 8.63258C9.62621 8.7431 9.48398 8.79864 9.34176 8.79864C9.19954 8.79864 9.05732 8.7431 8.94899 8.63258L8.00065 7.66511V10.4989C8.00065 10.8124 7.75176 11.0657 7.4451 11.0657C7.13843 11.0657 6.88954 10.8124 6.88954 10.4989V7.66511L5.94121 8.63258C5.72398 8.85419 5.37287 8.85419 5.15565 8.63258C4.93843 8.41098 4.93843 8.05278 5.15565 7.83118L6.65954 6.29694C6.87398 6.07817 7.15565 5.96822 7.43732 5.96652L7.4451 5.96482L7.45287 5.96652C7.7351 5.96822 8.01621 6.07817 8.23065 6.29694L9.73454 7.83118Z" fill="#66718E"/>
</svg>
