<svg width="48" height="48" viewBox="0 0 48 48" fill="none" xmlns="http://www.w3.org/2000/svg">
<rect width="48" height="48" rx="12" fill="url(#paint0_linear_124_940)"/>
<path d="M35.9009 16.4798C31.7209 9.99979 23.1609 8.07979 16.5409 12.0998C10.0809 16.1198 8.00088 24.8798 12.1809 31.3398L12.5209 31.8598L11.1209 37.0998L16.3609 35.6998L16.8809 36.0398C19.1409 37.2598 21.6009 37.9598 24.0409 37.9598C26.6609 37.9598 29.2809 37.2598 31.5409 35.8598C38.0009 31.6598 39.9209 23.0798 35.9009 16.4398V16.4798ZM32.2409 29.9598C31.5409 30.9998 30.6609 31.6998 29.4409 31.8798C28.7409 31.8798 27.8609 32.2198 24.3809 30.8398C21.4209 29.4398 18.9609 27.1598 17.2209 24.5398C16.1809 23.3198 15.6409 21.7398 15.4809 20.1598C15.4809 18.7598 16.0009 17.5398 16.8809 16.6598C17.2209 16.3198 17.5809 16.1398 17.9209 16.1398H18.8009C19.1409 16.1398 19.5009 16.1398 19.6809 16.8398C20.0209 17.7198 20.9009 19.8198 20.9009 19.9998C21.0809 20.1798 21.0009 21.5198 20.2009 22.2798C19.7609 22.7798 19.6809 22.7998 19.8609 23.1598C20.5609 24.1998 21.4409 25.2598 22.3009 26.1398C23.3409 27.0198 24.4009 27.7198 25.6209 28.2398C25.9609 28.4198 26.3209 28.4198 26.5009 28.0598C26.6809 27.7198 27.5409 26.8398 27.9009 26.4798C28.2409 26.1398 28.4209 26.1398 28.7809 26.2998L31.5809 27.6998C31.9209 27.8798 32.2809 28.0398 32.4609 28.2198C32.6409 28.7398 32.6409 29.4398 32.2809 29.9598H32.2409Z" fill="white"/>
<defs>
<linearGradient id="paint0_linear_124_940" x1="4.5" y1="1.5" x2="26.5" y2="30" gradientUnits="userSpaceOnUse">
<stop stop-color="#3EFF4D"/>
<stop offset="1" stop-color="#058E0F"/>
</linearGradient>
</defs>
</svg>
