<svg width="18" height="18" viewBox="0 0 18 18" fill="none" xmlns="http://www.w3.org/2000/svg">
<rect width="18" height="18" rx="9" fill="white"/>
<path d="M9 4C11.7615 4 14 6.2385 14 9C14 11.7615 11.7615 14 9 14C8.11639 14.0014 7.24833 13.7676 6.48501 13.3225L4.00201 14L4.67801 11.516C4.23255 10.7524 3.99853 9.884 4.00001 9C4.00001 6.2385 6.23851 4 9 4ZM7.29601 6.65L7.196 6.654C7.13127 6.65794 7.06799 6.67495 7.01 6.704C6.95577 6.73471 6.90625 6.77311 6.86301 6.818C6.80301 6.8745 6.76901 6.9235 6.73251 6.971C6.54757 7.21145 6.44799 7.50665 6.44951 7.81C6.45051 8.055 6.51451 8.2935 6.61451 8.5165C6.81901 8.9675 7.1555 9.445 7.5995 9.8875C7.7065 9.994 7.8115 10.101 7.9245 10.2005C8.4762 10.6862 9.13363 11.0365 9.8445 11.2235L10.1285 11.267C10.221 11.272 10.3135 11.265 10.4065 11.2605C10.5521 11.253 10.6943 11.2135 10.823 11.145C10.8885 11.1113 10.9524 11.0746 11.0145 11.035C11.0145 11.035 11.036 11.021 11.077 10.99C11.1445 10.94 11.186 10.9045 11.242 10.846C11.2835 10.803 11.3195 10.7525 11.347 10.695C11.386 10.6135 11.425 10.458 11.441 10.3285C11.453 10.2295 11.4495 10.1755 11.448 10.142C11.446 10.0885 11.4015 10.033 11.353 10.0095L11.062 9.879C11.062 9.879 10.627 9.6895 10.361 9.5685C10.3332 9.55634 10.3033 9.54939 10.273 9.548C10.2388 9.54448 10.2042 9.54833 10.1716 9.55928C10.139 9.57024 10.1092 9.58804 10.084 9.6115C10.0815 9.6105 10.048 9.639 9.6865 10.077C9.66575 10.1049 9.63717 10.1259 9.6044 10.1375C9.57164 10.1491 9.53616 10.1507 9.5025 10.142C9.46993 10.1333 9.43802 10.1222 9.407 10.109C9.345 10.083 9.3235 10.073 9.281 10.055C8.99404 9.92977 8.72835 9.76057 8.4935 9.5535C8.4305 9.4985 8.372 9.4385 8.312 9.3805C8.1153 9.19211 7.94387 8.979 7.802 8.7465L7.7725 8.699C7.75132 8.66708 7.73418 8.63265 7.7215 8.5965C7.7025 8.523 7.752 8.464 7.752 8.464C7.752 8.464 7.8735 8.331 7.93 8.259C7.985 8.189 8.0315 8.121 8.0615 8.0725C8.1205 7.9775 8.139 7.88 8.108 7.8045C7.968 7.4625 7.823 7.122 7.674 6.784C7.6445 6.717 7.557 6.669 7.4775 6.6595C7.4505 6.6565 7.4235 6.6535 7.3965 6.6515C7.32936 6.64816 7.26207 6.64883 7.195 6.6535L7.29601 6.65Z" fill="#004890"/>
</svg>
