<svg width="52" height="52" viewBox="0 0 52 52" fill="none" xmlns="http://www.w3.org/2000/svg">
<rect x="1" y="1" width="50" height="50" rx="25" stroke="#FF5656" stroke-width="2"/>
<path fill-rule="evenodd" clip-rule="evenodd" d="M15.5185 15.5182C15.7439 15.2931 16.0495 15.1666 16.368 15.1666C16.6866 15.1666 16.9921 15.2931 17.2175 15.5182L36.4511 34.7517C36.5692 34.8618 36.6639 34.9945 36.7296 35.1419C36.7953 35.2894 36.8306 35.4486 36.8335 35.61C36.8363 35.7714 36.8066 35.9317 36.7462 36.0814C36.6857 36.2311 36.5957 36.3671 36.4816 36.4812C36.3674 36.5954 36.2315 36.6853 36.0818 36.7458C35.9321 36.8063 35.7718 36.836 35.6104 36.8331C35.449 36.8303 35.2898 36.7949 35.1423 36.7292C34.9949 36.6635 34.8621 36.5688 34.7521 36.4507L15.5185 17.2171C15.2934 16.9918 15.167 16.6862 15.167 16.3677C15.167 16.0491 15.2934 15.7436 15.5185 15.5182Z" fill="#FF5656"/>
<path fill-rule="evenodd" clip-rule="evenodd" d="M36.4505 15.5182C36.6756 15.7436 36.802 16.0491 36.802 16.3677C36.802 16.6862 36.6756 16.9918 36.4505 17.2171L17.2169 36.4507C16.989 36.663 16.6876 36.7786 16.3762 36.7731C16.0648 36.7676 15.7676 36.6415 15.5474 36.4212C15.3272 36.201 15.201 35.9039 15.1955 35.5924C15.19 35.281 15.3056 34.9796 15.5179 34.7517L34.7515 15.5182C34.9769 15.2931 35.2824 15.1666 35.601 15.1666C35.9195 15.1666 36.2251 15.2931 36.4505 15.5182Z" fill="#FF5656"/>
</svg>
